<svg width="24" height="24" viewBox="0 0 24 24" fill="none" xmlns="http://www.w3.org/2000/svg">
<path d="M11.9355 0.5C14.06 0.500092 16.08 1.19072 17.5615 2.47656C19.0346 3.75514 20 5.64212 20 8.10156C20 10.9278 18.8502 13.5416 17.2432 15.4492C15.6235 17.3717 13.6099 18.4998 11.9355 18.5C10.2732 18.5 8.29172 17.3092 6.69727 15.3418C5.11677 13.3915 4 10.7745 4 8.10156C4.00001 5.44462 5.06128 3.56156 6.56348 2.33301C8.07989 1.09306 10.0727 0.5 11.9355 0.5Z" stroke="#444444" stroke-linecap="round"/>
<path d="M12.2532 3.28108C10.0023 2.83564 6.53304 4.8986 6.73448 8.84898" stroke="#FF6F3D" stroke-linecap="round"/>
<path d="M18.3414 18.7399C20.3375 17.3209 22.0967 14.5631 22.5111 11.667" stroke="#FF6F3D" stroke-linecap="round"/>
<path d="M11.2609 18.8119C11.6576 18.3763 12.3429 18.3763 12.7396 18.8119L15.2271 21.5434C15.8945 22.2762 15.2038 23.429 14.2429 23.1862L12.2451 22.6816C12.0844 22.641 11.9161 22.641 11.7553 22.6816L9.75761 23.1862C8.79667 23.429 8.106 22.2762 8.77334 21.5434L11.2609 18.8119Z" fill="#444444"/>
<circle cx="7.66943" cy="11.4832" r="0.75" fill="#FF6F3D"/>
</svg>
