<svg width="24" height="24" viewBox="0 0 24 24" fill="none" xmlns="http://www.w3.org/2000/svg">
<path d="M3.99997 12L1.78882 10.8944C0.800862 10.4004 0.800863 9.59953 1.78882 9.10556L10.2111 4.89441C11.1991 4.40043 12.8009 4.40043 13.7888 4.89441L22.2111 9.10556C23.1991 9.59953 23.1991 10.4004 22.2111 10.8944L13.7888 15.1056C12.8009 15.5995 11.1991 15.5995 10.2111 15.1056L7.10554 13.5528" stroke="#444444" stroke-miterlimit="2.3662" stroke-linecap="round" stroke-linejoin="round"/>
<path d="M7.00544 17.9525C7.00928 17.2481 7.01301 16.5625 7.00859 15.8286C7.3193 15.9989 7.63909 16.1814 7.95992 16.3644C8.50367 16.6747 9.05037 16.9867 9.56084 17.2437C10.3812 17.6569 11.2304 17.9961 12.0146 17.9961C12.4617 17.9961 13.0489 17.8066 13.6526 17.5601C14.2781 17.3047 14.9982 16.9547 15.7403 16.572C16.4814 16.1898 17.2545 15.7697 17.9884 15.3709L17.995 15.3673C18.7232 14.9717 19.4105 14.5983 20 14.2974V14.298V14.3049V14.3117V14.3185V14.3253V14.3321V14.3389V14.3456V14.3524V14.3592V14.366V14.3728V14.3796V14.3864V14.3931V14.3999V14.4067V14.4134V14.4202V14.427V14.4337V14.4405V14.4472V14.454V14.4607V14.4675V14.4742V14.481V14.4877V14.4945V14.5012V14.5079V14.5147V14.5214V14.5281V14.5349V14.5416V14.5483V14.555V14.5617V14.5684V14.5752V14.5819V14.5886V14.5953V14.602V14.6087V14.6154V14.6221V14.6288V14.6355V14.6422V14.6489V14.6555V14.6622V14.6689V14.6756V14.6823V14.6889V14.6956V14.7023V14.709V14.7156V14.7223V14.729V14.7356V14.7423V14.749V14.7556V14.7623V14.7689V14.7756V14.7822V14.7889V14.7955V14.8022V14.8088V14.8155V14.8221V14.8287V14.8354V14.842V14.8486V14.8553V14.8619V14.8685V14.8752V14.8818V14.8884V14.895V14.9017V14.9083V14.9149V14.9215V14.9281V14.9347V14.9414V14.948V14.9546V14.9612V14.9678V14.9744V14.981V14.9876V14.9942V15.0008V15.0074V15.014V15.0206V15.0272V15.0338V15.0404V15.0469V15.0535V15.0601V15.0667V15.0733V15.0799V15.0865V15.093V15.0996V15.1062V15.1128V15.1193V15.1259V15.1325V15.1391V15.1456V15.1522V15.1588V15.1653V15.1719V15.1785V15.185V15.1916V15.1982V15.2047V15.2113V15.2179V15.2244V15.231V15.2375V15.2441V15.2506V15.2572V15.2637V15.2703V15.2768V15.2834V15.2899V15.2965V15.303V15.3096V15.3161V15.3227V15.3292V15.3358V15.3423V15.3489V15.3554V15.3619V15.3685V15.375V15.3816V15.3881V15.3946V15.4012V15.4077V15.4142V15.4208V15.4273V15.4338V15.4404V15.4469V15.4534V15.46V15.4665V15.473V15.4796V15.4861V15.4926V15.4992V15.5057V15.5122V15.5187V15.5253V15.5318V15.5383V15.5448V15.5514V15.5579V15.5644V15.5709V15.5775V15.584V15.5905V15.597V15.6036V15.6101V15.6166V15.6231V15.6296V15.6362V15.6427V15.6492V15.6557V15.6622V15.6688V15.6753V15.6818V15.6883V15.6948V15.7014V15.7079V15.7144V15.7209V15.7274V15.734V15.7405V15.747V15.7535V15.76V15.7666V15.7731V15.7796V15.7861V15.7926V15.7992V15.8057V15.8122V15.8187V15.8252V15.8318V15.8383V15.8448V15.8513V15.8578V15.8644V15.8709V15.8774V15.8839V15.8905V15.897V15.9035V15.91V15.9166V15.9231V15.9296V15.9361V15.9426V15.9492V15.9557V15.9622V15.9688V15.9753V15.9818V15.9883V15.9949V16.0014V16.0079V16.0144V16.021V16.0275V16.034V16.0406V16.0471V16.0536V16.0602V16.0667V16.0732V16.0798V16.0863V16.0928V16.0994V16.1059V16.1125V16.119V16.1255V16.1321V16.1386V16.1452V16.1517V16.1582V16.1648V16.1713V16.1779V16.1844V16.191V16.1975V16.2041V16.2106V16.2172V16.2237V16.2303V16.2368V16.2434V16.2499V16.2565V16.2631V16.2696V16.2762V16.2827V16.2893V16.2959V16.3024V16.309V16.3155V16.3221V16.3287V16.3352V16.3418V16.3484V16.355V16.3615V16.3681V16.3747V16.3813V16.3878V16.3944V16.401V16.4076V16.4142V16.4207V16.4273V16.4339V16.4405V16.4471V16.4537V16.4603V16.4669V16.4735V16.48V16.4866V16.4932V16.4998V16.5064V16.513V16.5196V16.5263V16.5329V16.5395V16.5461V16.5527V16.5593V16.5659V16.5725V16.5791V16.5858V16.5924V16.599V16.6056V16.6123V16.6189V16.6255V16.6321V16.6388V16.6454V16.652V16.6587V16.6653V16.6719V16.6786V16.6852V16.6919V16.6985V16.7052V16.7118V16.7185V16.7251V16.7318V16.7384V16.7451V16.7518V16.7584V16.7651V16.7717V16.7784V16.7851V16.7918V16.7984V16.8051V16.8118V16.8185V16.8251V16.8318V16.8385V16.8452V16.8519V16.8586V16.8653V16.872V16.8787V16.8854V16.8921V16.8988V16.9055V16.9122V16.9189V16.9256V16.9323V16.9391V16.9458V16.9525V16.9592V16.9659V16.9727V16.9794V16.9861V16.9929V16.9996V17.0064V17.0131V17.0198V17.0266V17.0333V17.0401V17.0468V17.0536V17.0604V17.0671V17.0739V17.0806V17.0874V17.0942V17.101V17.1077V17.1145V17.1213V17.1281V17.1349V17.1416V17.1484V17.1552V17.162V17.1688V17.1756V17.1824V17.1892V17.196V17.2029V17.2097V17.2165V17.2233V17.2301V17.237V17.2438V17.2506V17.2575V17.2643V17.2711V17.278V17.2848V17.2917V17.2985V17.3054V17.3122V17.3191V17.3259V17.3328V17.3397V17.3465V17.3534V17.3603V17.3672V17.3741V17.3809V17.3878V17.3947V17.4016V17.4085V17.4154V17.4223V17.4292V17.4361V17.443V17.45V17.4569V17.4638V17.4707V17.4777V17.4846V17.4915V17.4985V17.5054V17.5123V17.5193V17.5262V17.5332V17.5402V17.5471V17.5541V17.561V17.568V17.575V17.582V17.5889V17.5959V17.6029V17.6099V17.6169V17.6239V17.6309V17.6379V17.6449V17.6519V17.6589V17.6659V17.673V17.68V17.687C20 17.6882 19.9998 17.6888 19.9994 17.6895C19.9989 17.6903 19.9977 17.6918 19.9948 17.6933C19.5013 17.952 18.8919 18.2963 18.2335 18.6682C18.1718 18.7031 18.1097 18.7382 18.0471 18.7735C17.3138 19.1876 16.523 19.632 15.7455 20.041C14.9668 20.4508 14.2112 20.8198 13.5488 21.0854C12.8702 21.3575 12.348 21.4961 12.0146 21.4961C11.4001 21.4961 10.7512 21.2983 9.93874 20.9017C9.21007 20.546 8.39072 20.0518 7.37847 19.4414C7.25543 19.3671 7.12954 19.2912 7.00062 19.2136L7.00024 19.2138C7.00095 18.7781 7.00322 18.3621 7.00544 17.9525Z" stroke="#444444" stroke-linejoin="round"/>
<path d="M5.0091 15.9964C5.03899 16.1722 5.07102 16.3478 5.09878 16.5239C5.3365 18.0195 5.57351 19.5151 5.81087 21.0107C5.8703 21.3844 5.91585 21.7602 5.99272 22.1316C6.05286 22.4235 5.72831 22.7934 5.46141 22.9048C5.09415 23.0579 4.62476 23.0181 4.33437 22.7878C4.07815 22.5846 3.95644 22.3478 4.01409 22.0368C4.14505 21.3302 4.24505 20.6195 4.3575 19.9106C4.49345 19.0512 4.62868 18.1918 4.76497 17.3321C4.83544 16.8876 4.90661 16.4432 4.97778 15.9985C4.98846 15.9976 4.99913 15.9967 5.00981 15.9961L5.0091 15.9964Z" fill="#F25620"/>
<ellipse cx="12" cy="9.99988" rx="2" ry="1" fill="#F25620"/>
<path d="M11 9.99988L5.55279 12.7235C5.214 12.8929 5 13.2391 5 13.6179V19.9961" stroke="#F25620"/>
<mask id="path-6-inside-1_2256_36237" fill="white">
<path d="M3.94319 18.5468C3.46875 18.0468 2.99413 17.718 2.98354 17.2423C2.95677 16.0205 2.97451 14.7973 2.97451 13.5468C3.30612 13.7338 3.62621 13.912 3.94319 14.0975C3.94319 14.2935 3.96875 18.0468 3.94319 18.5468Z"/>
</mask>
<path d="M3.94319 18.5468L3.21778 19.2352L4.82282 20.9267L4.94188 18.5979L3.94319 18.5468ZM2.98354 17.2423L1.98378 17.2642L1.98379 17.2645L2.98354 17.2423ZM2.97451 13.5468L3.46562 12.6757L1.97451 11.8351V13.5468H2.97451ZM3.94319 14.0975H4.94319V13.5241L4.44827 13.2344L3.94319 14.0975ZM4.66859 17.8585C4.53335 17.716 4.39803 17.5857 4.2926 17.4829C4.17926 17.3724 4.10149 17.2947 4.04084 17.2256C3.914 17.0812 3.98071 17.1038 3.9833 17.22L1.98379 17.2645C1.99697 17.8566 2.30628 18.2814 2.538 18.5453C2.65664 18.6804 2.78713 18.8084 2.89655 18.915C3.01388 19.0294 3.1158 19.1277 3.21778 19.2352L4.66859 17.8585ZM3.9833 17.2204C3.95684 16.013 3.97451 14.8169 3.97451 13.5468H1.97451C1.97451 14.7778 1.95669 16.028 1.98378 17.2642L3.9833 17.2204ZM2.4834 14.4179C2.82133 14.6084 3.13027 14.7804 3.4381 14.9606L4.44827 13.2344C4.12216 13.0436 3.79091 12.8591 3.46562 12.6757L2.4834 14.4179ZM2.94319 14.0975C2.94319 14.3361 2.96833 18.0295 2.94449 18.4958L4.94188 18.5979C4.96917 18.0641 4.94319 14.2508 4.94319 14.0975H2.94319Z" fill="#444444" mask="url(#path-6-inside-1_2256_36237)"/>
</svg>
