<svg width="24" height="24" viewBox="0 0 24 24" fill="none" xmlns="http://www.w3.org/2000/svg">
<path fill-rule="evenodd" clip-rule="evenodd" d="M0 5.5C0 4.11929 1.11929 3 2.5 3H21.5C22.8807 3 24 4.11929 24 5.5V16.2778C24 16.5539 23.7761 16.7778 23.5 16.7778C23.2239 16.7778 23 16.5539 23 16.2778V5.5C23 4.67157 22.3284 4 21.5 4H2.5C1.67157 4 1 4.67157 1 5.5V17.5C1 18.3284 1.67157 19 2.5 19H19.5C19.7761 19 20 19.2239 20 19.5C20 19.7761 19.7761 20 19.5 20H2.5C1.11929 20 0 18.8807 0 17.5V5.5Z" fill="#333333"/>
<path fill-rule="evenodd" clip-rule="evenodd" d="M12.7078 8.08688C12.9797 8.13483 13.1662 8.36661 13.1242 8.60456L12.0606 14.6365C12.0187 14.8745 11.7642 15.0285 11.4923 14.9805C11.2203 14.9326 11.0339 14.7008 11.0758 14.4629L12.1394 8.43091C12.1814 8.19296 12.4358 8.03893 12.7078 8.08688Z" fill="#F25620"/>
<path fill-rule="evenodd" clip-rule="evenodd" d="M8.84556 8.14645C9.05148 8.34171 9.05148 8.65829 8.84556 8.85355L6.0546 11.5L8.84556 14.1464C9.05148 14.3417 9.05148 14.6583 8.84556 14.8536C8.63963 15.0488 8.30576 15.0488 8.09984 14.8536L5.30889 12.2071C4.89704 11.8166 4.89704 11.1834 5.30889 10.7929L8.09984 8.14645C8.30576 7.95118 8.63963 7.95118 8.84556 8.14645Z" fill="#F25620"/>
<path fill-rule="evenodd" clip-rule="evenodd" d="M15.1544 14.8536C14.9485 14.6583 14.9485 14.3417 15.1544 14.1464L17.9454 11.5L15.1544 8.85355C14.9485 8.65829 14.9485 8.34171 15.1544 8.14645C15.3604 7.95118 15.6942 7.95118 15.9002 8.14645L18.6911 10.7929C19.103 11.1834 19.103 11.8166 18.6911 12.2071L15.9002 14.8536C15.6942 15.0488 15.3604 15.0488 15.1544 14.8536Z" fill="#F25620"/>
</svg>
