<svg width="24" height="24" viewBox="0 0 24 24" fill="none" xmlns="http://www.w3.org/2000/svg">
<g clip-path="url(#clip0_2279_36654)">
<path d="M4.48737 5.8629C4.16768 5.8629 3.84799 5.86573 3.5283 5.86196C3.22127 5.85865 3.01174 5.66501 3.0019 5.38259C2.99112 5.08127 3.18283 4.86402 3.50674 4.85835C4.16955 4.84702 4.83237 4.84702 5.49518 4.85835C5.81815 4.86402 6.01033 5.08316 5.99862 5.38401C5.98737 5.66643 5.77877 5.85865 5.47033 5.86196C5.14268 5.86526 4.81549 5.8629 4.48783 5.8629H4.48737Z" fill="#F25620"/>
<path d="M4.50065 8.88554C4.17299 8.88554 3.84581 8.88885 3.51815 8.88459C3.2144 8.88034 3.00721 8.6801 3.00159 8.39531C2.99596 8.10391 3.18299 7.88902 3.49378 7.88336C4.16409 7.87108 4.83487 7.87108 5.50518 7.88336C5.81643 7.88902 6.0044 8.10344 5.99878 8.39437C5.99362 8.68765 5.78174 8.88271 5.45971 8.88554C5.14003 8.88837 4.82034 8.88601 4.50065 8.88601V8.88554Z" fill="#F25620"/>
<path d="M4.49472 11.9082C4.17503 11.9082 3.85535 11.9106 3.53566 11.9077C3.22535 11.9049 3.01535 11.7164 3.00175 11.4359C2.98722 11.1336 3.17753 10.9112 3.4991 10.9055C4.16941 10.8937 4.84019 10.8937 5.5105 10.907C5.82035 10.9131 6.00644 11.1303 5.99847 11.4227C5.99097 11.7065 5.78238 11.9044 5.47769 11.9082C5.15003 11.912 4.82285 11.9091 4.49519 11.9091L4.49472 11.9082Z" fill="#F25620"/>
<path d="M4.49866 14.9307C4.17101 14.9307 3.84335 14.934 3.51616 14.9298C3.22319 14.926 3.01694 14.7338 3.00194 14.4618C2.986 14.168 3.16835 13.9375 3.4721 13.9309C4.15788 13.9167 4.84413 13.9167 5.52991 13.9309C5.83225 13.9375 6.01554 14.1708 5.99772 14.4636C5.98132 14.7352 5.77507 14.9255 5.48116 14.9293C5.1535 14.9336 4.82632 14.9303 4.49866 14.9303V14.9307Z" fill="#F25620"/>
<path d="M9.50792 5.86297C9.18026 5.86297 8.85307 5.86581 8.52542 5.86203C8.21651 5.85872 8.01167 5.66603 8.00229 5.37936C7.99292 5.08843 8.17948 4.86693 8.48698 4.86079C9.16479 4.84804 9.84354 4.84898 10.5218 4.86173C10.8082 4.8674 11.0103 5.09882 11.007 5.36424C11.0032 5.64242 10.7857 5.85683 10.4909 5.86156C10.1632 5.86675 9.83604 5.8625 9.50838 5.8625L9.50792 5.86297Z" fill="#F25620"/>
<path d="M9.51334 8.8855C9.18569 8.8855 8.8585 8.88834 8.53084 8.88456C8.21959 8.88125 8.01475 8.69281 8.00303 8.40708C7.99037 8.10718 8.18303 7.8871 8.50553 7.88143C9.16787 7.86962 9.83115 7.87057 10.4935 7.88143C10.7977 7.88615 11.0068 8.10812 11.0068 8.38205C11.0068 8.66825 10.7837 8.88125 10.4724 8.88456C10.1527 8.88834 9.83303 8.8855 9.51334 8.8855Z" fill="#F25620"/>
<path d="M9.47589 11.9082C9.1562 11.9082 8.83651 11.9115 8.51683 11.9072C8.22011 11.903 8.01995 11.7169 8.00401 11.4397C7.98714 11.1459 8.16854 10.915 8.47276 10.9088C9.15854 10.8947 9.84479 10.8956 10.5306 10.9088C10.8146 10.9145 11.0157 11.154 11.0064 11.4184C10.9965 11.6975 10.7804 11.903 10.4818 11.9068C10.1467 11.911 9.81104 11.9077 9.47589 11.9077V11.9082Z" fill="#F25620"/>
<path d="M9.50116 14.9307C9.1735 14.9307 8.84631 14.934 8.51866 14.9298C8.21303 14.9255 8.00819 14.7276 8.0021 14.4405C7.996 14.1505 8.18444 13.9342 8.49428 13.9285C9.1646 13.9162 9.83538 13.9162 10.5057 13.9285C10.8057 13.9337 11.0148 14.1675 11.0063 14.4405C10.9974 14.7276 10.7766 14.9283 10.4598 14.9312C10.1401 14.934 9.82038 14.9316 9.50069 14.9316L9.50116 14.9307Z" fill="#F25620"/>
<path d="M18.5036 14.9308C18.1759 14.9308 17.8487 14.9341 17.5211 14.9298C17.2145 14.926 17.0092 14.73 17.0022 14.4429C16.9947 14.1524 17.1822 13.9342 17.4915 13.9286C18.1619 13.9158 18.8326 13.9163 19.503 13.9276C19.8034 13.9328 20.013 14.1642 20.0064 14.4372C19.9994 14.7239 19.7776 14.9275 19.4626 14.9303C19.143 14.9331 18.8233 14.9308 18.5036 14.9308Z" fill="#F25620"/>
<path d="M18.5011 17.9533C18.1735 17.9533 17.8463 17.9566 17.5186 17.9524C17.213 17.9486 17.0077 17.7503 17.0016 17.4631C16.9955 17.1731 17.184 16.9563 17.4938 16.9507C18.1641 16.9384 18.8349 16.9384 19.5052 16.9502C19.8052 16.9554 20.0143 17.1892 20.0063 17.4617C19.9979 17.7488 19.7766 17.95 19.4602 17.9524C19.1405 17.9552 18.8208 17.9529 18.5011 17.9529V17.9533Z" fill="#F25620"/>
<path d="M18.5079 20.976C18.1803 20.976 17.8531 20.9789 17.5254 20.9751C17.217 20.9713 17.0117 20.7786 17.0023 20.4924C16.9929 20.2015 17.1795 19.98 17.487 19.9743C18.1648 19.9616 18.8435 19.9625 19.5218 19.9753C19.8082 19.9809 20.0103 20.2128 20.0065 20.4778C20.0028 20.7559 19.7853 20.9704 19.4899 20.9746C19.1623 20.9798 18.8351 20.9756 18.5074 20.9756L18.5079 20.976Z" fill="#F25620"/>
<path fill-rule="evenodd" clip-rule="evenodd" d="M0 22.7725V1.23542C0.00441248 1.22668 0.00924031 1.21807 0.0140636 1.20948L0.0140638 1.20948C0.0246121 1.19068 0.0351384 1.17192 0.04125 1.15183C0.294844 0.316358 0.992813 -0.110114 1.84172 0.024487C3.22708 0.244632 4.61369 0.45625 6.00027 0.667863L6.92719 0.809421C7.61896 0.915218 8.31085 1.01982 9.00274 1.12442C10.2073 1.30652 11.4117 1.48862 12.6155 1.677C13.53 1.82011 13.9995 2.4029 14 3.33377C14.0003 4.59023 14.0002 5.84699 14.0001 7.10356V7.11156L14 9V7H13V3.33377C13 2.96114 12.8611 2.7505 12.4969 2.68816C12.1244 2.6246 11.7505 2.56751 11.3771 2.51049L11.3653 2.5087C10.5791 2.38931 9.79275 2.27051 9.00647 2.15171L9.00604 2.15164L9.00592 2.15163C8.19664 2.02935 7.38742 1.90709 6.57844 1.78421C6.03953 1.70235 5.50068 1.62003 4.96182 1.5377L4.96141 1.53764L4.96138 1.53763C3.8744 1.37156 2.78736 1.20548 1.69969 1.0432C1.20375 0.969053 1.00453 1.1523 1.00453 1.66095C1.00359 8.55533 1.00359 15.4503 1.00453 22.3451C1.00453 22.8183 1.03312 22.9981 1.5 23C2.05343 23.0019 2.60687 23.0013 3.16031 23.0006C3.43703 23.0003 3.71375 23 3.99047 23V18.6135C3.99047 17.5731 4.60266 16.9469 5.62828 16.9436C6.54234 16.9407 7.45594 16.9402 8.37 16.9454C8.54016 16.9464 8.71594 16.9568 8.87953 16.9993C9.58969 17.1844 9.99984 17.7582 10.0022 18.5673C10.0049 19.5479 10.004 20.5391 10.0031 21.5269C10.0026 22.0194 10.0022 22.511 10.0022 23H11V24H1.21875C1.16822 23.9783 1.11701 23.9578 1.0658 23.9373L1.06576 23.9373C0.95213 23.8918 0.838484 23.8464 0.732188 23.7875C0.331875 23.5669 0.135938 23.1905 0 22.7725ZM14 24H22.7812C23.5 24 24 23.3775 24 22.8039V11.9085C23.9737 11.8514 23.9493 11.7931 23.9249 11.7347C23.8711 11.6061 23.8173 11.4775 23.7431 11.3621C23.4792 10.9512 23.0695 10.7793 22.6083 10.6882C21.6338 10.4955 20.648 10.3204 19.6601 10.145C17.7588 9.80728 15.8499 9.46825 14 9V10H13V23H14V24ZM14 23C15.5975 23 17.0664 22.9968 18.5081 22.9937H18.5088C19.7742 22.991 21.0186 22.9884 22.3106 22.9879C22.4039 22.9879 22.4991 22.986 22.5905 22.9699C22.8047 22.9317 22.9383 22.7999 22.9767 22.5836C22.9941 22.484 22.9955 22.3801 22.9955 22.2781C22.9964 18.9895 22.9964 15.7 22.9959 12.4115L22.9962 12.3674C22.9966 12.327 22.9969 12.2867 22.9945 12.2462C22.9767 11.9288 22.8516 11.7749 22.5394 11.7125C21.3222 11.4687 20.1047 11.2262 18.8871 10.9838L18.8812 10.9826C18.1295 10.833 17.3777 10.6833 16.6261 10.5333C16.0495 10.4183 15.4729 10.3026 14.8928 10.1861L14.8927 10.1861L14.0269 10.0123L14 23ZM9.00071 21.1539V21.1515V21.1498C9.00102 20.2891 9.00133 19.4357 9.00047 18.5786C9.00047 18.1436 8.80688 17.9547 8.36625 17.9542C7.45359 17.9533 6.54047 17.9533 5.62781 17.9542C5.18062 17.9547 5.00953 18.1294 5.00953 18.5843C5.00929 19.2952 5.00703 20.012 5.00478 20.729V20.7291C5.00239 21.4881 5 22.2474 5 23H9.00047C9.00027 22.3783 9.00049 21.7642 9.00071 21.1539Z" fill="#444444"/>
<path d="M13 10C13 9.44772 13.4477 9 14 9V10H13Z" fill="#444444"/>
<path d="M14 24C13.4477 24 13 23.5523 13 23L14 23L14 24Z" fill="#444444"/>
<path d="M14 7.5C14 7.77614 13.7761 8 13.5 8C13.2239 8 13 7.77614 13 7.5L13 7L14 7L14 7.5Z" fill="#444444"/>
<path d="M11.5 23C11.7761 23 12 23.2239 12 23.5C12 23.7761 11.7761 24 11.5 24L11 24L11 23L11.5 23Z" fill="#444444"/>
</g>
<defs>
<clipPath id="clip0_2279_36654">
<rect width="24" height="24" fill="white"/>
</clipPath>
</defs>
</svg>
