<svg width="24" height="24" viewBox="0 0 24 24" fill="none" xmlns="http://www.w3.org/2000/svg">
<g clip-path="url(#clip0_2256_36195)">
<path d="M7.5 7L1.74421 9.09302C0.751931 9.45384 0.751931 10.0389 1.74421 10.3997L10.2033 13.4757C11.1956 13.8366 12.8044 13.8366 13.7967 13.4757L22.2558 10.3997C23.2481 10.0389 23.2481 9.45384 22.2558 9.09302L17 7.18182" stroke="#444444" stroke-miterlimit="2.3662" stroke-linecap="round" stroke-linejoin="round"/>
<path fill-rule="evenodd" clip-rule="evenodd" d="M1 18.5183V13.3861C1 13.11 1.22386 12.8861 1.5 12.8861C1.77614 12.8861 2 13.11 2 13.3861V18.5183C2 18.7178 2.11856 18.8982 2.30166 18.9773L11.6175 22.8413C11.8624 22.9429 12.1377 22.9431 12.3827 22.8418L21.707 18.987C21.8855 18.9058 22 18.7279 22 18.5319V15.3861C22 15.11 22.2239 14.8861 22.5 14.8861C22.7761 14.8861 23 15.11 23 15.3861V18.5319C23 19.1192 22.6572 19.6525 22.123 19.8964C22.1217 19.8969 22.1222 19.8967 22.1209 19.8973C22.0794 19.916 12.9977 24 12 24C11 24 3.61266 20.6055 1.90498 19.8953C1.35567 19.6579 1 19.1167 1 18.5183Z" fill="#444444"/>
<path d="M23 14H22V13H23V14Z" fill="#444444"/>
<path d="M14 5.79439C14 7.2475 14.0004 8.7006 14 10.1537C14 10.7231 13.7461 10.9926 13.1993 10.9948C12.2382 10.9983 11.7606 10.9991 10.7994 10.9957C10.2522 10.9939 10.0004 10.7248 10 10.1537C9.99955 8.70118 10 7.24865 10 5.79613C9.61968 5.79613 9.03653 5.79978 8.68298 5.79613C8.4052 5.79396 8.20325 5.66049 8.08007 5.40743C7.95186 5.14483 7.97867 4.89003 8.15297 4.65777C9.22906 3.22303 10.3118 1.79556 11.393 0.365623C11.7617 -0.121874 12.2402 -0.121874 12.608 0.365623C13.6756 1.77915 14.7436 3.19224 15.8099 4.60663C16.0349 4.90477 16.0584 5.1834 15.8899 5.46463C15.7538 5.69256 15.5535 5.79829 15.2958 5.79743C14.956 5.79613 14.3733 5.79439 14 5.79439Z" fill="#F25620"/>
<path d="M11.5 16.5C11.5 16.2239 11.7239 16 12 16C12.2761 16 12.5 16.2239 12.5 16.5V23H11.5V16.5Z" fill="#444444"/>
</g>
<defs>
<clipPath id="clip0_2256_36195">
<rect width="24" height="24" fill="white"/>
</clipPath>
</defs>
</svg>
