<svg width="154" height="28" viewBox="0 0 154 28" fill="none" xmlns="http://www.w3.org/2000/svg">
<path fill-rule="evenodd" clip-rule="evenodd" d="M13.1879 27.6568L0.791966 21.8923C-0.263989 21.389 -0.263989 20.6113 0.791966 20.1538L5.1076 18.1407L13.142 21.8923C14.198 22.3955 15.8967 22.3955 16.9067 21.8923L24.9412 18.1407L29.2568 20.1538C30.3128 20.657 30.3128 21.4348 29.2568 21.8923L16.8608 27.6568C15.8967 28.1143 14.198 28.1143 13.1879 27.6568Z" fill="#FF6F3D"/>
<path fill-rule="evenodd" clip-rule="evenodd" d="M13.1478 20.5235L0.789553 14.7523C-0.263184 14.2485 -0.263184 13.4698 0.789553 13.0118L5.0005 11.0422L13.1478 14.8439C14.2005 15.3477 15.894 15.3477 16.901 14.8439L25.0483 11.0422L29.2592 13.0118C30.312 13.5156 30.312 14.2943 29.2592 14.7523L16.901 20.5235C15.8483 21.0273 14.1547 21.0273 13.1478 20.5235Z" fill="#95C038"/>
<path fill-rule="evenodd" clip-rule="evenodd" d="M13.1478 13.4642L0.789553 7.77607C-0.263184 7.27948 -0.263184 6.51203 0.789553 6.06059L13.1478 0.372439C14.2005 -0.124146 15.894 -0.124146 16.901 0.372439L29.2592 6.06059C30.312 6.55718 30.312 7.32463 29.2592 7.77607L16.901 13.4642C15.8483 13.9157 14.1547 13.9157 13.1478 13.4642Z" fill="#5DC0E8"/>
<path d="M45.2773 6.84448C41.7009 6.84448 38.1865 8.92319 38.1865 14C38.1865 19.0769 41.7009 21.1556 45.2773 21.1556C48.8537 21.1556 52.3681 19.0769 52.3681 14C52.3681 8.92319 48.8537 6.84448 45.2773 6.84448ZM45.2773 8.84324C46.373 8.84324 49.2672 9.26298 49.2672 14C49.2672 18.7371 46.373 19.1568 45.2773 19.1568C44.1817 19.1568 41.2875 18.7371 41.2875 14C41.2875 9.26298 44.1817 8.84324 45.2773 8.84324Z" fill="#333333"/>
<path d="M54.7531 7.00438V20.9957H57.6886V12.7608L57.6266 10.2823H57.6886L58.4122 11.8414L63.4563 20.9957H67.2601V7.00438H64.3246V15.2393L64.3866 17.7177H64.3246L63.5597 15.8189L58.5569 7.00438H54.7531Z" fill="#333333"/>
<path d="M70.1568 7.00438V20.9957H78.8394V18.6371H73.0923V7.00438H70.1568Z" fill="#333333"/>
<path d="M76.3586 7.00438L81.6922 15.2792V20.9957H84.6278V15.3192L89.8373 7.00438H86.7364L83.7388 11.9213L83.2427 12.8807H83.1807L82.7259 11.9213L79.749 7.00438H76.3586Z" fill="#333333"/>
<path d="M96.6768 6.84448C93.1004 6.84448 89.586 8.92319 89.586 14C89.586 19.0769 93.1004 21.1556 96.6768 21.1556C100.253 21.1556 103.768 19.0769 103.768 14C103.768 8.92319 100.253 6.84448 96.6768 6.84448ZM96.6768 8.84324C97.7725 8.84324 100.667 9.26298 100.667 14C100.667 18.7371 97.7725 19.1568 96.6768 19.1568C95.5811 19.1568 92.6869 18.7371 92.6869 14C92.6869 9.26298 95.5811 8.84324 96.6768 8.84324Z" fill="#333333"/>
<path d="M106.153 7.00438V20.9957H109.088V15.0594H114.008V12.7608H109.088V9.36291H114.256V7.00438H106.153Z" fill="#333333"/>
<path d="M116.327 7.00438V20.9957H119.263V15.0594H124.183V12.7608H119.263V9.36291H124.431V7.00438H116.327Z" fill="#333333"/>
<path d="M126.502 20.9957H129.438V7.00438H126.502V20.9957Z" fill="#333333"/>
<path d="M142.901 18.1774C142.177 18.4972 141.164 18.797 139.882 18.797C137.278 18.797 134.921 17.4179 134.921 14.04C134.921 11.1818 136.843 9.20301 140.089 9.20301C141.185 9.20301 142.115 9.40289 142.963 9.72269L143.087 7.32418C141.991 6.98439 141.019 6.84448 139.882 6.84448C135.334 6.84448 131.82 9.26298 131.82 14.08C131.82 19.1768 135.748 21.1556 139.345 21.1556C140.503 21.1556 141.805 20.9757 143.087 20.5559L142.901 18.1774Z" fill="#333333"/>
<path d="M145.358 7.00438V20.9957H154V18.5172H148.294V14.9394H153.483V12.6409H148.294V9.48284H154V7.00438H145.358Z" fill="#333333"/>
</svg>
