<svg width="12" height="12" viewBox="0 0 12 12" fill="none" xmlns="http://www.w3.org/2000/svg">
<path d="M9.49246 0.134625C9.40512 0.0472665 9.2864 -0.00128243 9.16287 2.57695e-05C9.03978 0.000897917 8.92193 0.0490107 8.83343 0.134625L4.32417 4.64513L4.30572 4.66388L4.29642 4.67318C4.28726 4.68714 4.27331 4.70109 4.26401 4.7149C4.26401 4.71955 4.25936 4.71955 4.25936 4.7242C4.25006 4.73801 4.24526 4.74746 4.23611 4.76127C4.23131 4.76592 4.23131 4.77072 4.22681 4.77522C4.22216 4.78918 4.21765 4.79848 4.21286 4.81243C4.21286 4.81709 4.20821 4.81709 4.20821 4.82159L3.02456 8.39183C2.96788 8.55797 3.01104 8.74214 3.13616 8.8654C3.22379 8.95188 3.34223 9.00029 3.46546 9C3.51589 8.99898 3.56603 8.99128 3.61413 8.97674L7.17423 7.78831C7.17874 7.78831 7.17874 7.78831 7.18339 7.78366C7.19807 7.77944 7.21231 7.77319 7.2251 7.7652C7.22873 7.76462 7.23207 7.76302 7.23454 7.7604C7.24835 7.75124 7.26695 7.74194 7.2809 7.73249C7.29471 7.72319 7.30866 7.70924 7.32261 7.70008C7.3274 7.69557 7.33191 7.69557 7.33191 7.69078C7.33656 7.68612 7.34586 7.68147 7.35066 7.67232L11.8641 3.15701C11.9512 3.07009 12 2.95235 12 2.82967C12 2.70685 11.9512 2.58896 11.8641 2.50233L9.49246 0.134625ZM4.85344 5.83371L6.16701 7.14758L4.19891 7.80212L4.85344 5.83371ZM7.02572 6.69261L5.3083 4.97494L9.16287 1.11883L10.8801 2.8365L7.02572 6.69261Z" fill="#919192"/>
<path fill-rule="evenodd" clip-rule="evenodd" d="M4 3H2C1.44772 3 1 3.44772 1 4V10C1 10.5523 1.44772 11 2 11H8C8.55229 11 9 10.5523 9 10V8H10V10C10 11.1046 9.10457 12 8 12H2C0.89543 12 0 11.1046 0 10V4C0 2.89543 0.895431 2 2 2H4V3Z" fill="#919192"/>
</svg>
