<svg width="13" height="13" viewBox="0 0 13 13" fill="none" xmlns="http://www.w3.org/2000/svg">
<path fill-rule="evenodd" clip-rule="evenodd" d="M1.00125 3.00002V11H11.0013V3.00002H1.00125ZM9.75126 1.50102H11.2513C11.3513 1.49504 11.4515 1.51035 11.5452 1.54593C11.6389 1.5815 11.724 1.63654 11.7949 1.70742C11.8657 1.77829 11.9208 1.86338 11.9564 1.95708C11.9919 2.05079 12.0072 2.15097 12.0013 2.25102V11.251C12.0072 11.3511 11.9919 11.4512 11.9564 11.5449C11.9208 11.6386 11.8657 11.7237 11.7949 11.7946C11.724 11.8655 11.6389 11.9205 11.5452 11.9561C11.4515 11.9917 11.3513 12.007 11.2513 12.001H0.751261C0.65121 12.007 0.55103 11.9917 0.457329 11.9561C0.363627 11.9205 0.278534 11.8655 0.207661 11.7946C0.136789 11.7237 0.0817487 11.6386 0.0461709 11.5449C0.0105931 11.4512 -0.00471354 11.3511 0.00126067 11.251V2.25102C-0.00471354 2.15097 0.0105931 2.05079 0.0461709 1.95708C0.0817487 1.86338 0.136789 1.77829 0.207661 1.70742C0.278534 1.63654 0.363627 1.5815 0.457329 1.54593C0.55103 1.51035 0.65121 1.49504 0.751261 1.50102H2.25126V0.751017C2.24529 0.650966 2.26059 0.550786 2.29617 0.457085C2.33175 0.363383 2.38679 0.278289 2.45766 0.207417C2.52853 0.136545 2.61363 0.0815045 2.70733 0.0459267C2.80103 0.0103489 2.90121 -0.00495769 3.00126 0.00101653C3.10131 -0.00495769 3.20149 0.0103489 3.29519 0.0459267C3.38889 0.0815045 3.47399 0.136545 3.54486 0.207417C3.61573 0.278289 3.67077 0.363383 3.70635 0.457085C3.74193 0.550786 3.75724 0.650966 3.75126 0.751017V1.50102H8.25126V0.751017C8.25126 0.552104 8.33028 0.361339 8.47093 0.220686C8.61158 0.0800342 8.80235 0.00101653 9.00126 0.00101653C9.20017 0.00101653 9.39094 0.0800342 9.53159 0.220686C9.67224 0.361339 9.75126 0.552104 9.75126 0.751017V1.50102ZM9.00126 9.00102H7.50126V7.50102H9.00126V9.00102ZM6.75126 9.00102H5.25126V7.50102H6.75126V9.00102ZM9.00126 6.75102H7.50126V5.25102H9.00126V6.75102ZM6.75126 6.75102H5.25126V5.25102H6.75126V6.75102ZM4.50126 9.00102H3.00126V7.50102H4.50126V9.00102Z" fill="#919192"/>
</svg>
