<svg width="13" height="12" viewBox="0 0 13 12" fill="none" xmlns="http://www.w3.org/2000/svg">
<path d="M3.28418 0H8.72168C10.531 0 12.0029 1.45078 12.0029 3.23411V7.24353C12.0029 8.66651 11.0551 9.90589 9.68152 10.3026L9.0968 11.8646C9.00879 11.9513 8.88965 12 8.76526 12C8.64099 12 8.52173 11.9513 8.43384 11.8646L5.9801 10.4317H3.28418C1.47485 10.4317 0.00292969 8.9809 0.00292969 7.19757V3.23411C0.00292969 1.45078 1.47485 0 3.28418 0ZM0.94043 7.19757C0.94043 8.47136 1.99182 9.50765 3.28418 9.50765H6.17419C6.29846 9.50765 6.41772 9.55637 6.50562 9.643L8.76526 10.8845L9.10681 9.56227C9.16699 9.50295 9.24243 9.46084 9.32507 9.44063C10.3497 9.18929 11.0654 8.28583 11.0654 7.24353V3.23411C11.0654 1.96032 10.014 0.92403 8.72168 0.92403H3.28418C1.99182 0.92403 0.94043 1.96032 0.94043 3.23411V7.19757Z" fill="#666666"/>
<path d="M8.59474 3.5625H3.41112C3.18566 3.5625 3.00293 3.78646 3.00293 4.0625C3.00293 4.33867 3.18566 4.5625 3.41112 4.5625H8.59474C8.8202 4.5625 9.00293 4.33867 9.00293 4.0625C9.00293 3.78646 8.8202 3.5625 8.59474 3.5625Z" fill="#666666"/>
<path d="M8.59474 6.15161H3.41112C3.18566 6.15161 3.00293 6.37544 3.00293 6.65161C3.00293 6.92778 3.18566 7.15161 3.41112 7.15161H8.59474C8.8202 7.15161 9.00293 6.92778 9.00293 6.65161C9.00293 6.37544 8.8202 6.15161 8.59474 6.15161Z" fill="#666666"/>
</svg>
