<svg width="493" height="34" viewBox="0 0 493 34" fill="none" xmlns="http://www.w3.org/2000/svg">
<path d="M57.7999 26.9154C57.6498 26.7648 57.4998 26.6142 57.2496 26.4635C57.1996 26.4635 57.0996 26.3631 56.9495 26.3129C56.7994 26.2124 56.6494 26.1622 56.5493 26.0618C56.4493 26.0116 56.3492 25.8609 56.1991 25.7103C56.0491 25.5596 55.949 25.3588 55.849 25.2081C55.7489 25.0073 55.6989 24.8064 55.5989 24.5051C55.4988 24.2038 55.4488 23.8523 55.4488 23.5008C55.2987 23.6514 55.1987 23.9527 55.1987 24.3545C55.1987 24.7562 55.2487 25.2081 55.4488 25.6601C55.6489 26.112 55.949 26.4133 56.3492 26.5137C56.7494 26.6644 57.0496 26.7648 57.2496 26.9154C57.4998 27.0661 57.6498 27.2167 57.6999 27.4176C57.7499 27.6185 57.6498 27.8193 57.3497 28.0202C57.0496 28.221 56.5993 28.4721 55.9991 28.673C55.1487 28.9743 54.4983 29.2254 54.1482 29.4262C53.798 29.6271 53.2478 30.0288 52.5474 30.6314C52.0972 31.0331 51.5469 31.234 51.0467 31.2842C50.4964 31.3344 50.0963 31.1335 49.7461 30.6816C49.3959 30.2799 49.2959 29.6773 49.446 28.8738C49.646 27.3674 49.646 26.2124 49.446 25.3588C49.2459 24.706 49.1958 24.1034 49.3459 23.6012C49.4459 23.0991 49.596 22.7978 49.8461 22.7476C50.0462 22.6471 50.2964 22.848 50.5965 23.2999C50.5965 23.3502 50.6965 23.5008 50.7466 23.6514C50.8466 23.8021 50.8966 23.9527 50.9467 24.003C50.9967 24.0532 51.0967 24.1536 51.1968 24.3042C51.2968 24.4047 51.4469 24.5051 51.597 24.5553C51.747 24.6055 51.9471 24.6558 52.1472 24.6558C52.5474 24.6558 52.8976 24.6055 53.2477 24.4047C53.5479 24.2038 53.798 24.003 53.9481 23.8021C54.0982 23.6012 54.2482 23.3502 54.4483 23.1493C54.5984 22.9484 54.7485 22.848 54.8485 22.7978C54.9986 22.7978 55.0986 22.6471 55.1987 22.3961C55.2987 22.145 55.3988 21.8437 55.3988 21.3918C55.4488 20.99 55.3988 20.4377 55.2987 19.8853C55.0986 18.8308 54.7485 17.726 54.2482 16.4706C53.698 15.2153 53.1477 14.2612 52.4974 13.5582C51.3468 12.3028 50.5465 10.9972 50.1463 9.64135C49.7461 8.23532 49.546 6.92972 49.596 5.82499C49.646 5.02154 49.496 4.11766 49.0958 3.16357C48.5955 2.20948 48.0453 1.50646 47.345 1.00431C46.8947 0.703015 46.3945 0.451939 45.7442 0.251077C45.1439 0.0502154 44.5436 0 43.8933 0C43.143 0 42.4927 0.100431 42.0424 0.401723C41.092 0.903877 40.4917 1.55668 40.1415 2.25969C39.8414 3.01292 39.6913 3.9168 39.6913 4.97132C39.7414 7.33145 39.8414 9.18942 39.9915 10.5452C39.8414 11.1478 39.091 12.353 37.7904 14.0603C37.5403 14.3114 37.3402 14.6127 37.0901 15.0144C36.89 15.4161 36.6899 15.7676 36.5398 16.1191C36.3898 16.4204 36.2397 16.9226 36.0396 17.5252C35.8395 18.1278 35.6394 18.5797 35.5894 18.8308C35.4893 19.0316 35.3893 19.2827 35.1892 19.584C34.9891 19.8853 34.8891 20.1364 34.739 20.4377C34.6389 20.6887 34.5889 21.0402 34.5389 21.3918C34.5389 21.6428 34.5389 21.8939 34.5889 22.0948C34.6389 22.3961 34.739 22.4965 34.839 22.3458C35.3893 21.9441 36.0396 22.1952 36.84 23.0489C37.3902 23.6514 38.3907 25.1077 39.8414 27.3674C39.9415 27.5682 40.0915 27.7691 40.1916 28.0202C40.2916 28.2713 40.4417 28.5726 40.5417 28.9743C40.6418 29.376 40.6918 29.7275 40.6918 30.0288C40.6918 30.3301 40.5417 30.6314 40.2916 30.8825C40.0415 31.1335 39.6413 31.3344 39.1411 31.3846C38.891 31.4348 38.5408 31.3846 38.1406 31.3344C37.7404 31.234 37.2902 31.1335 36.6899 30.9327C36.0896 30.7318 35.6394 30.6314 35.3893 30.531C34.9891 30.4305 34.3888 30.3301 33.6385 30.1794C32.8881 30.0288 32.3879 29.9284 32.1378 29.8279C31.7376 29.7275 31.5375 29.5769 31.4874 29.376C31.4874 29.1249 31.5375 28.8236 31.7876 28.4219C31.9877 28.0202 32.0877 27.7189 32.0877 27.5682C32.0877 27.4176 32.0877 27.3172 32.0877 27.1665C32.0877 27.0159 32.0377 26.9154 31.9877 26.8652C31.9377 26.815 31.8876 26.6644 31.8376 26.5639C31.7876 26.4133 31.7376 26.3129 31.6875 26.2626C31.4874 25.7605 31.4374 25.409 31.5875 25.2583C31.6875 25.1077 31.9377 25.0575 32.3379 25.0575C32.9381 25.1077 33.4384 25.0073 33.7885 24.8064C34.4388 24.4047 34.5889 23.8021 34.3388 22.8982C34.3388 23.2999 34.2888 23.6012 34.1387 23.8021C33.9886 24.003 33.7385 24.2038 33.3883 24.4549C33.1883 24.5553 32.8381 24.6558 32.3379 24.6558C31.8376 24.6558 31.4874 24.7562 31.3374 24.9068C31.2373 25.0073 31.1373 25.1579 31.1373 25.409C31.1373 25.6098 31.1373 25.8609 31.2373 26.0618C31.2874 26.2626 31.3374 26.5137 31.4374 26.815C31.4874 27.0159 31.4874 27.267 31.4874 27.4176C31.4874 27.5682 31.3874 27.8695 31.1873 28.3717C30.9872 28.8738 30.9372 29.2756 31.0873 29.5769C31.1373 29.7275 31.2373 29.8279 31.3874 29.9284C31.4874 30.079 31.6875 30.1292 31.9377 30.2297C32.1878 30.2799 32.4379 30.3803 32.638 30.3803C32.8381 30.4305 33.1382 30.4807 33.5384 30.531C33.9386 30.5812 34.2388 30.6314 34.4388 30.6816C35.1892 30.8322 36.0396 31.0833 37.0401 31.4348C37.9905 31.7863 38.6909 31.9872 38.991 31.9872C39.3412 31.9872 39.6413 31.937 39.9415 31.7863C40.2416 31.6357 40.4917 31.4851 40.6918 31.2842C40.8919 31.0833 41.2421 30.9327 41.6423 30.7318C42.0424 30.5812 42.5427 30.4807 43.0429 30.4807C43.293 30.4807 43.6432 30.4305 44.0934 30.4305C44.5436 30.4305 44.8938 30.3803 45.0939 30.3803C46.0944 30.3803 46.8947 30.3803 47.395 30.3803C47.7451 30.3803 48.0453 30.4305 48.2454 30.531C48.4455 30.6314 48.5955 30.7318 48.6456 30.8825C48.6956 31.0331 48.7956 31.1838 48.9457 31.3344C49.0958 31.4851 49.2459 31.6357 49.446 31.7361C49.8962 31.937 50.4464 32.0374 51.0467 31.9872C51.647 31.937 52.0472 31.8366 52.2473 31.6357C52.5974 31.3344 53.0477 30.9327 53.5979 30.4807C54.1482 30.0288 54.6484 29.7275 55.0986 29.4764C55.1987 29.4262 55.3487 29.3258 55.5989 29.2254C55.799 29.1249 55.9991 29.0245 56.1491 28.9241C56.2992 28.8236 56.4993 28.7232 56.6994 28.6228C56.8995 28.5223 57.0996 28.3717 57.2496 28.2713C57.3997 28.1708 57.4998 28.0704 57.6498 27.9198C57.7999 27.7691 57.9 27.6687 57.95 27.518C58 27.6185 58 27.4678 58 27.3172C58 27.2167 57.9 27.0661 57.7999 26.9154ZM48.2454 9.59114C48.2954 9.59114 48.2954 9.54092 48.2954 9.54092L48.3454 9.59114C48.3955 9.64135 48.3955 9.69157 48.4455 9.69157C48.4955 9.74179 48.4955 9.792 48.5455 9.84222C48.5955 9.89243 48.6456 9.94265 48.6956 9.99286C48.7456 10.0431 48.8457 10.0933 48.9457 10.0933C49.0458 10.0933 49.1458 10.1435 49.1958 10.1937C49.2459 10.2439 49.2959 10.2942 49.2959 10.3946C49.2959 10.5452 49.2959 10.6457 49.2459 10.7461C49.1958 10.8465 49.0958 10.8967 48.9957 10.8967C48.7956 10.8465 48.5455 10.6457 48.2954 10.3444C48.1453 10.0431 48.0953 9.792 48.2454 9.59114ZM46.0443 2.6112C46.0944 2.51077 46.1444 2.46055 46.1444 2.41034C46.1444 2.36012 46.1944 2.25969 46.1444 2.20948C46.0944 2.15926 46.1444 2.05883 46.1444 1.9584C46.1944 1.85797 46.2444 1.85797 46.3445 1.80775C46.4445 1.80775 46.5946 1.90818 46.7947 2.05883C46.8447 2.05883 46.8947 2.10905 46.9448 2.15926C47.0448 2.20948 47.0948 2.25969 47.0948 2.25969C47.1449 2.30991 47.1449 2.30991 47.1449 2.36012C47.1449 2.41034 47.0448 2.46055 46.9948 2.51077C46.8947 2.51077 46.8447 2.56098 46.7447 2.56098C46.6446 2.56098 46.5946 2.56098 46.5946 2.56098C46.4946 2.6112 46.3945 2.66142 46.3445 2.71163C46.2444 2.76185 46.1944 2.86228 46.1444 2.86228C46.0944 2.91249 46.0443 2.91249 45.9943 2.86228C45.9443 2.81206 45.9443 2.76185 45.9443 2.71163C45.9943 2.76185 45.9943 2.71163 46.0443 2.6112ZM37.4903 16.0187C37.5903 15.9183 37.6404 15.8681 37.6904 15.7676C37.7404 15.7174 37.7404 15.617 37.7904 15.5166C37.8405 15.4161 37.8405 15.3157 37.8905 15.3157C37.8905 15.2655 37.9405 15.2655 37.9905 15.2655C37.9905 15.2655 38.0406 15.2655 38.0406 15.3157C38.0406 15.3659 38.0406 15.3659 38.0406 15.3659V15.4663C38.0406 15.5166 38.0406 15.5166 37.9905 15.5668C37.9905 15.5668 37.9905 15.617 37.9405 15.6672C37.9405 15.7174 37.9405 15.7676 37.8905 15.7676C37.8405 15.8681 37.7904 16.0187 37.6904 16.0689C37.5903 16.1694 37.5403 16.2196 37.4903 16.1694C37.3902 16.2196 37.3902 16.1694 37.4903 16.0187ZM48.9457 25.7605C49.0458 26.3631 49.0958 26.815 49.0458 27.0661C49.0458 27.4678 48.9457 27.97 48.7956 28.673C48.6456 29.376 48.5955 29.8279 48.5455 30.0288C48.2954 30.0288 48.1453 29.9284 48.0953 29.7275C48.0453 29.5769 48.0953 29.3258 48.1954 29.0747C48.4455 28.2713 48.5955 27.7189 48.5955 27.4176C48.5955 26.8652 48.5455 26.5639 48.3955 26.4635C48.2454 26.3631 48.0453 26.5639 47.7952 27.0159C47.2949 27.8695 46.2444 28.3717 44.6437 28.5726C43.243 28.7734 42.2425 28.5726 41.6923 27.9198C41.5922 27.8193 41.4422 27.8193 41.3421 27.8695C41.2421 27.9198 41.142 27.97 41.092 28.0202C41.092 28.0202 41.092 28.0704 41.142 28.1206C41.192 28.1708 41.2421 28.221 41.2921 28.3215C41.3921 28.4219 41.4422 28.5223 41.4922 28.6228C41.9424 29.4262 41.8924 29.9786 41.3921 30.2799C41.3921 29.7275 41.3421 29.3258 41.2921 29.0245C41.192 28.7232 41.042 28.4219 40.7919 28.0704C40.5417 27.7189 40.3917 27.4678 40.2916 27.267C40.6418 27.2167 40.8919 27.1163 41.092 26.8652C41.2921 26.6142 41.3421 26.3631 41.3421 26.112C41.3421 25.8609 41.2421 25.6098 41.042 25.409C40.9419 25.3086 40.3917 24.8566 39.3912 24.0532C38.3907 23.2497 37.7904 22.6974 37.5403 22.4463C37.4903 22.3961 37.3402 22.2956 37.0901 22.0948C36.84 21.8939 36.6899 21.7433 36.6399 21.5926C36.0896 20.3874 36.0396 19.3831 36.4398 18.6299L36.4898 18.5295C36.5398 18.5295 36.5398 18.6299 36.4898 18.8308C36.4398 19.1823 36.3898 19.4836 36.4398 19.8351C36.4898 20.5883 36.6899 21.1407 37.0901 21.5424C37.3402 21.7935 37.4903 21.7935 37.5903 21.4922C37.6404 21.3918 37.6904 21.0402 37.6904 20.4377C37.6904 19.8351 37.6904 19.4334 37.7404 19.1823C37.8405 18.4793 38.1406 17.6758 38.5908 16.6715C39.041 15.6672 39.4412 15.1148 39.6913 15.0646C39.4912 14.7131 39.3912 14.3616 39.4912 13.9097C39.5913 13.5079 39.6913 13.1564 39.8414 12.8551C39.9915 12.5538 40.1916 12.2526 40.3416 11.8508C40.5417 11.4491 40.5918 11.1478 40.5918 10.8465C40.5918 10.7461 40.5918 10.6959 40.5918 10.6457C40.6418 10.5452 40.7919 10.6457 41.042 11.0474C41.5422 11.8006 41.8924 12.2023 42.1425 12.353C42.3926 12.5036 42.6928 12.5036 42.9929 12.353C43.293 12.2023 43.6932 11.9513 44.1935 11.5998C44.6437 11.2482 45.0439 10.9972 45.394 10.7963C45.4441 10.7963 45.4941 10.7461 45.5441 10.6959C45.6442 10.6457 45.6942 10.6457 45.7442 10.5954C45.7942 10.5954 45.8442 10.5452 45.8943 10.495C45.9443 10.4448 45.9943 10.4448 46.0443 10.3946C46.0944 10.3946 46.0944 10.3444 46.1444 10.2942C46.1944 10.2439 46.1944 10.2439 46.1944 10.1937C46.1944 10.1435 46.1944 10.1435 46.1944 10.0933C46.1944 9.99286 46.1444 9.94265 46.0443 9.89243C45.9443 9.89243 45.8442 9.89243 45.7442 9.94265C45.5941 9.99286 45.4441 10.0933 45.294 10.1435C45.1439 10.2439 44.9438 10.3444 44.7437 10.4448C44.5436 10.5452 44.3435 10.6457 44.1434 10.7461C43.9433 10.8465 43.7433 10.947 43.4931 10.9972C43.293 11.0474 43.0429 11.0976 42.8428 11.1478C42.3426 11.1478 41.9424 11.0474 41.6423 10.7461C41.4422 10.5452 41.3421 10.4448 41.3421 10.3946C41.3421 10.3444 41.3921 10.3444 41.4922 10.3444C42.1425 10.4448 42.5927 10.4448 42.8928 10.3946C43.193 10.3444 43.5932 10.1937 44.1434 9.99286C44.2435 9.94265 44.5436 9.84222 44.9438 9.64135C45.394 9.44049 45.6942 9.34006 45.9443 9.23963C46.0944 9.18942 46.1944 9.1392 46.2444 9.08899C46.2945 8.98855 46.2945 8.93834 46.2945 8.88812C46.2945 8.83791 46.2444 8.78769 46.1944 8.73748C46.0443 8.68726 45.9443 8.73748 45.8442 8.88812C45.7942 8.98855 45.6441 9.08899 45.4941 9.18942C45.294 9.28985 45.1439 9.39028 44.9938 9.44049C44.8438 9.49071 44.6437 9.54092 44.3936 9.64135C44.1434 9.69157 43.9934 9.74179 43.9934 9.792C43.3431 9.99286 42.7428 10.0933 42.1925 10.0431C41.9424 10.0431 41.7423 9.99286 41.5422 9.94265C41.3921 9.89243 41.2921 9.792 41.192 9.69157C41.142 9.59114 41.042 9.49071 40.8919 9.34006C40.7418 9.18942 40.5918 9.08899 40.4417 8.98855C40.3416 8.93834 40.2916 8.83791 40.2916 8.68726C40.3416 8.53662 40.3917 8.38597 40.5417 8.18511C40.5417 8.18511 40.6918 8.08468 40.8919 7.98425C41.142 7.8336 41.2921 7.68295 41.3921 7.58252C41.4922 7.43188 41.6923 7.23102 41.9424 7.08037C41.9424 7.03015 41.9424 6.87951 41.9924 6.67865C41.9924 6.47779 41.9424 6.22671 41.8424 5.97563C41.7423 5.72455 41.5422 5.62412 41.3421 5.62412C41.042 5.62412 40.8419 5.67434 40.7418 5.8752C40.6418 6.07606 40.5918 6.27692 40.5918 6.528C40.5918 6.77908 40.6418 6.97994 40.7418 7.13059C40.8419 7.28123 40.9419 7.38166 41.042 7.38166C41.192 7.38166 41.192 7.43188 41.142 7.53231C41.092 7.68295 40.9919 7.73317 40.8419 7.78339C40.7418 7.78339 40.6918 7.73317 40.5417 7.53231C40.4417 7.33145 40.3416 7.13059 40.2916 6.87951C40.2416 6.62843 40.2416 6.37735 40.2416 6.22671C40.2416 5.8752 40.3416 5.52369 40.5417 5.17218C40.6918 4.82068 40.9419 4.67003 41.2921 4.67003C41.6423 4.67003 41.8924 4.87089 42.0925 5.27262C42.2926 5.67434 42.3926 6.22671 42.3926 6.87951C42.4426 6.97994 42.5427 6.97994 42.6928 6.97994C42.8428 6.97994 43.0429 6.92972 43.293 6.97994C43.5432 6.97994 43.6932 7.08037 43.7933 7.1808C43.7933 7.1808 43.7933 7.08037 43.7933 6.92972C43.5932 5.42326 44.0934 4.61982 45.394 4.51938C45.5941 4.5696 45.7442 4.61982 45.8943 4.67003C46.0443 4.72025 46.1444 4.82068 46.2945 4.92111C46.4445 5.02154 46.5446 5.2224 46.6446 5.47348C46.7447 5.72455 46.8447 6.02585 46.8947 6.37735V7.03015C46.8947 7.43188 46.7947 7.63274 46.6446 7.68295C46.3945 7.78339 46.1944 7.78339 46.0944 7.68295C45.9943 7.58252 45.9943 7.43188 46.1444 7.23102C46.2444 6.92972 46.2444 6.57822 46.0944 6.17649C45.9443 5.77477 45.6442 5.62412 45.1939 5.62412C44.8938 5.62412 44.6937 5.77477 44.5436 6.12628C44.3936 6.42757 44.3435 6.72886 44.3936 7.03015C44.4436 7.33145 44.4936 7.48209 44.5937 7.48209C44.6437 7.48209 44.8938 7.58252 45.244 7.78339C45.5941 7.98425 45.8442 8.08468 46.0443 8.08468C46.4946 8.18511 46.7447 8.33575 46.8447 8.53662C46.8947 8.73748 46.8947 9.03877 46.7447 9.44049C46.6446 9.84222 46.5946 10.1435 46.6446 10.3946C46.6946 10.6457 46.7947 10.8967 46.8947 11.0976C47.0448 11.2985 47.1449 11.4993 47.2949 11.7002C47.445 11.901 47.5951 12.2023 47.7952 12.7045C47.9953 13.2066 48.1954 13.8092 48.3454 14.5625C48.3454 14.5625 48.3955 14.6127 48.4955 14.7131C48.5955 14.7633 48.6456 14.8638 48.7456 14.9642C48.8457 15.0646 48.8957 15.2153 49.0458 15.4161C49.1458 15.617 49.2459 15.8681 49.3959 16.2196C49.496 16.5711 49.646 16.9728 49.7461 17.475C49.8962 18.0273 49.9462 18.6801 49.9462 19.3831C49.9462 20.1364 49.9962 20.5883 50.0963 20.8896C50.1963 21.1407 50.3964 21.2913 50.7966 21.2411C51.2468 21.2411 51.5469 20.99 51.697 20.4879C52.0972 19.0818 51.747 17.4247 50.7466 15.5166C50.3464 14.7633 49.9962 14.2612 49.7461 14.0101C50.1463 14.2612 50.5965 14.7131 51.0467 15.3659C51.4969 16.0187 51.747 16.6213 51.8971 17.2239C51.8971 17.2741 51.9471 17.4247 51.9972 17.6758C52.0472 17.9269 52.0972 18.0775 52.0972 18.1278C52.0972 18.178 52.1472 18.2784 52.1472 18.4793C52.1973 18.6801 52.1973 18.8308 52.1973 18.881C52.1973 18.9312 52.1973 19.0818 52.1973 19.2325C52.1973 19.3831 52.1973 19.5338 52.1973 19.6342C52.1973 19.7346 52.1472 19.8351 52.1472 20.0359C52.1472 20.1866 52.0972 20.3372 52.0472 20.4879C51.9972 20.6385 51.9471 20.7892 51.8971 20.99C52.5474 21.2913 52.8976 21.5424 52.8976 21.7433C52.6475 21.5424 52.2973 21.3918 51.8471 21.3415C51.3969 21.2913 50.9467 21.3415 50.5465 21.5424C50.1463 21.7433 49.9462 22.0446 49.9462 22.4965C49.496 22.4965 49.1958 22.5969 49.0458 22.7978C48.7956 23.0991 48.6456 23.551 48.6456 24.0532C48.8457 24.5553 48.8457 25.1579 48.9457 25.7605ZM41.6423 6.32714C41.5922 6.32714 41.5922 6.27692 41.5422 6.22671C41.5422 6.12628 41.5922 6.07606 41.6923 6.12628C41.7423 6.12628 41.8424 6.22671 41.8924 6.37735C41.9924 6.528 41.9924 6.67865 41.9924 6.87951C41.9924 6.92972 41.9924 6.92972 41.9424 6.92972C41.7923 6.92972 41.7423 6.82929 41.7923 6.57822C41.7923 6.42757 41.7423 6.32714 41.6423 6.32714ZM46.2444 6.57822L46.1944 6.62843C46.0944 6.67865 46.0443 6.67865 46.0443 6.67865C45.9943 6.37735 45.8943 6.17649 45.7442 6.12628L45.6942 6.07606C45.5941 6.02585 45.6442 5.97563 45.7942 5.92542C45.8442 5.92542 45.8943 5.92542 45.9443 5.97563C45.9943 6.02585 46.0944 6.07606 46.1444 6.17649C46.1944 6.32714 46.2444 6.47779 46.2444 6.57822Z" fill="black"/>
<path d="M42.0936 7.63262C42.0936 7.68283 42.1436 7.73305 42.1936 7.73305C42.2436 7.73305 42.2937 7.68283 42.3437 7.5824C42.3937 7.48197 42.4938 7.38154 42.5938 7.38154H42.3937C42.2436 7.38154 42.0936 7.48197 42.0936 7.63262Z" fill="black"/>
<path d="M43.6442 7.432C43.7443 7.38179 43.8443 7.432 43.9444 7.53243C44.0444 7.63287 44.0945 7.68308 44.1445 7.63287C44.1945 7.58265 44.2445 7.53243 44.1945 7.48222C44.1445 7.28136 43.9444 7.28136 43.6442 7.432Z" fill="black"/>
<path d="M88.1019 11.8828C86.6051 10.0456 84.5095 8.9532 82.5137 8.9532C79.8693 8.9532 78.7716 10.1946 76.9754 10.1946C75.0794 10.1946 73.6823 8.9532 71.3872 8.9532C69.1419 8.9532 66.7969 10.2939 65.3 12.578C63.2044 15.8056 63.5537 21.8635 66.9964 27.0276C68.2438 28.8648 69.8404 30.9503 71.9859 31C73.8819 31 74.4307 29.8083 77.0253 29.7586C79.6198 29.7586 80.0688 31 82.0147 30.9503C84.1602 30.9503 85.8566 28.6166 87.104 26.7793C88.0021 25.4386 88.3015 24.7931 89 23.3035C84.0105 21.4662 83.2122 14.5146 88.1019 11.8828Z" fill="black"/>
<path d="M80.5178 6.66757C81.4658 5.47585 82.2142 3.73792 81.9647 2C80.418 2.09931 78.5719 3.09241 77.5241 4.38344C76.5761 5.5255 75.7778 7.26342 76.0771 8.95169C77.7735 9.00135 79.5199 7.95859 80.5178 6.66757Z" fill="black"/>
<path d="M10 6.5L0 7.56481V16.0093H10V6.5Z" fill="#EF5634"/>
<path d="M10 17H0V25.4445L10 26.5093V17Z" fill="#25A7EC"/>
<path d="M11 26.6158L24 28V17H11V26.6158Z" fill="#FDBA37"/>
<path d="M11 6.38426L24 5V16H11V6.38426Z" fill="#90C300"/>
<path d="M224 4V32L238 18L224 4Z" fill="url(#paint0_linear)"/>
<path d="M248.485 17.0452L243.2 14L239 18L243.2 22L248.485 18.7484C248.794 18.5935 249 18.2323 249 17.871C249 17.5097 248.794 17.2 248.485 17.0452Z" fill="url(#paint1_linear)"/>
<path d="M225 32L242.6 22.45L238.5 18.5L225 32Z" fill="url(#paint2_linear)"/>
<path d="M242.6 13.55L237.05 10.3L225 4L238.5 17.5L242.6 13.55Z" fill="url(#paint3_linear)"/>
<path d="M263.45 11.7475C264.45 11.7475 265.2 11.4386 265.85 10.7695C266.4 10.2033 266.65 9.48275 266.65 8.55628C266.65 8.40186 266.65 8.24745 266.6 8.04157H263.45V8.8651H265.8C265.75 9.43128 265.55 9.89451 265.25 10.2033C264.75 10.718 264.15 10.9239 263.45 10.9239C262.75 10.9239 262.2 10.6666 261.7 10.2033C261.2 9.68863 260.95 9.07098 260.95 8.29892C260.95 7.52686 261.2 6.85775 261.7 6.39451C262.2 5.87981 262.8 5.67392 263.45 5.67392C264.2 5.67392 264.8 5.93128 265.2 6.44598L265.75 5.87981C265.5 5.57098 265.15 5.31363 264.75 5.15922C264.35 4.95334 263.9 4.90186 263.4 4.90186C262.45 4.90186 261.65 5.21069 261 5.87981C260.35 6.54892 260 7.37245 260 8.35039C260 9.32833 260.35 10.1519 261 10.821C261.7 11.3872 262.5 11.7475 263.45 11.7475Z" fill="#444444"/>
<path d="M271.6 10.7695H268.65V8.65916H271.3V7.83563H268.65V5.72534H271.6V4.95328H267.8V11.593H271.6V10.7695Z" fill="#444444"/>
<path d="M275.1 11.593V5.72534H276.9V4.95328H272.45V5.72534H274.25V11.593H275.1Z" fill="#444444"/>
<path d="M280.95 4.95328H280.1V11.593H280.95V4.95328Z" fill="#444444"/>
<path d="M286.45 4.95328H282V5.72534H283.8V11.593H284.65V5.72534H286.45V4.95328Z" fill="#444444"/>
<path d="M292.5 11.7476C293.45 11.7476 294.25 11.3873 294.85 10.7181C295.5 10.049 295.8 9.2255 295.8 8.24756C295.8 7.26962 295.5 6.44609 294.85 5.77697C294.2 5.10785 293.4 4.74756 292.5 4.74756C291.55 4.74756 290.75 5.10785 290.15 5.77697C289.5 6.44609 289.2 7.26962 289.2 8.24756C289.2 9.2255 289.5 10.049 290.15 10.7181C290.75 11.3873 291.55 11.7476 292.5 11.7476ZM290.75 6.34315C291.25 5.82844 291.8 5.57109 292.5 5.57109C293.2 5.57109 293.8 5.82844 294.25 6.34315C294.75 6.85785 294.95 7.4755 294.95 8.24756C294.95 9.01962 294.7 9.63726 294.25 10.152C293.75 10.6667 293.2 10.924 292.5 10.924C291.8 10.924 291.2 10.6667 290.75 10.152C290.25 9.63726 290.05 9.01962 290.05 8.24756C290.05 7.4755 290.25 6.85785 290.75 6.34315Z" fill="#444444"/>
<path d="M297.8 6.1371L301.1 11.593H302V4.95328H301.15V8.81357L301.2 10.1003H301.15L298 4.95328H297V11.593H297.8V6.1371Z" fill="#444444"/>
<path d="M316.507 23.0535C316.105 21.9633 314.949 20.0425 312.535 20.0425C310.173 20.0425 308.162 21.9633 308.162 24.8185C308.162 27.4661 310.122 29.5945 312.737 29.5945C314.848 29.5945 316.055 28.2447 316.557 27.4661L314.999 26.3759C314.496 27.1546 313.742 27.6737 312.737 27.6737C311.681 27.6737 310.977 27.2065 310.525 26.2201L316.708 23.5726L316.507 23.0535ZM310.173 24.6628C310.122 22.8458 311.53 21.8595 312.586 21.8595C313.39 21.8595 314.094 22.2748 314.295 22.8458L310.173 24.6628Z" fill="#444444"/>
<path d="M349.788 20.3021L347.425 26.3759H347.375L344.962 20.3021H342.8L346.42 28.8158L344.358 33.4879H346.47L352 20.3021H349.788Z" fill="#444444"/>
<path d="M301.878 21.0809H301.827C301.375 20.5098 300.52 19.9907 299.414 19.9907C297.102 19.9907 294.99 22.0672 294.99 24.7667C294.99 27.4142 297.102 29.4907 299.414 29.4907C300.52 29.4907 301.375 28.9716 301.827 28.4006H301.878V29.0754C301.878 30.8924 300.922 31.8787 299.414 31.8787C298.157 31.8787 297.403 30.9443 297.102 30.1656L295.342 30.9443C295.845 32.1902 297.202 33.7476 299.414 33.7476C301.777 33.7476 303.788 32.294 303.788 28.7639V20.3022H301.878V21.0809ZM299.515 27.6738C298.107 27.6738 296.951 26.4798 296.951 24.8186C296.951 23.1574 298.107 21.9115 299.515 21.9115C300.872 21.9115 301.978 23.1574 301.978 24.8186C301.978 26.4798 300.922 27.6738 299.515 27.6738Z" fill="#444444"/>
<path d="M307.207 15.2667H305.196V29.2831H307.207V15.2667Z" fill="#444444"/>
<path d="M333.55 15.2667H331.539V29.2831H333.55V15.2667Z" fill="#444444"/>
<path d="M325.958 15.2667H321.132V29.2831H323.143V23.988H325.958C328.221 23.988 330.383 22.3268 330.383 19.6273C330.383 16.9279 328.221 15.2667 325.958 15.2667ZM326.009 22.0153H323.143V17.2394H326.009C327.517 17.2394 328.372 18.5372 328.372 19.6273C328.422 20.7175 327.567 22.0153 326.009 22.0153Z" fill="#444444"/>
<path d="M338.527 19.9907C337.069 19.9907 335.561 20.6656 334.907 22.1191L336.717 22.8978C337.119 22.1191 337.823 21.8596 338.577 21.8596C339.633 21.8596 340.688 22.4825 340.688 23.6765V23.8322C340.337 23.6246 339.532 23.3131 338.577 23.3131C336.616 23.3131 334.656 24.4033 334.656 26.4798C334.656 28.3486 336.264 29.5426 338.024 29.5426C339.381 29.5426 340.136 28.9197 340.588 28.1929H340.638V29.2831H342.599V23.8842C342.649 21.3923 340.839 19.9907 338.527 19.9907ZM338.275 27.6738C337.622 27.6738 336.667 27.3104 336.667 26.4798C336.667 25.3896 337.823 24.9743 338.828 24.9743C339.733 24.9743 340.135 25.182 340.688 25.4415C340.538 26.7394 339.482 27.6738 338.275 27.6738Z" fill="#444444"/>
<path d="M267.34 23.5208H272.015C271.864 24.6629 271.513 25.4935 270.96 26.0645C270.256 26.7913 269.2 27.5181 267.34 27.5181C264.474 27.5181 262.212 25.1301 262.212 22.1192C262.212 19.1601 264.474 16.7202 267.34 16.7202C268.898 16.7202 270.055 17.3432 270.859 18.1738L272.216 16.7722C271.06 15.6301 269.502 14.7476 267.29 14.7476C263.318 14.7476 260 18.07 260 22.1192C260 26.2203 263.318 29.4908 267.29 29.4908C269.401 29.4908 271.01 28.764 272.267 27.4143C273.574 26.0645 273.976 24.1957 273.976 22.6902C273.976 22.223 273.926 21.8077 273.875 21.4443H267.34V23.5208Z" fill="#444444"/>
<path d="M279.355 20.0425C276.791 20.0425 274.73 22.0671 274.73 24.8185C274.73 27.5699 276.791 29.5945 279.355 29.5945C281.919 29.5945 283.98 27.5699 283.98 24.8185C283.98 22.0152 281.919 20.0425 279.355 20.0425ZM279.355 27.6737C277.948 27.6737 276.741 26.4797 276.741 24.7666C276.741 23.0535 277.948 21.8595 279.355 21.8595C280.763 21.8595 281.969 23.0535 281.969 24.7666C281.969 26.4797 280.763 27.6737 279.355 27.6737Z" fill="#444444"/>
<path d="M289.46 20.0425C286.896 20.0425 284.835 22.0671 284.835 24.8185C284.835 27.5699 286.896 29.5945 289.46 29.5945C292.024 29.5945 294.085 27.5699 294.085 24.8185C294.085 22.0152 292.024 20.0425 289.46 20.0425ZM289.46 27.6737C288.052 27.6737 286.846 26.4797 286.846 24.7666C286.846 23.0535 288.052 21.8595 289.46 21.8595C290.868 21.8595 292.074 23.0535 292.074 24.7666C292.074 26.4797 290.868 27.6737 289.46 27.6737Z" fill="#444444"/>
<path d="M138.194 6.28851C137.544 5.69791 136.496 5.37577 135.097 5.37577C134.298 5.37577 133.599 5.42946 133 5.53684V12.8388C133.499 12.8925 134.099 12.9462 134.798 12.9462C136.296 12.9462 137.445 12.5703 138.194 11.8723C138.893 11.1744 139.292 10.2079 139.292 8.97305C139.292 7.73816 138.893 6.87911 138.194 6.28851ZM134.948 12.0871C134.548 12.0871 134.199 12.0871 133.949 12.0334V6.23482C134.199 6.18113 134.598 6.12744 135.097 6.12744C137.195 6.12744 138.194 7.20125 138.194 8.97305C138.244 10.9596 137.095 12.1408 134.948 12.0871Z" fill="#444444"/>
<path d="M142.888 7.36242C141.39 7.36242 140.141 8.38255 140.141 10.208C140.141 11.8724 141.29 12.9463 142.788 12.9463C144.086 12.9463 145.535 12.0872 145.535 10.1006C145.535 8.48993 144.486 7.36242 142.888 7.36242ZM142.838 12.1946C141.839 12.1946 141.19 11.3355 141.19 10.1543C141.19 9.13422 141.689 8.11409 142.888 8.11409C144.086 8.11409 144.536 9.2416 144.536 10.1543C144.536 11.3355 143.787 12.1946 142.838 12.1946Z" fill="#444444"/>
<path d="M152.326 10.1543C152.126 10.7986 151.977 11.3355 151.927 11.8724H151.877C151.777 11.3355 151.577 10.7449 151.377 10.1543L150.528 7.46974H149.679L148.781 10.1543C148.581 10.7449 148.431 11.2818 148.281 11.8724H148.231C148.131 11.3355 147.982 10.7449 147.832 10.1543L147.083 7.46974H146.084L147.732 12.7851H148.631L149.53 10.2617C149.729 9.67106 149.879 9.13415 150.029 8.48986C150.179 9.13415 150.329 9.61737 150.528 10.2617L151.377 12.7851H152.276L154.024 7.46974H153.025L152.326 10.1543Z" fill="#444444"/>
<path d="M157.819 7.36242C156.92 7.36242 156.271 7.84564 156.022 8.32886L155.972 7.4698H155.073C155.123 7.89933 155.123 8.32885 155.123 8.91945V12.7852H156.121V9.56374C156.121 9.40267 156.121 9.2416 156.171 9.13422C156.371 8.59731 156.871 8.16778 157.52 8.16778C158.469 8.16778 158.768 8.86576 158.768 9.72481V12.7852H159.767V9.61743C159.767 7.79195 158.568 7.36242 157.819 7.36242Z" fill="#444444"/>
<path d="M162.364 5H161.365V12.7852H162.364V5Z" fill="#444444"/>
<path d="M166.359 7.36242C164.861 7.36242 163.612 8.38255 163.612 10.208C163.612 11.8724 164.761 12.9463 166.259 12.9463C167.557 12.9463 169.006 12.0872 169.006 10.1006C169.006 8.48993 167.957 7.36242 166.359 7.36242ZM166.309 12.1946C165.31 12.1946 164.661 11.3355 164.661 10.1543C164.661 9.13422 165.16 8.11409 166.359 8.11409C167.557 8.11409 168.007 9.2416 168.007 10.1543C167.957 11.3355 167.258 12.1946 166.309 12.1946Z" fill="#444444"/>
<path d="M174.149 9.56374C174.149 8.48993 173.75 7.36242 172.052 7.36242C171.353 7.36242 170.703 7.52349 170.254 7.84564L170.504 8.48993C170.903 8.22147 171.403 8.11409 171.952 8.11409C173.1 8.11409 173.2 8.91945 173.2 9.34898V9.45636C171.053 9.45636 169.904 10.1543 169.904 11.4429C169.904 12.1946 170.454 12.9463 171.602 12.9463C172.401 12.9463 173.001 12.5704 173.3 12.1409H173.35L173.45 12.7852H174.349C174.299 12.4093 174.249 11.9798 174.249 11.4966V9.56374H174.149ZM173.15 11.0134C173.15 11.1208 173.15 11.2282 173.1 11.3355C172.951 11.7651 172.501 12.2483 171.752 12.2483C171.253 12.2483 170.803 11.9798 170.803 11.3355C170.803 10.3154 172.052 10.1006 173.15 10.1543V11.0134Z" fill="#444444"/>
<path d="M180.491 5H179.493V8.16775C179.243 7.73823 178.694 7.36239 177.845 7.36239C176.496 7.36239 175.348 8.43621 175.398 10.208C175.398 11.8187 176.446 12.8925 177.745 12.8925C178.644 12.8925 179.293 12.463 179.592 11.8724L179.642 12.7852H180.541C180.491 12.4093 180.491 11.8724 180.491 11.3892V5ZM179.493 10.5838C179.493 10.7449 179.493 10.8523 179.443 11.0134C179.243 11.7113 178.644 12.1409 177.994 12.1409C176.946 12.1409 176.346 11.2281 176.346 10.1543C176.346 8.97311 176.946 8.11406 177.994 8.11406C178.744 8.11406 179.293 8.59728 179.443 9.24157C179.493 9.34895 179.493 9.51002 179.493 9.67109V10.5838Z" fill="#444444"/>
<path d="M186.883 7.36242C185.385 7.36242 184.137 8.38255 184.137 10.208C184.137 11.8724 185.285 12.9463 186.784 12.9463C188.082 12.9463 189.53 12.0872 189.53 10.1006C189.53 8.48993 188.482 7.36242 186.883 7.36242ZM186.834 12.1946C185.835 12.1946 185.186 11.3355 185.186 10.1543C185.186 9.13422 185.685 8.11409 186.883 8.11409C188.082 8.11409 188.531 9.2416 188.531 10.1543C188.482 11.3355 187.782 12.1946 186.834 12.1946Z" fill="#444444"/>
<path d="M193.525 7.36242C192.626 7.36242 191.977 7.84564 191.728 8.32886L191.678 7.4698H190.779C190.829 7.89933 190.829 8.32885 190.829 8.91945V12.7852H191.827V9.56374C191.827 9.40267 191.827 9.2416 191.877 9.13422C192.077 8.59731 192.576 8.16778 193.226 8.16778C194.175 8.16778 194.474 8.86576 194.474 9.72481V12.7852H195.473V9.61743C195.473 7.79195 194.274 7.36242 193.525 7.36242Z" fill="#444444"/>
<path d="M200.716 6.23497L199.718 6.55711V7.52355H198.869V8.27522H199.718V11.1745C199.718 11.8188 199.818 12.2483 200.117 12.5705C200.367 12.8389 200.716 13 201.216 13C201.615 13 201.915 12.9463 202.115 12.8926L202.065 12.1409C201.915 12.1946 201.765 12.1946 201.465 12.1946C200.916 12.1946 200.716 11.8188 200.716 11.1745V8.32891H202.165V7.46986H200.716V6.23497Z" fill="#444444"/>
<path d="M206.01 7.36239C205.61 7.36239 205.261 7.46977 205.011 7.63085C204.711 7.79192 204.462 8.06037 204.312 8.32882V5H203.313V12.7852H204.312V9.56371C204.312 9.40264 204.312 9.24157 204.362 9.08049C204.562 8.54359 205.061 8.11406 205.71 8.11406C206.659 8.11406 206.959 8.81204 206.959 9.67109V12.7315H207.957V9.56371C207.908 7.79192 206.759 7.36239 206.01 7.36239Z" fill="#444444"/>
<path d="M214 9.88589C214 8.91945 213.551 7.36242 211.753 7.36242C210.155 7.36242 209.156 8.651 209.156 10.2617C209.156 11.8724 210.155 12.9463 211.853 12.9463C212.702 12.9463 213.351 12.7852 213.7 12.6241L213.501 11.9261C213.151 12.0872 212.702 12.1946 212.002 12.1946C211.004 12.1946 210.155 11.6577 210.105 10.3691H213.95C214 10.208 214 10.047 214 9.88589ZM210.155 9.61743C210.255 8.97314 210.654 8.0604 211.703 8.0604C212.801 8.0604 213.101 9.02683 213.101 9.61743H210.155Z" fill="#444444"/>
<path d="M137.929 15.2L133 29.7501H135.24L136.734 25.3H141.513L143.007 29.7501H145.347L140.418 15.2H137.929ZM137.232 23.55L138.526 19.65C138.725 19 138.924 18.35 139.074 17.6C139.223 18.25 139.422 18.95 139.671 19.65L141.015 23.5H137.232V23.55Z" fill="#444444"/>
<path d="M151.719 19C150.226 19 149.031 19.6 148.234 20.7L148.135 19.25H146.143V19.45C146.193 20.35 146.243 21.35 146.243 22.75V34H148.433V28.75C149.13 29.55 150.226 30.05 151.42 30.05C152.715 30.05 153.86 29.55 154.756 28.65C155.702 27.65 156.2 26.15 156.2 24.4C156.2 22.85 155.752 21.5 154.905 20.55C154.109 19.55 152.964 19 151.719 19ZM151.072 28.2C149.827 28.2 148.782 27.35 148.483 26.15C148.433 25.95 148.384 25.7 148.384 25.45V23.7C148.384 23.55 148.433 23.35 148.433 23.15C148.433 23.1 148.433 23.05 148.483 22.95C148.832 21.7 149.877 20.8 151.122 20.8C153.063 20.8 153.959 22.6 153.959 24.4C154.009 26.75 152.914 28.2 151.072 28.2Z" fill="#444444"/>
<path d="M163.02 19C161.527 19 160.332 19.6 159.535 20.7L159.436 19.25H157.444V19.45C157.494 20.35 157.544 21.35 157.544 22.75V34H159.734V28.75C160.431 29.55 161.477 30.05 162.722 30.05C164.016 30.05 165.211 29.55 166.057 28.65C167.003 27.65 167.501 26.15 167.501 24.4C167.501 22.85 167.053 21.5 166.207 20.55C165.41 19.55 164.265 19 163.02 19ZM162.373 28.2C161.128 28.2 160.083 27.35 159.784 26.15C159.734 25.95 159.685 25.7 159.685 25.45V23.7C159.685 23.55 159.734 23.35 159.734 23.15C159.734 23.1 159.734 23.05 159.784 22.95C160.133 21.7 161.178 20.8 162.423 20.8C164.364 20.8 165.261 22.6 165.261 24.4C165.31 26.75 164.215 28.2 162.373 28.2Z" fill="#444444"/>
<path d="M177.159 21.4C175.118 20.6 174.471 20 174.471 18.8C174.471 17.85 175.218 16.85 176.96 16.85C178.404 16.85 179.3 17.35 179.549 17.5L179.748 17.6L180.345 15.75L180.246 15.7C179.897 15.5 178.852 15 177.06 15C174.272 15 172.33 16.65 172.33 19.05C172.33 20.95 173.575 22.3 176.164 23.25C178.006 23.95 178.703 24.65 178.703 25.9C178.703 27.3 177.657 28.15 175.915 28.15C174.77 28.15 173.624 27.8 172.728 27.25L172.529 27.15L171.932 29.05L172.031 29.1C172.878 29.65 174.421 30.05 175.715 30.05C179.499 30.05 180.843 27.75 180.843 25.75C180.893 23.7 179.798 22.45 177.159 21.4Z" fill="#444444"/>
<path d="M184.826 16.7L182.685 17.4V19.25H181.092V21H182.685V26.4001C182.685 27.7001 182.934 28.6001 183.432 29.2001C183.93 29.7501 184.677 30.0501 185.573 30.0501C186.419 30.0501 186.967 29.9001 187.266 29.8001L187.365 29.7501L187.266 28.0001L187.066 28.0501C186.768 28.1501 186.519 28.1501 186.021 28.1501C185.175 28.1501 184.826 27.6001 184.826 26.35V21H187.465V19.25H184.826V16.7Z" fill="#444444"/>
<path d="M192.941 19C189.854 19 187.714 21.3 187.714 24.6C187.714 27.8 189.805 30.05 192.742 30.05C195.231 30.05 197.969 28.3 197.969 24.45C197.969 22.9 197.471 21.55 196.575 20.55C195.679 19.5 194.385 19 192.941 19ZM192.792 28.3C191.099 28.3 189.904 26.7 189.904 24.55C189.904 22.65 190.8 20.75 192.841 20.75C194.833 20.75 195.729 22.7 195.729 24.5C195.729 26.7 194.484 28.3 192.792 28.3Z" fill="#444444"/>
<path d="M204.69 19.1L204.541 19.05C204.342 19 204.192 19 203.993 19C202.848 19 201.803 19.7 201.255 20.75L201.205 19.2H199.214V19.4C199.264 20.25 199.313 21.25 199.313 22.55V29.75H201.504V24.15C201.504 23.85 201.504 23.55 201.554 23.3C201.803 21.95 202.699 21.1 203.844 21.1C204.093 21.1 204.242 21.1 204.441 21.15H204.69V19.1Z" fill="#444444"/>
<path d="M209.619 19C206.682 19 204.64 21.35 204.64 24.7C204.64 27.95 206.682 30 209.818 30C211.461 30 212.606 29.65 213.303 29.35L213.452 29.3L213.054 27.65L212.855 27.7C212.258 27.95 211.461 28.2 210.117 28.2C209.171 28.2 206.98 27.9 206.831 25H213.9L213.95 24.85C214 24.65 214 24.3 214 23.95C214 21.65 212.855 19 209.619 19ZM206.881 23.3C207.08 22.05 207.876 20.65 209.519 20.65C210.167 20.65 210.714 20.85 211.112 21.25C211.76 21.9 211.859 22.85 211.859 23.3H206.881Z" fill="#444444"/>
<path d="M122.102 11.75C120.605 9.89998 118.509 8.79998 116.514 8.79998C113.869 8.79998 112.772 10.05 110.975 10.05C109.079 10.05 107.682 8.79998 105.387 8.79998C103.142 8.79998 100.797 10.15 99.3 12.45C97.2044 15.7 97.5537 21.8 100.996 27C102.244 28.85 103.84 30.95 105.986 31C107.882 31 108.431 29.8 111.025 29.75C113.62 29.75 114.069 31 116.015 30.95C118.16 30.95 119.857 28.6 121.104 26.75C122.002 25.4 122.301 24.75 123 23.25C118.011 21.4 117.212 14.4 122.102 11.75Z" fill="black"/>
<path d="M114.518 6.7C115.466 5.5 116.214 3.75 115.965 2C114.418 2.1 112.572 3.1 111.524 4.4C110.576 5.55 109.778 7.30001 110.077 9.00001C111.774 9.05001 113.52 8.00001 114.518 6.7Z" fill="black"/>
<path d="M404.881 7.85443H404.017V10.1405C403.94 10.1641 403.814 10.1892 403.639 10.2158C403.463 10.2424 403.251 10.2557 403.002 10.2557C402.651 10.2557 402.347 10.1966 402.089 10.0785C401.83 9.96034 401.614 9.79346 401.438 9.57785C401.263 9.36224 401.133 9.1038 401.047 8.80253C400.96 8.50127 400.917 8.16751 400.917 7.80127C400.917 7.42321 400.968 7.08207 401.069 6.77785C401.17 6.47363 401.311 6.21519 401.492 6.00253C401.673 5.78987 401.893 5.62743 402.151 5.51519C402.409 5.40295 402.696 5.34684 403.011 5.34684C403.307 5.34684 403.598 5.38375 403.883 5.45759C404.168 5.53144 404.397 5.62447 404.569 5.73671L404.845 5.01899C404.81 4.99536 404.743 4.95992 404.645 4.91266C404.547 4.8654 404.421 4.81814 404.266 4.77089C404.112 4.72363 403.927 4.68228 403.71 4.64684C403.493 4.61139 403.245 4.59367 402.966 4.59367C402.556 4.59367 402.172 4.66456 401.813 4.80633C401.453 4.9481 401.14 5.15485 400.873 5.42658C400.606 5.69831 400.393 6.03354 400.236 6.43228C400.079 6.83102 400 7.28734 400 7.80127C400 8.31519 400.07 8.77004 400.209 9.16582C400.349 9.56161 400.546 9.89536 400.802 10.1671C401.057 10.4388 401.363 10.6456 401.719 10.7873C402.075 10.9291 402.47 11 402.904 11C403.117 11 403.328 10.9897 403.536 10.969C403.744 10.9483 403.935 10.9232 404.111 10.8937C404.286 10.8641 404.44 10.8346 404.574 10.8051C404.707 10.7755 404.81 10.7489 404.881 10.7253V7.85443Z" fill="#444444"/>
<path fill-rule="evenodd" clip-rule="evenodd" d="M406.101 7.51329C405.983 7.81751 405.923 8.17342 405.923 8.58101C405.923 8.92954 405.969 9.25 406.061 9.54241C406.153 9.83481 406.294 10.0873 406.484 10.3C406.674 10.5127 406.916 10.6795 407.21 10.8006C407.504 10.9217 407.853 10.9823 408.257 10.9823C408.577 10.9823 408.864 10.9527 409.116 10.8937C409.369 10.8346 409.545 10.7785 409.646 10.7253L409.53 10.0342C409.43 10.0814 409.28 10.1302 409.081 10.1804C408.882 10.2306 408.637 10.2557 408.346 10.2557C407.829 10.2557 407.449 10.1316 407.206 9.88354C406.962 9.63544 406.823 9.27215 406.787 8.79367H409.958C409.964 8.74641 409.967 8.69473 409.967 8.63861V8.50127C409.967 7.7097 409.801 7.12047 409.468 6.73354C409.136 6.34662 408.658 6.15316 408.034 6.15316C407.767 6.15316 407.506 6.20338 407.25 6.3038C406.995 6.40422 406.769 6.55485 406.573 6.7557C406.377 6.95654 406.22 7.20907 406.101 7.51329ZM408.822 7.21203C409.015 7.45127 409.109 7.75696 409.103 8.12911H406.805C406.823 7.96962 406.86 7.81308 406.916 7.65949C406.973 7.50591 407.051 7.37004 407.152 7.2519C407.253 7.13375 407.376 7.03776 407.522 6.96392C407.667 6.89008 407.835 6.85316 408.025 6.85316C408.364 6.85316 408.629 6.97278 408.822 7.21203Z" fill="#444444"/>
<path d="M413.69 6.26835H411.935V4.84177L411.107 4.98354V9.09494C411.107 9.40211 411.132 9.67236 411.183 9.9057C411.233 10.139 411.321 10.3354 411.445 10.4949C411.57 10.6544 411.735 10.7741 411.94 10.8538C412.145 10.9335 412.404 10.9734 412.719 10.9734C412.986 10.9734 413.224 10.9424 413.432 10.8804C413.64 10.8184 413.785 10.7667 413.868 10.7253L413.708 10.043C413.649 10.0667 413.543 10.1065 413.392 10.1627C413.24 10.2188 413.04 10.2468 412.79 10.2468C412.648 10.2468 412.523 10.2291 412.416 10.1937C412.309 10.1582 412.22 10.0977 412.149 10.012C412.078 9.92637 412.024 9.80823 411.989 9.6576C411.953 9.50696 411.935 9.31646 411.935 9.08608V6.95949H413.69V6.26835Z" fill="#444444"/>
<path d="M416.799 10.8759H417.627V6.26835H416.799V10.8759Z" fill="#444444"/>
<path d="M416.83 5.28924C416.934 5.38671 417.06 5.43544 417.208 5.43544C417.357 5.43544 417.483 5.38671 417.587 5.28924C417.691 5.19177 417.743 5.06034 417.743 4.89494C417.743 4.72953 417.691 4.5981 417.587 4.50063C417.483 4.40316 417.357 4.35443 417.208 4.35443C417.06 4.35443 416.934 4.40316 416.83 4.50063C416.726 4.5981 416.674 4.72953 416.674 4.89494C416.674 5.06034 416.726 5.19177 416.83 5.28924Z" fill="#444444"/>
<path d="M421.582 6.26835H419.827V4.84177L418.999 4.98354V9.09494C418.999 9.40211 419.024 9.67236 419.074 9.9057C419.125 10.139 419.212 10.3354 419.337 10.4949C419.462 10.6544 419.627 10.7741 419.831 10.8538C420.036 10.9335 420.296 10.9734 420.611 10.9734C420.878 10.9734 421.116 10.9424 421.323 10.8804C421.531 10.8184 421.677 10.7667 421.76 10.7253L421.599 10.043C421.54 10.0667 421.435 10.1065 421.283 10.1627C421.132 10.2188 420.931 10.2468 420.682 10.2468C420.54 10.2468 420.415 10.2291 420.308 10.1937C420.201 10.1582 420.112 10.0977 420.041 10.012C419.97 9.92637 419.916 9.80823 419.88 9.6576C419.845 9.50696 419.827 9.31646 419.827 9.08608V6.95949H421.582V6.26835Z" fill="#444444"/>
<path d="M427.126 4.05316C426.951 4.01772 426.742 4 426.498 4C425.875 4 425.418 4.16097 425.127 4.48291C424.836 4.80485 424.69 5.26118 424.69 5.8519V10.8759H425.519V6.95949H427.3V6.26835H425.519V5.86962C425.519 5.51519 425.596 5.23312 425.75 5.02342C425.905 4.81371 426.175 4.70886 426.561 4.70886C426.751 4.70886 426.911 4.72511 427.042 4.7576C427.172 4.79008 427.273 4.82405 427.345 4.85949L427.496 4.15063C427.425 4.1211 427.301 4.08861 427.126 4.05316Z" fill="#444444"/>
<path d="M430.083 6.18418C429.991 6.17532 429.91 6.17089 429.838 6.17089C429.476 6.17089 429.15 6.2019 428.859 6.26392C428.568 6.32595 428.324 6.39241 428.128 6.46329V10.8759H428.957V7.0038C429.004 6.99198 429.104 6.96983 429.255 6.93734C429.406 6.90485 429.559 6.88861 429.714 6.88861C429.951 6.88861 430.146 6.90485 430.297 6.93734C430.449 6.96983 430.557 6.99789 430.622 7.02152L430.765 6.3038C430.729 6.29198 430.674 6.27869 430.6 6.26392C430.526 6.24916 430.444 6.23439 430.355 6.21962C430.266 6.20485 430.175 6.19304 430.083 6.18418Z" fill="#444444"/>
<path fill-rule="evenodd" clip-rule="evenodd" d="M435.045 10.3266C435.238 10.1139 435.388 9.85992 435.494 9.56456C435.601 9.2692 435.655 8.9384 435.655 8.57215C435.655 8.21181 435.601 7.88249 435.494 7.58418C435.388 7.28586 435.238 7.03038 435.045 6.81772C434.852 6.60506 434.622 6.44114 434.354 6.32595C434.087 6.21076 433.796 6.15316 433.481 6.15316C433.167 6.15316 432.876 6.21076 432.609 6.32595C432.341 6.44114 432.111 6.60506 431.918 6.81772C431.725 7.03038 431.575 7.28586 431.468 7.58418C431.362 7.88249 431.308 8.21181 431.308 8.57215C431.308 8.9384 431.362 9.2692 431.468 9.56456C431.575 9.85992 431.725 10.1139 431.918 10.3266C432.111 10.5392 432.341 10.7032 432.609 10.8184C432.876 10.9335 433.167 10.9911 433.481 10.9911C433.796 10.9911 434.087 10.9335 434.354 10.8184C434.622 10.7032 434.852 10.5392 435.045 10.3266ZM434.439 7.33608C434.673 7.6403 434.791 8.05232 434.791 8.57215C434.791 9.09199 434.673 9.50401 434.439 9.80823C434.204 10.1124 433.885 10.2646 433.481 10.2646C433.078 10.2646 432.758 10.1124 432.524 9.80823C432.289 9.50401 432.172 9.09199 432.172 8.57215C432.172 8.05232 432.289 7.6403 432.524 7.33608C432.758 7.03186 433.078 6.87975 433.481 6.87975C433.885 6.87975 434.204 7.03186 434.439 7.33608Z" fill="#444444"/>
<path d="M437.574 6.25063C437.262 6.3038 437.012 6.35401 436.822 6.40127V10.8759H437.65V6.98608C437.674 6.98017 437.721 6.97131 437.792 6.95949C437.864 6.94768 437.942 6.93734 438.028 6.92848C438.115 6.91962 438.205 6.91224 438.3 6.90633C438.395 6.90042 438.484 6.89747 438.567 6.89747C438.763 6.89747 438.925 6.92848 439.053 6.99051C439.18 7.05253 439.281 7.14852 439.356 7.27848C439.43 7.40844 439.482 7.57089 439.511 7.76582C439.541 7.96076 439.556 8.19409 439.556 8.46582V10.8759H440.384V8.28861C440.384 8.08776 440.372 7.89578 440.349 7.71266C440.325 7.52954 440.289 7.36118 440.242 7.20759C440.307 7.14852 440.43 7.08207 440.611 7.00823C440.793 6.93439 441.023 6.89747 441.302 6.89747C441.504 6.89747 441.668 6.92848 441.796 6.99051C441.924 7.05253 442.025 7.14852 442.099 7.27848C442.173 7.40844 442.224 7.57089 442.25 7.76582C442.277 7.96076 442.29 8.19409 442.29 8.46582V10.8759H443.119V8.28861C443.119 7.98143 443.097 7.69789 443.052 7.43797C443.007 7.17806 442.921 6.95359 442.794 6.76456C442.666 6.57553 442.489 6.42933 442.264 6.32595C442.038 6.22257 441.747 6.17089 441.391 6.17089C441.207 6.17089 441.035 6.19008 440.874 6.22848C440.714 6.26688 440.568 6.31118 440.438 6.36139C440.307 6.4116 440.197 6.46329 440.108 6.51646C440.019 6.56962 439.954 6.61097 439.912 6.64051C439.776 6.48692 439.606 6.37025 439.405 6.29051C439.203 6.21076 438.953 6.17089 438.656 6.17089C438.247 6.17089 437.886 6.19747 437.574 6.25063Z" fill="#444444"/>
<path d="M449.078 6.26835H447.323V4.84177L446.495 4.98354V9.09494C446.495 9.40211 446.52 9.67236 446.57 9.9057C446.621 10.139 446.708 10.3354 446.833 10.4949C446.958 10.6544 447.123 10.7741 447.327 10.8538C447.532 10.9335 447.792 10.9734 448.107 10.9734C448.374 10.9734 448.611 10.9424 448.819 10.8804C449.027 10.8184 449.173 10.7667 449.256 10.7253L449.095 10.043C449.036 10.0667 448.931 10.1065 448.779 10.1627C448.628 10.2188 448.427 10.2468 448.178 10.2468C448.035 10.2468 447.911 10.2291 447.804 10.1937C447.697 10.1582 447.608 10.0977 447.537 10.012C447.465 9.92637 447.412 9.80823 447.376 9.6576C447.341 9.50696 447.323 9.31646 447.323 9.08608V6.95949H449.078V6.26835Z" fill="#444444"/>
<path d="M450.129 4.14177V10.8759H450.957V7.0481C450.987 7.03629 451.036 7.02152 451.104 7.0038C451.172 6.98608 451.249 6.96983 451.336 6.95506C451.422 6.9403 451.512 6.927 451.607 6.91519C451.702 6.90338 451.794 6.89747 451.883 6.89747C452.103 6.89747 452.287 6.92553 452.436 6.98165C452.584 7.03776 452.703 7.12785 452.792 7.2519C452.881 7.37595 452.945 7.5384 452.983 7.73924C453.022 7.94009 453.041 8.18228 453.041 8.46582V10.8759H453.87V8.28861C453.87 7.97553 453.84 7.68903 453.78 7.42911C453.721 7.1692 453.619 6.9462 453.473 6.76013C453.328 6.57405 453.133 6.42933 452.89 6.32595C452.646 6.22257 452.341 6.17089 451.972 6.17089C451.8 6.17089 451.626 6.18713 451.451 6.21962C451.276 6.25211 451.111 6.29789 450.957 6.35696V4L450.129 4.14177Z" fill="#444444"/>
<path fill-rule="evenodd" clip-rule="evenodd" d="M455.134 7.51329C455.016 7.81751 454.956 8.17342 454.956 8.58101C454.956 8.92954 455.002 9.25 455.094 9.54241C455.186 9.83481 455.327 10.0873 455.517 10.3C455.707 10.5127 455.949 10.6795 456.243 10.8006C456.537 10.9217 456.886 10.9823 457.29 10.9823C457.611 10.9823 457.897 10.9527 458.149 10.8937C458.402 10.8346 458.578 10.7785 458.679 10.7253L458.564 10.0342C458.463 10.0814 458.313 10.1302 458.114 10.1804C457.915 10.2306 457.67 10.2557 457.379 10.2557C456.862 10.2557 456.482 10.1316 456.239 9.88354C455.995 9.63544 455.856 9.27215 455.82 8.79367H458.991C458.997 8.74641 459 8.69473 459 8.63861V8.50127C459 7.7097 458.834 7.12047 458.501 6.73354C458.169 6.34662 457.691 6.15316 457.067 6.15316C456.8 6.15316 456.539 6.20338 456.283 6.3038C456.028 6.40422 455.802 6.55485 455.606 6.7557C455.41 6.95654 455.253 7.20907 455.134 7.51329ZM457.855 7.21203C458.048 7.45127 458.142 7.75696 458.136 8.12911H455.838C455.856 7.96962 455.893 7.81308 455.949 7.65949C456.006 7.50591 456.084 7.37004 456.185 7.2519C456.286 7.13375 456.41 7.03776 456.555 6.96392C456.701 6.89008 456.868 6.85316 457.058 6.85316C457.397 6.85316 457.662 6.97278 457.855 7.21203Z" fill="#444444"/>
<path d="M407.068 23.7919C407.068 25.1879 406.089 25.8859 404.132 25.8859C403.257 25.8859 402.517 25.7785 401.912 25.5638C401.307 25.349 400.856 25.1544 400.56 24.9799L400 26.5906C400.142 26.6711 400.338 26.7685 400.589 26.8826C400.84 26.9966 401.139 27.104 401.487 27.2047C401.835 27.3054 402.23 27.3926 402.675 27.4664C403.119 27.5403 403.605 27.5772 404.132 27.5772C405.69 27.5772 406.897 27.2483 407.753 26.5906C408.609 25.9329 409.037 24.9933 409.037 23.7718C409.037 23.1141 408.941 22.5537 408.748 22.0906C408.555 21.6275 408.281 21.2282 407.927 20.8926C407.573 20.557 407.155 20.2685 406.672 20.0268C406.189 19.7852 405.658 19.5436 405.079 19.302C404.667 19.1409 404.29 18.9799 403.949 18.8188C403.608 18.6577 403.309 18.4799 403.051 18.2852C402.794 18.0906 402.594 17.8658 402.452 17.6107C402.311 17.3557 402.24 17.0403 402.24 16.6644C402.24 16.3289 402.308 16.0369 402.443 15.7886C402.578 15.5403 402.761 15.3356 402.993 15.1745C403.225 15.0134 403.495 14.8926 403.804 14.8121C404.113 14.7315 404.448 14.6913 404.808 14.6913C405.516 14.6913 406.138 14.7752 406.672 14.943C407.206 15.1107 407.608 15.2819 407.879 15.4564L408.477 13.8658C408.168 13.651 407.682 13.453 407.019 13.2718C406.356 13.0906 405.619 13 404.808 13C403.405 13 402.304 13.3423 401.506 14.0268C400.708 14.7114 400.309 15.6644 400.309 16.8859C400.309 17.4765 400.402 17.9799 400.589 18.396C400.776 18.8121 401.03 19.1711 401.352 19.4732C401.674 19.7752 402.053 20.0369 402.491 20.2584C402.929 20.4799 403.392 20.6779 403.881 20.8524C404.306 21.0134 404.709 21.1745 405.088 21.3356C405.468 21.4966 405.806 21.6879 406.102 21.9094C406.398 22.1309 406.633 22.3926 406.807 22.6946C406.981 22.9966 407.068 23.3624 407.068 23.7919Z" fill="#444444"/>
<path d="M412.822 16.7651C412.14 16.8859 411.593 17 411.181 17.1074V27.2752H412.977V18.4362C413.041 18.4228 413.147 18.4027 413.295 18.3758C413.443 18.349 413.611 18.3255 413.797 18.3054C413.984 18.2852 414.18 18.2685 414.386 18.255C414.592 18.2416 414.792 18.2349 414.985 18.2349C415.461 18.2349 415.86 18.2987 416.182 18.4262C416.504 18.5537 416.762 18.7584 416.955 19.0403C417.148 19.3222 417.286 19.6913 417.37 20.1477C417.454 20.604 417.495 21.1544 417.495 21.7987V27.2752H419.291V21.396C419.291 20.6846 419.227 20.0336 419.098 19.443C418.969 18.8523 418.747 18.3456 418.432 17.9228C418.117 17.5 417.695 17.1711 417.167 16.9362C416.639 16.7013 415.976 16.5839 415.178 16.5839C414.29 16.5839 413.505 16.6443 412.822 16.7651Z" fill="#444444"/>
<path fill-rule="evenodd" clip-rule="evenodd" d="M427.334 16.8356C426.839 16.6409 426.23 16.5436 425.509 16.5436C424.879 16.5436 424.293 16.594 423.752 16.6946C423.211 16.7953 422.825 16.8993 422.593 17.0067L422.806 18.557C423.025 18.4631 423.356 18.3725 423.8 18.2852C424.244 18.198 424.763 18.1544 425.355 18.1544C425.818 18.1544 426.195 18.2248 426.485 18.3658C426.774 18.5067 427.003 18.6946 427.17 18.9295C427.337 19.1644 427.453 19.4329 427.518 19.7349C427.582 20.0369 427.614 20.3423 427.614 20.651V21.1745C427.563 21.1611 427.473 21.1409 427.344 21.1141C427.215 21.0872 427.064 21.057 426.89 21.0235C426.716 20.9899 426.533 20.9631 426.34 20.943C426.147 20.9228 425.96 20.9128 425.78 20.9128C425.213 20.9128 424.673 20.9732 424.158 21.094C423.643 21.2148 423.192 21.4027 422.806 21.6577C422.42 21.9128 422.114 22.2483 421.889 22.6644C421.663 23.0805 421.551 23.5772 421.551 24.1544C421.551 24.7584 421.647 25.2752 421.84 25.7047C422.033 26.1342 422.304 26.4799 422.651 26.7416C422.999 27.0034 423.411 27.1946 423.887 27.3154C424.364 27.4362 424.885 27.4966 425.451 27.4966C425.851 27.4966 426.253 27.4799 426.658 27.4463C427.064 27.4128 427.44 27.3758 427.788 27.3356C428.136 27.2953 428.448 27.2517 428.725 27.2047C429.001 27.1577 429.217 27.1208 429.371 27.094V20.5503C429.371 19.9597 429.307 19.4195 429.178 18.9295C429.05 18.4396 428.834 18.0168 428.531 17.6611C428.229 17.3054 427.83 17.0302 427.334 16.8356ZM426.794 25.896C426.465 25.9161 426.089 25.9262 425.664 25.9262C424.956 25.9262 424.396 25.7953 423.984 25.5336C423.572 25.2718 423.366 24.8054 423.366 24.1342C423.366 23.7718 423.45 23.4799 423.617 23.2584C423.784 23.0369 423.993 22.8624 424.244 22.7349C424.496 22.6074 424.772 22.5235 425.075 22.4832C425.377 22.443 425.664 22.4228 425.934 22.4228C426.346 22.4228 426.697 22.4463 426.987 22.4933C427.276 22.5403 427.485 22.5973 427.614 22.6644V25.7852C427.395 25.8389 427.122 25.8758 426.794 25.896Z" fill="#444444"/>
<path fill-rule="evenodd" clip-rule="evenodd" d="M440.89 24.255C441.09 23.5839 441.19 22.8524 441.19 22.0604C441.19 21.2148 441.07 20.453 440.832 19.7752C440.594 19.0973 440.256 18.5235 439.819 18.0537C439.381 17.5839 438.853 17.2215 438.235 16.9664C437.617 16.7114 436.922 16.5839 436.15 16.5839C435.313 16.5839 434.576 16.6477 433.938 16.7752C433.301 16.9027 432.77 17.0201 432.345 17.1275V31H434.141V26.8121C434.36 26.9597 434.692 27.1141 435.136 27.2752C435.58 27.4362 436.092 27.5168 436.671 27.5168C437.392 27.5168 438.032 27.3826 438.592 27.1141C439.152 26.8456 439.625 26.4698 440.012 25.9866C440.398 25.5034 440.691 24.9262 440.89 24.255ZM438.447 19.2416C439.027 19.8993 439.316 20.8389 439.316 22.0604C439.316 22.5973 439.265 23.0973 439.162 23.5604C439.059 24.0235 438.892 24.4262 438.66 24.7685C438.428 25.1107 438.129 25.3792 437.762 25.5738C437.395 25.7685 436.954 25.8658 436.439 25.8658C435.95 25.8658 435.499 25.7785 435.087 25.604C434.675 25.4295 434.36 25.2483 434.141 25.0604V18.4564C434.321 18.4027 434.563 18.3557 434.865 18.3154C435.168 18.2752 435.589 18.255 436.13 18.255C437.096 18.255 437.868 18.5839 438.447 19.2416Z" fill="#444444"/>
<path d="M454.34 23.7919C454.34 25.1879 453.362 25.8859 451.405 25.8859C450.529 25.8859 449.789 25.7785 449.184 25.5638C448.579 25.349 448.129 25.1544 447.832 24.9799L447.272 26.5906C447.414 26.6711 447.61 26.7685 447.861 26.8826C448.112 26.9966 448.412 27.104 448.759 27.2047C449.107 27.3054 449.503 27.3926 449.947 27.4664C450.391 27.5403 450.877 27.5772 451.405 27.5772C452.963 27.5772 454.17 27.2483 455.026 26.5906C455.882 25.9329 456.31 24.9933 456.31 23.7718C456.31 23.1141 456.213 22.5537 456.02 22.0906C455.827 21.6275 455.553 21.2282 455.199 20.8926C454.845 20.557 454.427 20.2685 453.944 20.0268C453.461 19.7852 452.93 19.5436 452.351 19.302C451.939 19.1409 451.563 18.9799 451.221 18.8188C450.88 18.6577 450.581 18.4799 450.324 18.2852C450.066 18.0906 449.866 17.8658 449.725 17.6107C449.583 17.3557 449.512 17.0403 449.512 16.6644C449.512 16.3289 449.58 16.0369 449.715 15.7886C449.85 15.5403 450.034 15.3356 450.266 15.1745C450.497 15.0134 450.768 14.8926 451.077 14.8121C451.386 14.7315 451.72 14.6913 452.081 14.6913C452.789 14.6913 453.41 14.7752 453.944 14.943C454.479 15.1107 454.881 15.2819 455.151 15.4564L455.75 13.8658C455.441 13.651 454.955 13.453 454.292 13.2718C453.629 13.0906 452.892 13 452.081 13C450.678 13 449.577 13.3423 448.779 14.0268C447.98 14.7114 447.581 15.6644 447.581 16.8859C447.581 17.4765 447.675 17.9799 447.861 18.396C448.048 18.8121 448.302 19.1711 448.624 19.4732C448.946 19.7752 449.326 20.0369 449.763 20.2584C450.201 20.4799 450.665 20.6779 451.154 20.8524C451.579 21.0134 451.981 21.1745 452.361 21.3356C452.741 21.4966 453.078 21.6879 453.375 21.9094C453.671 22.1309 453.906 22.3926 454.079 22.6946C454.253 22.9966 454.34 23.3624 454.34 23.7919Z" fill="#444444"/>
<path d="M463.937 16.8054H460.133V13.5638L458.337 13.8859V23.2282C458.337 23.9262 458.392 24.5403 458.502 25.0705C458.611 25.6007 458.801 26.047 459.071 26.4094C459.342 26.7718 459.699 27.0436 460.143 27.2248C460.587 27.406 461.15 27.4966 461.833 27.4966C462.412 27.4966 462.927 27.4262 463.377 27.2852C463.828 27.1443 464.143 27.0268 464.324 26.9329L463.976 25.3826C463.847 25.4362 463.619 25.5268 463.291 25.6544C462.962 25.7819 462.528 25.8456 461.987 25.8456C461.678 25.8456 461.408 25.8054 461.176 25.7248C460.944 25.6443 460.751 25.5067 460.597 25.3121C460.442 25.1174 460.326 24.849 460.249 24.5067C460.172 24.1644 460.133 23.7315 460.133 23.2081V18.3758H463.937V16.8054Z" fill="#444444"/>
<path fill-rule="evenodd" clip-rule="evenodd" d="M474.462 24.2953C474.694 23.6242 474.809 22.8725 474.809 22.0403C474.809 21.2215 474.694 20.4732 474.462 19.7953C474.23 19.1174 473.905 18.5369 473.487 18.0537C473.068 17.5705 472.569 17.198 471.99 16.9362C471.411 16.6745 470.78 16.5436 470.098 16.5436C469.415 16.5436 468.784 16.6745 468.205 16.9362C467.626 17.198 467.127 17.5705 466.709 18.0537C466.29 18.5369 465.965 19.1174 465.733 19.7953C465.502 20.4732 465.386 21.2215 465.386 22.0403C465.386 22.8725 465.502 23.6242 465.733 24.2953C465.965 24.9664 466.29 25.5436 466.709 26.0268C467.127 26.5101 467.626 26.8826 468.205 27.1443C468.784 27.406 469.415 27.5369 470.098 27.5369C470.78 27.5369 471.411 27.406 471.99 27.1443C472.569 26.8826 473.068 26.5101 473.487 26.0268C473.905 25.5436 474.23 24.9664 474.462 24.2953ZM472.173 19.2315C472.682 19.9228 472.936 20.8591 472.936 22.0403C472.936 23.2215 472.682 24.1577 472.173 24.849C471.665 25.5403 470.973 25.8859 470.098 25.8859C469.222 25.8859 468.53 25.5403 468.022 24.849C467.513 24.1577 467.259 23.2215 467.259 22.0403C467.259 20.8591 467.513 19.9228 468.022 19.2315C468.53 18.5403 469.222 18.1946 470.098 18.1946C470.973 18.1946 471.665 18.5403 472.173 19.2315Z" fill="#444444"/>
<path d="M481.578 16.6141C481.378 16.594 481.201 16.5839 481.047 16.5839C480.261 16.5839 479.553 16.6544 478.923 16.7953C478.292 16.9362 477.764 17.0872 477.339 17.2483V27.2752H479.135V18.4765C479.238 18.4497 479.454 18.3993 479.782 18.3255C480.11 18.2517 480.442 18.2148 480.776 18.2148C481.291 18.2148 481.713 18.2517 482.041 18.3255C482.369 18.3993 482.604 18.4631 482.746 18.5168L483.055 16.8859C482.978 16.8591 482.859 16.8289 482.698 16.7953C482.537 16.7617 482.36 16.7282 482.167 16.6946C481.974 16.6611 481.777 16.6342 481.578 16.6141Z" fill="#444444"/>
<path fill-rule="evenodd" clip-rule="evenodd" d="M484.619 19.6342C484.362 20.3255 484.233 21.1342 484.233 22.0604C484.233 22.8524 484.333 23.5805 484.532 24.245C484.732 24.9094 485.038 25.4832 485.45 25.9664C485.862 26.4497 486.386 26.8289 487.023 27.104C487.661 27.3792 488.417 27.5168 489.292 27.5168C489.988 27.5168 490.609 27.4497 491.156 27.3154C491.703 27.1812 492.086 27.0537 492.305 26.9329L492.054 25.3624C491.835 25.4698 491.51 25.5805 491.079 25.6946C490.647 25.8087 490.116 25.8658 489.485 25.8658C488.365 25.8658 487.542 25.5839 487.014 25.0201C486.486 24.4564 486.183 23.6309 486.106 22.5436H492.981C492.994 22.4362 493 22.3188 493 22.1913V21.8792C493 20.0805 492.64 18.7416 491.919 17.8624C491.198 16.9832 490.161 16.5436 488.81 16.5436C488.23 16.5436 487.664 16.6577 487.11 16.8859C486.557 17.1141 486.067 17.4564 485.643 17.9128C485.218 18.3691 484.877 18.943 484.619 19.6342ZM490.519 18.9497C490.937 19.4933 491.14 20.1879 491.127 21.0336H486.145C486.183 20.6711 486.264 20.3154 486.386 19.9664C486.508 19.6174 486.679 19.3087 486.898 19.0403C487.117 18.7718 487.384 18.5537 487.699 18.3859C488.015 18.2181 488.378 18.1342 488.79 18.1342C489.524 18.1342 490.1 18.406 490.519 18.9497Z" fill="#444444"/>
<path fill-rule="evenodd" clip-rule="evenodd" d="M381.06 9.78027L387.984 12.8573L381.06 19.7812V9.78027Z" fill="#82BFA1"/>
<path fill-rule="evenodd" clip-rule="evenodd" d="M367.843 33.0001L380.058 20.7841L376.331 17.0801L367.843 33.0001Z" fill="#82BFA1"/>
<path fill-rule="evenodd" clip-rule="evenodd" d="M363 3L380.474 20.368V9.31599L363 3Z" fill="#82BFA1"/>
<path fill-rule="evenodd" clip-rule="evenodd" d="M391.525 9.31543H381.463L394.4 15.0654L391.525 9.31543Z" fill="#FA6340"/>
<defs>
<linearGradient id="paint0_linear" x1="231" y1="13.5" x2="224" y2="22" gradientUnits="userSpaceOnUse">
<stop stop-color="#00E2FF"/>
<stop offset="1" stop-color="#03C6F5"/>
</linearGradient>
<linearGradient id="paint1_linear" x1="244" y1="14" x2="233.5" y2="14" gradientUnits="userSpaceOnUse">
<stop stop-color="#FFEA0D"/>
<stop offset="1" stop-color="#FFCF00"/>
</linearGradient>
<linearGradient id="paint2_linear" x1="234" y1="18" x2="222.5" y2="29.5" gradientUnits="userSpaceOnUse">
<stop stop-color="#F73547"/>
<stop offset="1" stop-color="#E22652"/>
</linearGradient>
<linearGradient id="paint3_linear" x1="240" y1="13.5" x2="225" y2="4" gradientUnits="userSpaceOnUse">
<stop stop-color="#2EF38F"/>
<stop offset="1" stop-color="#0EDE76"/>
</linearGradient>
</defs>
</svg>
