<svg width="23" height="24" viewBox="0 0 23 24" fill="none" xmlns="http://www.w3.org/2000/svg">
<g clip-path="url(#clip0)">
<path d="M15.2701 16.0073L17.4425 12.5566L15.2701 11.9699C14.9856 11.075 14.5017 10.2296 13.8187 9.51366C13.1452 8.80758 12.3484 8.29046 11.4756 7.99214L11.4472 8.022L8.80054 7.9126L7.62421 7.99214C6.7515 8.29046 5.95467 8.80758 5.28112 9.51366L1.76443 13.2002C-0.588142 15.6664 -0.588142 19.6746 1.76443 22.1408C4.1834 24.6765 8.00639 24.5473 10.302 22.1408L13.8187 18.4636C14.5018 17.7475 14.9856 16.9023 15.2701 16.0073ZM7.93051 19.6546C6.86803 20.7684 5.17004 20.7386 4.136 19.6546C3.09252 18.5607 3.09252 16.7707 4.136 15.6768L7.62421 12.0295L9.53096 14.0085L11.4472 15.9774L7.93051 19.6546Z" fill="#444444"/>
<path d="M13.8189 18.4636L10.3023 22.1408C8.00657 24.5473 4.18362 24.6766 1.76465 22.1408L4.13618 19.6547C5.17022 20.7386 6.8682 20.7685 7.93069 19.6547L11.4474 15.9775L9.53119 14.0085L13.8189 9.51367C14.5019 10.2296 14.9858 11.0749 15.2704 11.9699L17.4427 12.5567L15.2704 16.0074C14.9858 16.9024 14.502 17.7476 13.8189 18.4636Z" fill="#444444"/>
<path d="M18.5623 18.4634L18.2005 18.8085C18.1649 18.7712 18.1245 18.7573 18.088 18.7573C18.0514 18.7573 18.011 18.7712 17.9754 18.8085L18.5623 18.4634ZM18.5623 18.4634L18.2005 18.8085L19.1491 19.803M18.5623 18.4634L19.1491 19.803M17.9754 19.1128L18.924 20.1072C18.9597 20.1446 19 20.1585 19.0366 20.1585C19.0731 20.1585 19.1135 20.1446 19.1491 20.1072L17.9754 19.1128ZM17.9754 19.1128L17.6191 19.4527M17.9754 19.1128L17.6191 19.4527M17.6191 19.4527L17.9754 19.1128C17.8975 19.0311 17.8975 18.8902 17.9754 18.8086L17.6191 19.4527ZM19.1491 19.803C19.227 19.8846 19.227 20.0255 19.1491 20.1072L19.1491 19.803Z" fill="#D2C5C2" stroke="#919192"/>
<path d="M4.6946 5.19066L4.69459 5.19065L3.74591 4.19621C3.74591 4.19621 3.74591 4.1962 3.74591 4.1962C3.66801 4.11454 3.66806 3.97365 3.74588 3.89208C3.78152 3.85473 3.82191 3.84082 3.85846 3.84082C3.89499 3.84082 3.93532 3.85471 3.9709 3.89201L3.97093 3.89205L4.91952 4.88645C4.99743 4.96811 4.99738 5.10901 4.91955 5.19058C4.8839 5.22795 4.84352 5.24184 4.80701 5.24184C4.77051 5.24185 4.73019 5.22797 4.6946 5.19066Z" fill="#DFD7D5" stroke="#919192"/>
<path d="M20.3541 14.4891C20.3208 14.6208 20.4014 14.7238 20.479 14.7456L20.4792 14.7457L21.7751 15.1098C21.844 15.1291 21.9456 15.0928 21.9771 14.9707C22.0107 14.8364 21.9279 14.7348 21.8546 14.7146L21.852 14.7139L21.852 14.7139L20.5562 14.3498L20.556 14.3497M20.3541 14.4891L20.556 14.3497M20.3541 14.4891C20.3855 14.3669 20.487 14.3305 20.556 14.3497M20.3541 14.4891L20.556 14.3497" fill="#D2C5C2" stroke="#919192"/>
<path d="M1.11867 8.88982C1.04967 8.87045 0.94799 8.90683 0.916619 9.02913C0.883288 9.16076 0.963839 9.26385 1.04151 9.28564L1.04172 9.2857L2.3376 9.64987L1.11867 8.88982ZM1.11867 8.88982L2.41455 9.25399L2.41455 9.254L2.41728 9.25475C2.49016 9.27479 2.57332 9.37714 2.53962 9.51067C2.50824 9.6328 2.40672 9.66918 2.33775 9.64991L1.11867 8.88982Z" fill="#DFD7D5" stroke="#919192"/>
<path d="M14.061 22.9257L14.0609 22.9255L13.7135 21.5671C13.7135 21.567 13.7135 21.567 13.7135 21.567C13.7135 21.567 13.7135 21.5669 13.7135 21.5669C13.6802 21.4362 13.76 21.3329 13.8385 21.3108C13.9082 21.2913 14.0091 21.3271 14.0407 21.4505L14.0407 21.4505L14.3881 22.809C14.4214 22.9396 14.3419 23.0429 14.2634 23.0652C14.1935 23.0845 14.092 23.0472 14.061 22.9257Z" fill="#D2C5C2" stroke="#919192"/>
<path d="M8.85296 2.54934L8.85293 2.54923L8.50553 1.19075C8.50552 1.19073 8.50552 1.19071 8.50551 1.19069C8.50551 1.19066 8.5055 1.19063 8.50549 1.1906C8.47227 1.06023 8.55154 0.957092 8.62992 0.934675C8.70244 0.914898 8.80206 0.953224 8.83241 1.07309L8.83241 1.07309L8.8327 1.07423L9.1801 2.43271C9.18011 2.43273 9.18011 2.43275 9.18012 2.43277C9.18012 2.4328 9.18013 2.43283 9.18014 2.43286C9.21339 2.56337 9.13392 2.66659 9.05545 2.68886C8.9854 2.70818 8.88397 2.6707 8.85296 2.54934Z" fill="#DFD7D5" stroke="#919192"/>
<path d="M21.1303 1.85876C18.7777 -0.60743 14.9547 -0.617414 12.5927 1.85876L9.07598 5.53591C8.393 6.25188 7.90918 7.09713 7.62457 7.99216C7.20715 9.30485 7.20719 10.7169 7.62461 12.0296C7.90918 12.9245 8.393 13.7699 9.07598 14.4859C9.74005 15.182 10.5369 15.6991 11.4191 16.0074L11.4476 15.9776C12.4911 14.8836 12.491 13.0937 11.4476 11.9998C10.4041 10.9059 10.4041 9.1159 11.4476 8.02202L14.9642 4.34487C15.4765 3.80782 16.1406 3.52943 16.8616 3.52943C16.8805 3.5096 17.0417 3.51949 17.0797 3.53937C17.592 3.53932 18.2654 3.82769 18.7587 4.34487C19.8022 5.43874 19.8023 7.22871 18.7587 8.32263L15.2706 11.9699C15.688 13.2826 15.688 14.6947 15.2706 16.0074C16.1338 15.6991 16.9497 15.182 17.6137 14.4858L21.1304 10.8087C23.4829 8.34246 23.4828 4.32494 21.1303 1.85876Z" fill="#FF6F3D"/>
<path d="M11.4468 15.9778L11.4183 16.0076C10.5361 15.6993 9.73922 15.1822 9.0752 14.4861L11.4468 12C12.4902 13.0939 12.4903 14.8839 11.4468 15.9778Z" fill="#FF6F3D"/>
<path d="M21.1293 10.8088L17.6126 14.486C16.9486 15.1821 16.1328 15.6992 15.2695 16.0075C15.6869 14.6948 15.6869 13.2827 15.2695 11.97L18.7577 8.32276C19.8012 7.22884 19.8012 5.43887 18.7577 4.345L21.1293 1.85889C23.4819 4.32503 23.482 8.34254 21.1293 10.8088Z" fill="#FF6F3D"/>
</g>
<defs>
<clipPath id="clip0">
<rect width="22.8943" height="24" fill="white"/>
</clipPath>
</defs>
</svg>
