<svg width="24" height="24" viewBox="0 0 24 24" fill="none" xmlns="http://www.w3.org/2000/svg">
<path fill-rule="evenodd" clip-rule="evenodd" d="M16.5419 17.2439C19.094 16.9446 21.3162 15.4006 21.5955 13.9898C22.0356 11.7674 21.9993 8.56632 21.9993 8.56632C21.9993 4.22771 19.1042 2.95599 19.1042 2.95599C17.6446 2.29772 15.138 2.0209 12.5339 2H12.4699C9.86585 2.0209 7.36096 2.29772 5.90116 2.95599C5.90116 2.95599 3.00602 4.22771 3.00602 8.56632C3.00602 8.82934 3.00464 9.10599 3.0032 9.39399C2.99919 10.1938 2.99475 11.0812 3.01831 12.0074C3.12345 16.2504 3.81055 20.432 7.80586 21.4703C9.64801 21.9491 11.2296 22.0493 12.5034 21.9805C14.8134 21.8548 16.1101 21.1711 16.1101 21.1711L16.034 19.5254C16.034 19.5254 14.3832 20.0365 12.5293 19.9742C10.6925 19.9124 8.75349 19.7797 8.45642 17.5655C8.42898 17.371 8.41526 17.163 8.41526 16.9446C8.41526 16.9446 10.2183 17.3774 12.5034 17.4802C13.9007 17.5431 15.211 17.3998 16.5419 17.2439ZM18.584 14.1562V8.90284C18.584 7.82918 18.3056 6.97599 17.7465 6.34476C17.1697 5.71354 16.4144 5.38995 15.477 5.38995C14.3922 5.38995 13.5707 5.79931 13.0277 6.61813L12.4996 7.48717L11.9717 6.61813C11.4286 5.79931 10.6071 5.38995 9.52243 5.38995C8.58489 5.38995 7.82964 5.71354 7.25294 6.34476C6.69369 6.97599 6.41527 7.82918 6.41527 8.90284V14.1562H8.53496V9.05726C8.53496 7.98241 8.99555 7.43685 9.91684 7.43685C10.9355 7.43685 11.4461 8.08402 11.4461 9.36371V12.1546H13.5533V9.36371C13.5533 8.08402 14.0638 7.43685 15.0825 7.43685C16.0037 7.43685 16.4643 7.98241 16.4643 9.05726V14.1562H18.584Z" fill="#333333"/>
</svg>
