<svg width="40" height="48" viewBox="0 0 40 48" fill="none" xmlns="http://www.w3.org/2000/svg">
<path d="M34.0802 19.0176V27.2352L22.2237 35.46L20.0002 37.002L17.7767 35.46L5.92139 27.234V0.00119019H34.0802V19.0176Z" fill="#E6E9ED"/>
<path d="M19.227 18.3192L18.5211 19.2936H14.0752L17.0364 15.5184L19.227 18.3192Z" fill="#434A54"/>
<path d="M22.9634 13.2108L27.4034 19.2504H18.5234L19.2293 18.276L22.9634 13.2108Z" fill="#656D78"/>
<path d="M28.8834 5.28479V18.8724H27.4034L22.9634 12.834L19.2339 17.8992L17.0434 15.0984L14.0834 18.8724H11.1187V5.28479H28.8834Z" fill="#2A9EE5"/>
<path d="M5.92118 19.1988V27.246L0 23.2224L5.92118 19.1988Z" fill="#FDA050"/>
<path d="M18.146 10.428C18.146 10.7265 18.0592 11.0184 17.8966 11.2667C17.734 11.5149 17.5028 11.7084 17.2324 11.8227C16.962 11.9369 16.6644 11.9668 16.3773 11.9086C16.0902 11.8503 15.8265 11.7065 15.6195 11.4954C15.4125 11.2843 15.2716 11.0153 15.2145 10.7225C15.1574 10.4296 15.1867 10.1261 15.2987 9.85026C15.4107 9.57442 15.6004 9.33866 15.8438 9.17278C16.0872 9.0069 16.3733 8.91837 16.666 8.91837C17.0586 8.91837 17.435 9.07741 17.7126 9.36052C17.9901 9.64362 18.146 10.0276 18.146 10.428Z" fill="#FFCE54"/>
<path d="M39.9998 23.2224L34.0786 27.246V19.1988L39.9998 23.2224Z" fill="#FDA050"/>
<path d="M40.0025 23.844V48L22.2378 35.922L34.079 27.8676L40.0025 23.844Z" fill="#FDA050"/>
<path d="M17.7647 35.922L0 48V23.844L5.92118 27.8676L17.7647 35.922Z" fill="#FDA050"/>
<path d="M40 48H0L17.7776 35.922L20 37.4316L22.2224 35.922L40 48Z" fill="#FFAE68"/>
<path d="M28.1398 24.0696H11.8586C11.6624 24.0696 11.4742 23.9901 11.3354 23.8485C11.1966 23.707 11.1187 23.515 11.1187 23.3148C11.1187 23.1146 11.1966 22.9226 11.3354 22.7811C11.4742 22.6395 11.6624 22.56 11.8586 22.56H28.1398C28.3361 22.56 28.5243 22.6395 28.6631 22.7811C28.8019 22.9226 28.8798 23.1146 28.8798 23.3148C28.8798 23.515 28.8019 23.707 28.6631 23.8485C28.5243 23.9901 28.3361 24.0696 28.1398 24.0696Z" fill="#CCD1D9"/>
<path d="M28.1398 27.0888H11.8586C11.7615 27.0888 11.6652 27.0693 11.5755 27.0314C11.4857 26.9934 11.4041 26.9378 11.3354 26.8677C11.2667 26.7976 11.2122 26.7145 11.175 26.6229C11.1378 26.5313 11.1187 26.4331 11.1187 26.334C11.1187 26.2349 11.1378 26.1368 11.175 26.0452C11.2122 25.9536 11.2667 25.8704 11.3354 25.8003C11.4041 25.7302 11.4857 25.6746 11.5755 25.6367C11.6652 25.5987 11.7615 25.5792 11.8586 25.5792H28.1398C28.3361 25.5792 28.5243 25.6588 28.6631 25.8003C28.8019 25.9419 28.8798 26.1338 28.8798 26.334C28.8798 26.5342 28.8019 26.7262 28.6631 26.8677C28.5243 27.0093 28.3361 27.0888 28.1398 27.0888Z" fill="#CCD1D9"/>
<path d="M24.44 30.108H15.5588C15.4617 30.108 15.3654 30.0885 15.2757 30.0505C15.1859 30.0126 15.1043 29.957 15.0356 29.8869C14.9669 29.8168 14.9124 29.7336 14.8752 29.6421C14.838 29.5505 14.8188 29.4523 14.8188 29.3532C14.8188 29.2541 14.838 29.1559 14.8752 29.0644C14.9124 28.9728 14.9669 28.8896 15.0356 28.8195C15.1043 28.7494 15.1859 28.6938 15.2757 28.6558C15.3654 28.6179 15.4617 28.5984 15.5588 28.5984H24.44C24.5372 28.5984 24.6334 28.6179 24.7232 28.6558C24.813 28.6938 24.8946 28.7494 24.9633 28.8195C25.032 28.8896 25.0865 28.9728 25.1237 29.0644C25.1609 29.1559 25.18 29.2541 25.18 29.3532C25.18 29.4523 25.1609 29.5505 25.1237 29.6421C25.0865 29.7336 25.032 29.8168 24.9633 29.8869C24.8946 29.957 24.813 30.0126 24.7232 30.0505C24.6334 30.0885 24.5372 30.108 24.44 30.108Z" fill="#CCD1D9"/>
</svg>
