<svg width="98" height="22" viewBox="0 0 98 22" fill="none" xmlns="http://www.w3.org/2000/svg">
<g clip-path="url(#clip0_1_3)">
<path d="M60.3377 0.0205078H65.3607V5.41256H70.5272V10.128H65.3607V15.7251H60.3377V10.128H55.1711V5.41256H60.3377V0.0205078Z" fill="black"/>
<path fill-rule="evenodd" clip-rule="evenodd" d="M27.8419 11.5017C27.8419 6.15065 32.1678 1.8042 37.4778 1.8042C42.7879 1.8042 47.1138 6.15065 47.1138 11.5017C47.1138 16.8527 42.7879 21.1992 37.4778 21.1992C32.1678 21.1992 27.8419 16.8527 27.8419 11.5017ZM32.4343 11.4812C32.4343 14.29 34.6896 16.5657 37.4778 16.5657C40.2661 16.5657 42.5214 14.3105 42.5214 11.4812C42.5214 8.67241 40.2661 6.39667 37.4778 6.39667C34.6896 6.39667 32.4343 8.67241 32.4343 11.4812Z" fill="black"/>
<path d="M4.87829 1.90517C7.57364 1.85514 10.3765 1.80312 12.6293 1.86569C17.5908 1.98871 19.4565 4.14143 19.5385 9.49247C19.6 12.5063 19.5385 21.1582 19.5385 21.1582H14.167C14.167 17.9452 14.1743 15.8712 14.1797 14.3661C14.187 12.3278 14.1905 11.332 14.167 9.96402C14.1054 7.87281 13.5109 6.8682 11.8912 6.68368C10.169 6.47866 5.39206 6.64268 5.39206 6.64268V21.1582H0.0205078V1.9682C1.48206 1.9682 3.15828 1.93709 4.87829 1.90517Z" fill="black"/>
<path fill-rule="evenodd" clip-rule="evenodd" d="M97.877 11.5017C97.877 6.15065 93.5511 1.8042 88.241 1.8042C82.931 1.8042 78.605 6.15065 78.605 11.5017C78.605 14.6385 80.0402 17.3243 82.2749 19.108C83.8331 20.3381 86.0063 21.1992 88.9176 21.1992C90.3322 21.1992 94.0021 20.8096 96.6469 17.8778L94.4736 14.9665C93.5511 15.7866 91.2343 16.9347 89.3891 16.9347C87.0519 16.9347 85.6373 16.4837 84.6122 15.5201C83.9766 14.946 83.5255 14.0645 83.3205 12.9778H97.7335C97.8155 12.4858 97.877 12.0142 97.877 11.5017ZM83.3615 9.73851C83.8946 7.46278 85.4937 5.78161 88.2205 5.78161C91.0703 5.78161 92.567 7.58579 93.059 9.73851H83.3615Z" fill="black"/>
</g>
<defs>
<clipPath id="clip0_1_3">
<rect width="98" height="22" fill="white"/>
</clipPath>
</defs>
</svg>
