<svg width="20" height="20" viewBox="0 0 20 20" fill="none" xmlns="http://www.w3.org/2000/svg">
<path d="M8.99438 11.5C8.99438 11.2239 9.21824 11 9.49438 11H12.4944C12.7705 11 12.9944 11.2239 12.9944 11.5C12.9944 11.7761 12.7705 12 12.4944 12H9.49438C9.21824 12 8.99438 11.7761 8.99438 11.5Z" fill="#CB0000"/>
<path d="M9.49438 6C9.77053 6 9.99438 6.22386 9.99438 6.5L9.99438 11.5C9.99438 11.7761 9.77053 12 9.49438 12C9.21824 12 8.99438 11.7761 8.99438 11.5L8.99438 6.5C8.99438 6.22386 9.21824 6 9.49438 6Z" fill="#CB0000"/>
<path fill-rule="evenodd" clip-rule="evenodd" d="M14.1889 4.39592C12.9251 3.44995 11.3786 2.95896 9.80052 3.00269C9.52448 3.01033 9.29451 2.79276 9.28686 2.51673C9.27921 2.24069 9.49678 2.01072 9.77282 2.00307C11.5763 1.9531 13.3438 2.51423 14.7882 3.59534C16.2326 4.67645 17.2691 6.21406 17.7295 7.95851C18.1899 9.70297 18.0471 11.5518 17.3244 13.2049C16.6016 14.858 15.3412 16.2182 13.748 17.0647C12.1547 17.9113 10.3221 18.1944 8.54761 17.8681C6.77317 17.5418 5.16112 16.6253 3.9732 15.2674C2.78528 13.9095 2.09125 12.1899 2.00379 10.3878C1.91634 8.58572 2.44059 6.807 3.49143 5.34043C3.65227 5.11596 3.96462 5.06438 4.18909 5.22522C4.41356 5.38606 4.46514 5.69841 4.3043 5.92288C3.38481 7.20612 2.92609 8.7625 3.00262 10.3393C3.07914 11.9161 3.68642 13.4208 4.72585 14.6089C5.76528 15.7971 7.17582 16.5991 8.72846 16.8846C10.2811 17.1701 11.8846 16.9224 13.2788 16.1816C14.6729 15.4409 15.7757 14.2507 16.4081 12.8043C17.0405 11.3579 17.1655 9.7401 16.7626 8.2137C16.3598 6.6873 15.4528 5.34189 14.1889 4.39592Z" fill="#CB0000"/>
<path d="M9.14645 2.06066C9.34171 1.8654 9.65829 1.8654 9.85355 2.06066L11.2678 3.47487C11.463 3.67014 11.463 3.98672 11.2678 4.18198C11.0725 4.37724 10.7559 4.37724 10.5607 4.18198L9.14645 2.76777C8.95118 2.5725 8.95118 2.25592 9.14645 2.06066Z" fill="#CB0000"/>
<path d="M11.2678 0.646447C11.463 0.841709 11.463 1.15829 11.2678 1.35355L9.85355 2.76777C9.65829 2.96303 9.34171 2.96303 9.14645 2.76777C8.95118 2.5725 8.95118 2.25592 9.14645 2.06066L10.5607 0.646447C10.7559 0.451184 11.0725 0.451184 11.2678 0.646447Z" fill="#CB0000"/>
</svg>
