<svg width="411" height="357" viewBox="0 0 411 357" fill="none" xmlns="http://www.w3.org/2000/svg">
<g clip-path="url(#clip0_2286_4691)">
<path d="M358.151 293.75C347.921 296.15 338.751 281.84 332.961 274.47C326.961 266.84 327.961 259.13 331.281 250.01C338.361 230.54 341.121 210.12 338.621 183.44C334.171 136.19 314.531 94.59 285.671 64.12L283.511 10.59C282.831 2.14 273.891 -2.69 266.831 1.59L229.311 24.29C205.034 13.6643 178.428 9.47626 152.061 12.13C120.391 15.33 91.6806 28.07 67.9406 47.56L28.0006 37.86C20.3006 35.99 13.0006 43.5 14.9006 51.4L26.4706 96.85C6.6206 131.3 -3.21939 173.35 0.940605 217.58C10.7206 321.58 91.5006 363.27 184.751 353.84C230.801 349.19 268.841 339.36 296.841 309.5C304.051 325.67 317.761 335.4 333.221 345.7C359.961 363.53 391.441 358.08 404.811 332.82C423.551 297.42 388.681 286.59 358.151 293.75ZM298.681 138L276.191 133.11C276.691 135.98 277.111 137.51 277.391 140.45C283.161 201.82 235.121 223.99 173.881 230.18C112.641 236.37 61.3906 224.24 55.6206 162.88C55.3406 159.95 55.2206 158.4 55.1706 155.51L34.4106 165.22L33.3406 159.82L55.1406 150.91C55.1885 147.605 55.4289 144.307 55.8606 141.03L32.0006 142.93L31.7706 138.55L56.2606 136.55C56.7324 133.693 57.3533 130.862 58.1206 128.07L30.0506 125.07L30.3606 119.47L58.8606 123.78C70.4606 79.78 108.291 45.37 156.051 40.54C203.811 35.71 246.161 60.54 265.701 101.54L294.841 91.45L295.701 97L268.311 105.74C269.644 108.74 270.844 111.81 271.911 114.95L296.781 111.95L297.121 116.31L272.881 119.31C273.965 122.376 274.877 125.501 275.611 128.67L299.201 133L298.681 138Z" fill="black"/>
</g>
<defs>
<clipPath id="clip0_2286_4691">
<rect width="410.09" height="356.15" fill="white"/>
</clipPath>
</defs>
</svg>
