<svg width="24" height="24" viewBox="0 0 24 24" fill="none" xmlns="http://www.w3.org/2000/svg">
<path d="M19.7708 8.65913C19.1391 8.65913 18.5833 8.93652 18.1741 9.3687C16.6699 8.26609 14.6416 7.55652 12.3941 7.48087L13.5616 1.91043L17.2791 2.79391C17.2791 3.75739 18.0208 4.54435 18.9308 4.54435C19.8583 4.54435 20.6041 3.73652 20.6041 2.77217C20.6041 1.80783 19.8633 1 18.9316 1C18.2824 1 17.7224 1.41478 17.4433 1.98174L13.3375 1.01826C13.1308 0.96 12.9283 1.11652 12.8733 1.33565L11.5916 7.47652C9.36162 7.57478 7.35496 8.28348 5.8458 9.38696C5.43663 8.93652 4.85913 8.65913 4.22747 8.65913C1.88414 8.65913 1.11664 11.9887 3.26247 13.127C3.18663 13.4791 3.15247 13.8548 3.15247 14.2296C3.15247 17.9696 7.13163 21 12.0175 21C16.9241 21 20.9033 17.9696 20.9033 14.2296C20.9033 13.8548 20.8658 13.4617 20.7733 13.1087C22.8758 11.9661 22.1016 8.66087 19.7708 8.65913ZM6.66746 13.3635C6.66746 12.3817 7.40913 11.5913 8.34079 11.5913C9.25079 11.5913 9.99329 12.3765 9.99329 13.3635C9.99329 14.3278 9.25162 15.1139 8.34079 15.1139C7.41329 15.1183 6.66746 14.3278 6.66746 13.3635ZM15.6999 17.5357C14.1658 19.16 9.83662 19.16 8.30163 17.5357C8.13246 17.3791 8.13246 17.1026 8.30163 16.9243C8.44912 16.7678 8.71079 16.7678 8.85829 16.9243C10.03 18.1965 13.9166 18.2183 15.1391 16.9243C15.2866 16.7678 15.5483 16.7678 15.6958 16.9243C15.8683 17.1035 15.8683 17.38 15.6999 17.5357ZM15.6658 15.1174C14.7558 15.1174 14.0141 14.3322 14.0141 13.3687C14.0141 12.387 14.7558 11.5965 15.6658 11.5965C16.5933 11.5965 17.3391 12.3817 17.3391 13.3687C17.3349 14.3278 16.5933 15.1174 15.6658 15.1174Z" fill="#333333"/>
</svg>
