<svg width="16" height="16" viewBox="0 0 16 16" fill="none" xmlns="http://www.w3.org/2000/svg">
<path fill-rule="evenodd" clip-rule="evenodd" d="M7.29309 0.706652C7.68337 0.31637 8.31614 0.31637 8.70642 0.706651L15.2927 7.29288C15.6832 7.6834 15.6832 8.31657 15.2927 8.70709L8.70643 15.2933C8.31614 15.6836 7.68337 15.6836 7.29309 15.2933C6.90281 14.903 6.90281 14.2703 7.29309 13.88L12.1731 8.99998L12.1876 8.98241C12.1269 8.99395 12.0641 8.99998 12 8.99998H1C0.447715 8.99998 0 8.55227 0 7.99998C0 7.4477 0.447715 6.99998 1 6.99998H12C12.0641 6.99998 12.1269 7.00602 12.1876 7.01756L12.1731 6.99998L7.29309 2.11998C6.90281 1.7297 6.90281 1.09693 7.29309 0.706652Z" fill="white"/>
</svg>
