<svg width="15" height="10" viewBox="0 0 15 10" fill="none" xmlns="http://www.w3.org/2000/svg">
<path d="M13.9431 4.79715C13.8128 4.60071 11.9543 0 7.00436 0C2.75692 0 0.244817 4.57429 0.085564 4.76929C-0.022662 4.90215 -0.022662 5.09715 0.085564 5.23071C0.244817 5.42571 2.75692 10 7.00436 10C11.2518 10 13.7639 5.42571 13.9231 5.23071C14.0231 5.10786 14.0321 4.93001 13.9431 4.79715ZM7.00436 9.28573C3.5994 9.28573 1.65036 5.92143 0.827924 5C1.64901 4.07787 3.59458 0.714307 7.00436 0.714307C10.9884 0.714307 12.4942 4.09287 13.1809 5C12.388 5.89213 10.4383 9.28573 7.00436 9.28573Z" fill="#666666"/>
<path d="M7.00428 2.5C5.64175 2.5 4.53369 3.62125 4.53369 5C4.53369 6.37875 5.64175 7.5 7.00428 7.5C8.3668 7.5 9.47487 6.37875 9.47487 5C9.47487 3.62125 8.3668 2.5 7.00428 2.5ZM7.00428 6.87504C5.9827 6.87504 5.15133 6.03377 5.15133 5.00003C5.15133 3.96628 5.9827 3.12502 7.00428 3.12502C8.02586 3.12502 8.85723 3.96628 8.85723 5.00003C8.85723 6.03377 8.02586 6.87504 7.00428 6.87504Z" fill="#666666"/>
</svg>
