<svg width="24" height="24" viewBox="0 0 24 24" fill="none" xmlns="http://www.w3.org/2000/svg">
<path d="M4.1 17.9002L12 12.0002L4.1 6.10022C4 6.10022 4 6.2002 4 6.3002V17.7002C4 17.8002 4 17.9002 4.1 17.9002Z" fill="#41479B"/>
<path d="M4.09961 17.9002C4.09961 17.9002 4.19961 18.0002 4.29961 18.0002H19.6996C19.8996 18.0002 19.9996 17.9003 19.9996 17.7003V12.0002H11.9996L4.09961 17.9002Z" fill="#FF4B55"/>
<path d="M4.09961 6.10025C4.09961 6.10025 4.19961 6.00024 4.29961 6.00024H19.6996C19.8996 6.00024 19.9996 6.10023 19.9996 6.30023V12.0002H11.9996L4.09961 6.10025Z" fill="#F5F5F5"/>
<path d="M20 6.00024V18.0002H4V6.00024H20ZM20 5.00024H4C3.4 5.00024 3 5.40024 3 6.00024V18.0002C3 18.6002 3.4 19.0002 4 19.0002H20C20.6 19.0002 21 18.6002 21 18.0002V6.00024C21 5.40024 20.6 5.00024 20 5.00024Z" fill="#B5B5B5"/>
</svg>
