<svg width="24" height="24" viewBox="0 0 24 24" fill="none" xmlns="http://www.w3.org/2000/svg">
<path d="M20 8.00024H5V9.00024H20V8.00024Z" fill="#F5F5F5"/>
<path d="M20 6.00024H6V7.00024H20V6.00024Z" fill="#F5F5F5"/>
<path d="M20 10.0002H6V11.0002H20V10.0002Z" fill="#F5F5F5"/>
<path d="M20 12.0002H4V13.0002H20V12.0002Z" fill="#F5F5F5"/>
<path d="M20 14.0002H4V15.0002H20V14.0002Z" fill="#F5F5F5"/>
<path d="M20 16.0002H4V17.0002H20V16.0002Z" fill="#F5F5F5"/>
<path d="M20 9.00024H4V10.0002H20V9.00024Z" fill="#FF4B55"/>
<path d="M20 7.00024H4V8.00024H20V7.00024Z" fill="#FF4B55"/>
<path d="M4 11.0002V12.0002H9.2H11V11.0002H4Z" fill="#FF4B55"/>
<path d="M20 13.0002H4V14.0002H20V13.0002Z" fill="#FF4B55"/>
<path d="M20 15.0002H4V16.0002H20V15.0002Z" fill="#FF4B55"/>
<path d="M20 17.0002H4V18.0002H20V17.0002Z" fill="#FF4B55"/>
<path d="M20 11.0002H4V12.0002H20V11.0002Z" fill="#FF4B55"/>
<path d="M13 12.0002H12H4V6.00024H13V11.0002V12.0002Z" fill="#41479B"/>
<path d="M6 6.00024H5V7.00024H6V6.00024Z" fill="white"/>
<path d="M8 6.00024H7V7.00024H8V6.00024Z" fill="white"/>
<path d="M10 6.00024H9V7.00024H10V6.00024Z" fill="white"/>
<path d="M12 6.00024H11V7.00024H12V6.00024Z" fill="white"/>
<path d="M12 8.00024H11V9.00024H12V8.00024Z" fill="white"/>
<path d="M10 8.00024H9V9.00024H10V8.00024Z" fill="white"/>
<path d="M8 8.00024H7V9.00024H8V8.00024Z" fill="white"/>
<path d="M6 8.00024H5V9.00024H6V8.00024Z" fill="white"/>
<path d="M6 10.0002H5V11.0002H6V10.0002Z" fill="white"/>
<path d="M8 10.0002H7V11.0002H8V10.0002Z" fill="white"/>
<path d="M10 10.0002H9V11.0002H10V10.0002Z" fill="white"/>
<path d="M12 10.0002H11V11.0002H12V10.0002Z" fill="white"/>
<path d="M20 6.00024V18.0002H4V6.00024H20ZM20 5.00024H4C3.4 5.00024 3 5.40024 3 6.00024V18.0002C3 18.6002 3.4 19.0002 4 19.0002H20C20.6 19.0002 21 18.6002 21 18.0002V6.00024C21 5.40024 20.6 5.00024 20 5.00024Z" fill="#B5B5B5"/>
</svg>
