<svg width="24" height="24" viewBox="0 0 24 24" fill="none" xmlns="http://www.w3.org/2000/svg">
<path d="M20 6.00024V18.0002H4V6.00024H20ZM20 5.00024H4C3.4 5.00024 3 5.40024 3 6.00024V18.0002C3 18.6002 3.4 19.0002 4 19.0002H20C20.6 19.0002 21 18.6002 21 18.0002V6.00024C21 5.40024 20.6 5.00024 20 5.00024Z" fill="#B5B5B5"/>
<path d="M4.3 18.0002H19.7C19.9 18.0002 20 17.9002 20 17.7002V6.30024C20 6.10024 19.9 6.00024 19.7 6.00024H4.3C4.1 6.00024 4 6.10024 4 6.30024V17.7002C4 17.9002 4.1 18.0002 4.3 18.0002Z" fill="#C8414B"/>
<path d="M20 8.00024H4V16.0002H20V8.00024Z" fill="#FFD250"/>
<path d="M10.8004 12.0002L11.0004 10.8002C11.0004 10.7002 10.9004 10.6002 10.8004 10.6002H10.6004C10.5004 10.6002 10.4004 10.7002 10.4004 10.8002L10.8004 12.0002Z" fill="#C8414B"/>
<path d="M11.1 11.4003H10.5V14.1003H11.1V11.4003Z" fill="#F5F5F5"/>
<path d="M11.0998 11.1002H10.2998V11.4002H11.0998V11.1002Z" fill="#FAB446"/>
<path d="M11.1998 12.0002H9.7998V12.3002H11.1998V12.0002Z" fill="#C8414B"/>
<path d="M11.2004 13.3002L10.4004 13.0002V12.7002L11.2004 13.0002V13.3002Z" fill="#C8414B"/>
<path d="M6.5998 12.0002L6.7998 10.8002C6.7998 10.7002 6.6998 10.6002 6.5998 10.6002H6.4998C6.3998 10.6002 6.2998 10.7002 6.2998 10.8002L6.5998 12.0002Z" fill="#C8414B"/>
<path d="M7.5998 11.1002C7.3998 11.1002 7.2998 11.2002 7.2998 11.4002V13.5002C7.2998 13.9002 7.5998 14.6002 8.6998 14.6002C9.7998 14.6002 10.0998 13.9002 10.0998 13.5002V11.4002C10.0998 11.2002 9.9998 11.1002 9.7998 11.1002H7.5998Z" fill="#F5F5F5"/>
<path d="M8.6998 12.6002H7.2998V11.3002C7.2998 11.1002 7.3998 11.0002 7.5998 11.0002H8.6998V12.6002Z" fill="#C8414B"/>
<path d="M8.7002 12.6002H10.1002V13.4002C10.1002 13.8002 9.8002 14.2002 9.4002 14.2002C9.0002 14.2002 8.7002 13.8002 8.7002 13.4002V12.6002Z" fill="#C8414B"/>
<path d="M7.2998 12.6002H8.6998V13.4002C8.6998 13.8002 8.3998 14.2002 7.9998 14.2002C7.5998 14.2002 7.2998 13.8002 7.2998 13.4002V12.6002Z" fill="#FAB446"/>
<path d="M8.39961 14.0002V12.6002H8.09961V14.2002C8.19961 14.2002 8.29961 14.1002 8.39961 14.0002Z" fill="#C8414B"/>
<path d="M7.89961 14.2002V12.6002H7.59961V14.0002C7.69961 14.1002 7.79961 14.2002 7.89961 14.2002Z" fill="#C8414B"/>
<path d="M8.39961 12.0002H7.59961V12.3002H8.39961V12.0002Z" fill="#FFB441"/>
<path d="M8.39961 11.4003H7.59961V11.7003H8.39961V11.4003Z" fill="#FAB446"/>
<path d="M8.3002 11.6002H7.7002V12.2002H8.3002V11.6002Z" fill="#FAB446"/>
<path d="M6.8998 11.4003H6.2998V14.1003H6.8998V11.4003Z" fill="#F5F5F5"/>
<path d="M7.0002 13.9003H6.2002V14.2003H7.0002V13.9003Z" fill="#FAB446"/>
<path d="M7.0002 11.1002H6.2002V11.4002H7.0002V11.1002Z" fill="#FAB446"/>
<path d="M7.19961 14.2002H6.09961V14.5002H7.19961V14.2002Z" fill="#5064AA"/>
<path d="M11.3 13.9003H10.5V14.2003H11.3V13.9003Z" fill="#FAB446"/>
<path d="M11.3002 14.2002H10.2002V14.5002H11.3002V14.2002Z" fill="#5064AA"/>
<path d="M9.60039 10.7002H7.90039V11.0002H9.60039V10.7002Z" fill="#FAB446"/>
<path d="M8.89961 9.80029H8.59961V10.7003H8.89961V9.80029Z" fill="#FFB441"/>
<path d="M8.4 10.3003C8.2 10.3003 8 10.1003 8 9.80029C8 9.50029 8.2 9.30029 8.4 9.30029C8.6 9.30029 8.8 9.50029 8.8 9.80029C8.8 10.1003 8.6 10.3003 8.4 10.3003ZM8.4 9.60029C8.3 9.60029 8.3 9.70029 8.3 9.80029C8.3 9.90029 8.4 10.0003 8.4 10.0003C8.5 10.0003 8.5 9.90029 8.5 9.80029C8.5 9.70029 8.5 9.60029 8.4 9.60029Z" fill="#F5F5F5"/>
<path d="M8.99961 10.3003C8.79961 10.3003 8.59961 10.1003 8.59961 9.80029C8.59961 9.50029 8.79961 9.30029 8.99961 9.30029C9.19961 9.30029 9.39961 9.50029 9.39961 9.80029C9.39961 10.1003 9.19961 10.3003 8.99961 10.3003ZM8.99961 9.60029C8.89961 9.60029 8.89961 9.70029 8.89961 9.80029C8.89961 9.90029 8.99961 10.0003 8.99961 10.0003C9.09961 10.0003 9.09961 9.90029 9.09961 9.80029C9.09961 9.70029 8.99961 9.60029 8.99961 9.60029Z" fill="#F5F5F5"/>
<path d="M9.49961 10.6002C9.29961 10.6002 9.09961 10.4002 9.09961 10.1002C9.09961 9.80022 9.29961 9.60022 9.49961 9.60022C9.69961 9.60022 9.89961 9.80022 9.89961 10.1002C9.89961 10.4002 9.69961 10.6002 9.49961 10.6002ZM9.49961 9.90022C9.39961 9.90022 9.39961 10.0002 9.39961 10.1002C9.39961 10.2002 9.49961 10.3002 9.49961 10.3002C9.49961 10.3002 9.59961 10.2002 9.59961 10.1002C9.69961 10.0002 9.59961 9.90022 9.49961 9.90022Z" fill="#F5F5F5"/>
<path d="M7.9 10.6002C7.7 10.6002 7.5 10.4002 7.5 10.1002C7.5 9.80022 7.7 9.60022 7.9 9.60022C8.1 9.60022 8.3 9.80022 8.3 10.1002C8.3 10.4002 8.1 10.6002 7.9 10.6002ZM7.9 9.90022C7.8 9.90022 7.8 10.0002 7.8 10.1002C7.8 10.2002 7.9 10.3002 7.9 10.3002C8 10.3002 8 10.2002 8 10.1002C8 10.0002 7.9 9.90022 7.9 9.90022Z" fill="#F5F5F5"/>
<path d="M9.5 13.3003V13.5003C9.5 13.6003 9.4 13.7003 9.4 13.7003C9.3 13.7003 9.3 13.6003 9.3 13.5003V13.3003H9.5ZM9.8 12.9003H9V13.4003C9 13.7003 9.2 13.9003 9.4 13.9003C9.6 13.9003 9.8 13.7003 9.8 13.4003V12.9003Z" fill="#FAB446"/>
<path d="M9.39961 12.3003C9.19961 12.3003 9.09961 12.2003 9.09961 12.0003V11.7003C9.09961 11.5003 9.19961 11.4003 9.39961 11.4003C9.59961 11.4003 9.69961 11.5003 9.69961 11.7003V12.0003C9.69961 12.2003 9.49961 12.3003 9.39961 12.3003Z" fill="#FFA0D2"/>
<path d="M9.0998 12.6002C9.0998 12.9002 8.8998 13.1002 8.6998 13.1002C8.4998 13.1002 8.2998 12.9002 8.2998 12.6002C8.2998 12.3002 8.4998 12.1002 8.6998 12.1002C8.8998 12.2002 9.0998 12.4002 9.0998 12.6002Z" fill="#5064AA"/>
<path d="M8.89961 9.2002H8.59961V10.1002H8.89961V9.2002Z" fill="#FAB446"/>
<path d="M7.89961 10.7003L7.59961 10.4003L7.79961 10.2003C7.99961 10.0003 8.29961 9.80029 8.69961 9.80029C9.09961 9.80029 9.39961 10.0003 9.59961 10.2003L9.79961 10.4003L9.49961 10.7003H7.89961Z" fill="#C8414B"/>
<path d="M8.79961 10.4002C8.79961 10.5002 8.69961 10.6002 8.69961 10.6002C8.59961 10.6002 8.59961 10.5002 8.59961 10.4002C8.59961 10.3002 8.69961 10.2002 8.69961 10.2002C8.79961 10.3002 8.79961 10.3002 8.79961 10.4002Z" fill="#FFD250"/>
<path d="M8.29961 10.4002C8.29961 10.5002 8.19961 10.6002 8.19961 10.6002C8.09961 10.6002 8.09961 10.5002 8.09961 10.4002C8.09961 10.3002 8.19961 10.2002 8.19961 10.2002C8.19961 10.3002 8.29961 10.3002 8.29961 10.4002Z" fill="#FFD250"/>
<path d="M9.4002 10.4002C9.4002 10.5002 9.3002 10.6002 9.3002 10.6002C9.2002 10.6002 9.2002 10.5002 9.2002 10.4002C9.2002 10.3002 9.3002 10.2002 9.3002 10.2002C9.3002 10.3002 9.4002 10.3002 9.4002 10.4002Z" fill="#FFD250"/>
<path d="M7.6002 12.0002H6.2002V12.3002H7.6002V12.0002Z" fill="#C8414B"/>
<path d="M6.2002 13.3002L7.0002 12.9002V12.6002L6.2002 12.9002V13.3002Z" fill="#C8414B"/>
</svg>
