<svg width="24" height="24" viewBox="0 0 24 24" fill="none" xmlns="http://www.w3.org/2000/svg">
<path d="M8.99961 18.0002H3.89961C3.69961 18.0002 3.59961 17.9002 3.59961 17.7002V6.30025C3.59961 6.10025 3.69961 6.00024 3.89961 6.00024H8.99961V18.0002Z" fill="#41479B"/>
<path d="M15 6.00024H9V18.0002H15V6.00024Z" fill="#F5F5F5"/>
<path d="M19.7 18.0002H15V6.00024H19.7C19.9 6.00024 20 6.10025 20 6.30025V17.7002C20 17.9002 19.9 18.0002 19.7 18.0002Z" fill="#FF4B55"/>
<path d="M20 6.00024V18.0002H4V6.00024H20ZM20 5.00024H4C3.4 5.00024 3 5.40024 3 6.00024V18.0002C3 18.6002 3.4 19.0002 4 19.0002H20C20.6 19.0002 21 18.6002 21 18.0002V6.00024C21 5.40024 20.6 5.00024 20 5.00024Z" fill="#B5B5B5"/>
</svg>
