<svg width="24" height="24" viewBox="0 0 24 24" fill="none" xmlns="http://www.w3.org/2000/svg">
<path d="M20 18.0003H4C4 18.0003 4.00002 17.9003 4.00002 17.7003V6.00024L20 6.00027V17.7003C20 17.9003 20 18.0003 20 18.0003Z" fill="#F5F5F5"/>
<path d="M20 6.00024L20 18.0002L4 18.0002L4 6.00024L20 6.00024ZM20 5.00024L4 5.00024C3.4 5.00024 3 5.40024 3 6.00024L3 18.0002C3 18.6002 3.4 19.0002 4 19.0002L20 19.0002C20.6 19.0002 21 18.6002 21 18.0002L21 6.00024C21 5.40024 20.6 5.00024 20 5.00024Z" fill="#B5B5B5"/>
<circle cx="12" cy="12.0002" r="3" fill="#FF4B55"/>
</svg>
