<svg width="24" height="24" viewBox="0 0 24 24" fill="none" xmlns="http://www.w3.org/2000/svg">
<path d="M19.7 18.0002H4.3C4.1 18.0002 4 17.9002 4 17.7002V6.30025C4 6.10025 4.1 6.00024 4.3 6.00024H19.7C19.9 6.00024 20 6.10025 20 6.30025V17.7002C20 17.9002 19.9 18.0002 19.7 18.0002Z" fill="#73AF00"/>
<path d="M11.8996 8.2002L5.99961 11.8002C5.79961 11.9002 5.79961 12.2002 5.99961 12.3002L11.7996 15.8002C11.8996 15.9002 11.9996 15.9002 12.0996 15.8002L17.8996 12.3002C18.0996 12.2002 18.0996 11.9002 17.8996 11.8002L12.0996 8.3002C12.0996 8.2002 11.8996 8.2002 11.8996 8.2002Z" fill="#FFE15A"/>
<path d="M14.1998 12.0003C14.1998 13.2003 13.1998 14.2003 11.9998 14.2003C10.7998 14.2003 9.7998 13.2003 9.7998 12.0003C9.7998 10.8003 10.7998 9.80029 11.9998 9.80029C13.1998 9.80029 14.1998 10.8003 14.1998 12.0003Z" fill="#41479B"/>
<path d="M10.1004 10.9003C10.0004 11.1003 9.90039 11.3003 9.90039 11.5003C11.1004 11.4003 12.9004 11.8003 14.1004 12.9003C14.2004 12.7003 14.2004 12.5003 14.2004 12.3003C13.0004 11.2003 11.4004 10.8003 10.1004 10.9003Z" fill="#F5F5F5"/>
<path d="M12.1 12.8002L12.2 13.0002H12.4L12.3 13.1002L12.4 13.3002L12.2 13.2002L12 13.3002L12.1 13.1002L12 13.0002H12.2L12.1 12.8002C12.1 12.7002 12.1 12.7002 12.1 12.8002Z" fill="#F5F5F5"/>
<path d="M12.8 13.2002L12.9 13.3002H12.8V13.4002H12.7H12.6V13.3002H12.5L12.8 13.2002Z" fill="#F5F5F5"/>
<path d="M11.8 12.4003L11.9 12.5003H11.8V12.6003H11.7H11.6V12.5003H11.5L11.8 12.4003Z" fill="#F5F5F5"/>
<path d="M10.3996 12.3003L10.4996 12.4003H10.3996V12.5003H10.2996H10.1996V12.4003H10.0996L10.3996 12.3003Z" fill="#F5F5F5"/>
<path d="M11.5998 13.2002L11.6998 13.3002H11.5998V13.4002H11.4998H11.3998V13.3002H11.2998L11.5998 13.2002C11.4998 13.2002 11.4998 13.2002 11.5998 13.2002Z" fill="#F5F5F5"/>
<path d="M10.8996 12.3003C10.9996 12.3003 10.9996 12.3003 10.8996 12.3003V12.4003V12.5003H10.7996H10.6996V12.4003H10.5996L10.8996 12.3003Z" fill="#F5F5F5"/>
<path d="M12.8996 11.0002L12.9996 11.1003H12.8996V11.2002H12.7996H12.6996V11.1003H12.5996L12.8996 11.0002Z" fill="#F5F5F5"/>
<path d="M10.5002 11.9003C10.6002 12.0003 10.6002 12.0003 10.5002 11.9003V12.0003V12.1003H10.4002H10.3002V12.0003H10.2002L10.5002 11.9003Z" fill="#F5F5F5"/>
<path d="M10.8 12.8003L10.9 12.9003L10.8 13.0003V13.1003L10.7 13.0003L10.6 13.1003V13.0003L10.5 12.9003L10.8 12.8003Z" fill="#F5F5F5"/>
<path d="M13.2004 13.2002C13.3004 13.3002 13.3004 13.3002 13.2004 13.2002V13.3002V13.4002H13.1004H13.0004V13.3002H12.9004C13.1004 13.3002 13.1004 13.3002 13.2004 13.2002Z" fill="#F5F5F5"/>
<path d="M13.3996 12.8003L13.4996 12.9003H13.3996V13.0003H13.2996H13.1996V12.9003H13.0996L13.3996 12.8003Z" fill="#F5F5F5"/>
<path d="M20 6.00024V18.0002H4V6.00024H20ZM20 5.00024H4C3.4 5.00024 3 5.40024 3 6.00024V18.0002C3 18.6002 3.4 19.0002 4 19.0002H20C20.6 19.0002 21 18.6002 21 18.0002V6.00024C21 5.40024 20.6 5.00024 20 5.00024Z" fill="#B5B5B5"/>
</svg>
