<svg width="92" height="48" viewBox="0 0 92 48" fill="none" xmlns="http://www.w3.org/2000/svg">
<path d="M60.6358 31.2472L58.4069 32.534C56.972 33.3625 55.1372 32.8708 54.3088 31.436L37.2111 1.82196C36.3864 0.393514 36.8696 -1.43279 38.2928 -2.26655L54.8378 -11.9592M54.8378 -11.9592L65.9766 -8.83003M54.8378 -11.9592L57.4774 -7.38713C58.3059 -5.95226 60.1406 -5.46063 61.5755 -6.28906L65.9766 -8.83003M65.9766 -8.83003L66.8238 -7.36255" stroke="#2B71FF" stroke-width="1.6" stroke-linecap="round"/>
<path d="M68.677 -4.15396L73.808 5.95805" stroke="#2B71FF" stroke-width="1.6" stroke-linecap="round"/>
<path d="M46.8555 8.44531L64.3132 -1.63389" stroke="#2B71FF" stroke-width="1.6" stroke-linecap="round"/>
<path d="M49.375 12.8096L66.8327 2.73037" stroke="#2B71FF" stroke-width="1.6" stroke-linecap="round"/>
<path d="M51.8945 17.1738L69.3522 7.09463" stroke="#2B71FF" stroke-width="1.6" stroke-linecap="round"/>
<path d="M54.4141 21.5381L59.0487 18.9167" stroke="#2B71FF" stroke-width="1.6" stroke-linecap="round"/>
<circle cx="45.9783" cy="1.88554" r="2.43974" transform="rotate(-30 45.9783 1.88554)" stroke="#2B71FF" stroke-width="1.6"/>
<path fill-rule="evenodd" clip-rule="evenodd" d="M81.805 18.461C84.1955 17.0808 85.0146 14.024 83.6344 11.6334C82.2542 9.24288 79.1974 8.42382 76.8069 9.80401C74.4163 11.1842 73.5972 14.241 74.9774 16.6316C76.3576 19.0221 79.4144 19.8412 81.805 18.461ZM82.4297 19.5431C85.4179 17.8179 86.4418 13.9969 84.7165 11.0087C82.9913 8.02048 79.1703 6.99664 76.1821 8.72188C73.1939 10.4471 72.1701 14.2681 73.8953 17.2563C75.6205 20.2445 79.4415 21.2684 82.4297 19.5431Z" fill="#2B71FF"/>
<path fill-rule="evenodd" clip-rule="evenodd" d="M78.0564 11.9683C77.4588 12.3133 77.254 13.0775 77.599 13.6751C77.9441 14.2728 78.7083 14.4775 79.3059 14.1325C79.9036 13.7875 80.1083 13.0233 79.7633 12.4256C79.4182 11.828 78.654 11.6232 78.0564 11.9683ZM76.5169 14.2999C75.8268 13.1046 76.2363 11.5762 77.4316 10.8861C78.6269 10.196 80.1553 10.6056 80.8454 11.8008C81.5355 12.9961 81.126 14.5245 79.9307 15.2146C78.7354 15.9047 77.207 15.4952 76.5169 14.2999Z" fill="#2B71FF"/>
<path fill-rule="evenodd" clip-rule="evenodd" d="M78.3868 17.0877C78.1948 17.8043 78.2981 18.6346 78.7873 19.4818L77.7052 20.1066C77.0729 19.0115 76.8911 17.8422 77.1799 16.7643C77.4687 15.6865 78.2108 14.7647 79.3059 14.1325C80.401 13.5003 81.5703 13.3184 82.6482 13.6072C83.726 13.896 84.6478 14.6382 85.28 15.7333L84.1979 16.358C83.7087 15.5108 83.0413 15.0062 82.3248 14.8142C81.6082 14.6222 80.7779 14.7255 79.9307 15.2146C79.0834 15.7038 78.5788 16.3712 78.3868 17.0877Z" fill="#2B71FF"/>
<path fill-rule="evenodd" clip-rule="evenodd" d="M67.8451 15.694C67.0274 15.7092 66.202 15.9257 65.4436 16.3636C63.053 17.7438 62.234 20.8006 63.6141 23.1911C64.1358 24.0947 64.897 24.7737 65.7712 25.1944C65.6407 24.5616 65.6546 23.9284 65.8166 23.3239C65.9477 22.8345 66.1723 22.3773 66.481 21.9648C65.9405 21.773 65.4629 21.3951 65.1536 20.8595C64.4635 19.6642 64.8731 18.1358 66.0683 17.4457C66.5651 17.1589 67.1193 17.062 67.647 17.1325C67.638 17.5678 67.6745 18.0063 67.7584 18.4406C67.4204 18.3135 67.0302 18.3332 66.6931 18.5278C66.0955 18.8729 65.8907 19.6371 66.2358 20.2347C66.5808 20.8323 67.345 21.0371 67.9426 20.6921C68.1406 20.5778 68.2954 20.4176 68.4014 20.2326C68.4281 20.2819 68.4556 20.3309 68.4838 20.3797C68.7105 20.7725 68.9735 21.1313 69.266 21.4544C69.0358 21.5326 68.8023 21.6386 68.5674 21.7742C67.7202 22.2634 67.2156 22.9308 67.0236 23.6473C66.8622 24.2496 66.9094 24.9322 67.219 25.6377C68.2939 25.7957 69.4277 25.606 70.4417 25.0206C71.2001 24.5827 71.8003 23.9761 72.2223 23.2756C72.6477 23.3938 73.0854 23.4671 73.5278 23.4935C72.9993 24.5496 72.1658 25.468 71.0665 26.1027C68.0783 27.8279 64.2573 26.8041 62.532 23.8159C60.8068 20.8277 61.8306 17.0067 64.8188 15.2815C65.9182 14.6467 67.1303 14.3841 68.3092 14.4545C68.1109 14.8508 67.9555 15.2665 67.8451 15.694Z" fill="#2B71FF"/>
<path fill-rule="evenodd" clip-rule="evenodd" d="M79.3072 20.381C78.7771 21.301 78.0052 22.0981 77.0196 22.6671C74.0314 24.3924 70.2104 23.3685 68.4851 20.3803C66.7599 17.3921 67.7837 13.5711 70.7719 11.8459C71.7575 11.2769 72.8337 11.0069 73.8954 11.0078C73.6615 11.4138 73.4747 11.8436 73.3374 12.2884C72.673 12.3627 72.0127 12.5724 71.3967 12.928C69.0061 14.3082 68.1871 17.365 69.5673 19.7556C70.0889 20.6591 70.8501 21.3382 71.7243 21.7588C71.5938 21.1261 71.6078 20.4928 71.7697 19.8884C71.9009 19.399 72.1255 18.9418 72.4341 18.5292C71.8936 18.3374 71.416 17.9596 71.1068 17.4239C70.4167 16.2286 70.8262 14.7002 72.0215 14.0102C72.3551 13.8175 72.7147 13.7106 73.0747 13.6825C73.0444 14.0976 73.0553 14.5172 73.1093 14.9351C72.9507 14.9557 72.7934 15.0073 72.6462 15.0923C72.0486 15.4373 71.8438 16.2015 72.1889 16.7992C72.5339 17.3968 73.2981 17.6016 73.8958 17.2565C73.8959 17.2564 73.8961 17.2563 73.8962 17.2563C74.1105 17.6274 74.3571 17.9682 74.6305 18.2773C74.5939 18.297 74.5572 18.3175 74.5205 18.3386C73.6733 18.8278 73.1687 19.4952 72.9767 20.2118C72.8153 20.814 72.8625 21.4967 73.1722 22.2022C74.2471 22.3602 75.3809 22.1704 76.3948 21.585C77.0109 21.2293 77.5226 20.7623 77.9192 20.224C78.373 20.3275 78.8387 20.3806 79.3072 20.381Z" fill="#2B71FF"/>
<path d="M-8.9407e-08 7C-8.9407e-08 7.55228 0.447712 8 0.999996 8C1.55228 8 2 7.55228 2 7C2 6.44772 1.55228 6 0.999996 6C0.447712 6 -8.9407e-08 6.44772 -8.9407e-08 7Z" fill="#9ADAF3"/>
<path d="M79 35V33" stroke="#FF8E3D" stroke-linecap="round"/>
<path d="M79 41V39" stroke="#FF8E3D" stroke-linecap="round"/>
<path d="M83 37L81 37" stroke="#FF8E3D" stroke-linecap="round"/>
<path d="M77 37L75 37" stroke="#FF8E3D" stroke-linecap="round"/>
</svg>
