<svg width="326" height="56" viewBox="0 0 326 56" fill="none" xmlns="http://www.w3.org/2000/svg">
<path fill-rule="evenodd" clip-rule="evenodd" d="M203.539 4.99854L219.812 9.57L221.557 12.4935C221.834 12.9718 221.67 13.5834 221.191 13.8595C220.713 14.1356 220.101 13.9718 219.825 13.4935L218.784 11.7886L212.526 15.4015C210.613 16.5061 208.167 15.8506 207.062 13.9374L203.315 7.44775L180.202 20.9883C179.253 21.5441 178.931 22.7617 179.481 23.7139L204.393 66.8627C204.945 67.8192 206.168 68.147 207.125 67.5947L211.232 65.2237C211.71 64.9476 212.321 65.1115 212.598 65.5898C212.874 66.0681 212.71 66.6797 212.232 66.9558L208.125 69.3268C206.212 70.4313 203.765 69.7758 202.661 67.8627L177.749 24.7139C176.649 22.8093 177.294 20.3743 179.191 19.2626L203.539 4.99854ZM205.772 7.70319L208.794 12.9374C209.346 13.894 210.57 14.2218 211.526 13.6695L216.594 10.7434L205.772 7.70319Z" fill="#4784FF"/>
<path fill-rule="evenodd" clip-rule="evenodd" d="M222.709 16.5621C223.201 16.3122 223.803 16.5088 224.053 17.0014L231.991 30.5465C232.241 31.039 232.044 31.6409 231.551 31.8908C231.059 32.1407 230.457 31.944 230.207 31.4515L222.27 17.9063C222.02 17.4138 222.216 16.812 222.709 16.5621Z" fill="#4784FF"/>
<path fill-rule="evenodd" clip-rule="evenodd" d="M192.219 35.4542C191.943 34.976 192.107 34.3644 192.585 34.0882L216.834 20.0882C217.312 19.8121 217.924 19.976 218.2 20.4542C218.476 20.9325 218.312 21.5441 217.834 21.8203L193.585 35.8203C193.107 36.0964 192.495 35.9325 192.219 35.4542Z" fill="#4784FF"/>
<path fill-rule="evenodd" clip-rule="evenodd" d="M195.719 41.5164C195.443 41.0381 195.607 40.4265 196.085 40.1504L220.334 26.1504C220.812 25.8743 221.424 26.0381 221.7 26.5164C221.976 26.9947 221.812 27.6063 221.334 27.8824L197.085 41.8824C196.607 42.1586 195.995 41.9947 195.719 41.5164Z" fill="#4784FF"/>
<path fill-rule="evenodd" clip-rule="evenodd" d="M199.219 47.5784C198.943 47.1001 199.106 46.4885 199.585 46.2123L223.833 32.2123C224.312 31.9362 224.923 32.1001 225.199 32.5784C225.476 33.0567 225.312 33.6683 224.833 33.9444L200.585 47.9444C200.106 48.2205 199.495 48.0567 199.219 47.5784Z" fill="#4784FF"/>
<path fill-rule="evenodd" clip-rule="evenodd" d="M202.715 53.6332C202.443 53.1525 202.612 52.5424 203.093 52.2705L209.53 48.6294C210.011 48.3575 210.621 48.5268 210.893 49.0075C211.165 49.4882 210.996 50.0983 210.515 50.3702L204.077 54.0113C203.597 54.2832 202.986 54.114 202.715 53.6332Z" fill="#4784FF"/>
<path fill-rule="evenodd" clip-rule="evenodd" d="M193.285 27.6981C194.481 27.0077 194.89 25.4787 194.2 24.283C193.51 23.0873 191.981 22.6776 190.785 23.3679C189.589 24.0583 189.179 25.5873 189.87 26.783C190.56 27.9787 192.089 28.3884 193.285 27.6981ZM194.285 29.4301C196.437 28.1875 197.175 25.4353 195.932 23.283C194.689 21.1307 191.937 20.3933 189.785 21.6359C187.633 22.8785 186.895 25.6307 188.138 27.783C189.38 29.9353 192.133 30.6728 194.285 29.4301Z" fill="#4784FF"/>
<path fill-rule="evenodd" clip-rule="evenodd" d="M240.793 48.3809C244.056 46.4973 245.174 42.3257 243.29 39.0632C241.406 35.8008 237.235 34.683 233.972 36.5666C230.71 38.4501 229.592 42.6218 231.476 45.8842C233.359 49.1467 237.531 50.2645 240.793 48.3809ZM241.646 49.8577C245.724 47.5032 247.121 42.2887 244.767 38.2106C242.412 34.1326 237.198 32.7353 233.12 35.0898C229.042 37.4443 227.644 42.6588 229.999 46.7369C232.353 50.8149 237.568 52.2121 241.646 49.8577Z" fill="#4784FF"/>
<path fill-rule="evenodd" clip-rule="evenodd" d="M235.678 39.5202C234.862 39.9911 234.583 41.034 235.053 41.8496C235.524 42.6652 236.567 42.9446 237.383 42.4737C238.198 42.0028 238.478 40.9599 238.007 40.1443C237.536 39.3287 236.493 39.0493 235.678 39.5202ZM233.577 42.7022C232.635 41.071 233.194 38.9852 234.825 38.0434C236.456 37.1016 238.542 37.6605 239.484 39.2917C240.426 40.9229 239.867 43.0087 238.236 43.9505C236.604 44.8923 234.518 44.3334 233.577 42.7022Z" fill="#4784FF"/>
<path fill-rule="evenodd" clip-rule="evenodd" d="M236.129 46.5068C235.867 47.4847 236.008 48.6178 236.675 49.7741L235.198 50.6267C234.335 49.1322 234.087 47.5364 234.481 46.0654C234.876 44.5945 235.888 43.3366 237.383 42.4737C238.877 41.6109 240.473 41.3627 241.944 41.7569C243.415 42.151 244.673 43.1638 245.536 44.6583L244.059 45.5109C243.391 44.3547 242.481 43.666 241.503 43.404C240.525 43.142 239.392 43.283 238.236 43.9505C237.079 44.6181 236.391 45.5289 236.129 46.5068Z" fill="#4784FF"/>
<path fill-rule="evenodd" clip-rule="evenodd" d="M221.743 44.6216C220.627 44.6424 219.501 44.9379 218.466 45.5354C215.203 47.419 214.085 51.5906 215.969 54.8531C216.681 56.0861 217.72 57.0129 218.913 57.5869C218.735 56.7234 218.754 55.8592 218.975 55.0343C219.154 54.3664 219.46 53.7424 219.881 53.1794C219.144 52.9177 218.492 52.402 218.07 51.671C217.128 50.0398 217.687 47.954 219.318 47.0122C219.996 46.6208 220.752 46.4886 221.473 46.5848C221.46 47.1789 221.51 47.7773 221.625 48.37C221.163 48.1965 220.631 48.2234 220.171 48.489C219.355 48.9599 219.076 50.0028 219.547 50.8184C220.018 51.634 221.06 51.9135 221.876 51.4426C222.146 51.2866 222.357 51.068 222.502 50.8156C222.539 50.8828 222.576 50.9497 222.615 51.0163C222.924 51.5523 223.283 52.042 223.682 52.483C223.368 52.5897 223.049 52.7343 222.729 52.9194C221.572 53.5869 220.884 54.4977 220.622 55.4756C220.402 56.2976 220.466 57.2292 220.889 58.192C222.356 58.4076 223.903 58.1486 225.287 57.3497C226.322 56.7522 227.141 55.9244 227.717 54.9684C228.297 55.1296 228.894 55.2296 229.498 55.2656C228.777 56.707 227.639 57.9603 226.139 58.8265C222.061 61.181 216.847 59.7837 214.492 55.7057C212.138 51.6276 213.535 46.4131 217.613 44.0586C219.113 43.1924 220.767 42.834 222.376 42.9301C222.106 43.471 221.894 44.0383 221.743 44.6216Z" fill="#4784FF"/>
<path fill-rule="evenodd" clip-rule="evenodd" d="M229.998 38.2297C228.549 38.2285 227.081 38.5969 225.736 39.3734C221.658 41.7279 220.26 46.9425 222.615 51.0205C224.969 55.0985 230.184 56.4958 234.262 54.1413C235.607 53.3647 236.66 52.277 237.384 51.0215C236.744 51.021 236.109 50.9485 235.489 50.8072C234.948 51.5418 234.25 52.1791 233.409 52.6645C232.025 53.4634 230.478 53.7224 229.011 53.5068C228.589 52.544 228.524 51.6124 228.744 50.7904C229.006 49.8125 229.695 48.9017 230.851 48.2342C230.901 48.2053 230.951 48.1774 231.001 48.1505C230.628 47.7288 230.291 47.2637 229.999 46.7572C229.999 46.7572 229.999 46.7571 229.999 46.7572C229.183 47.228 228.14 46.9488 227.669 46.1332C227.198 45.3176 227.478 44.2747 228.293 43.8038C228.494 43.6879 228.709 43.6174 228.925 43.5893C228.851 43.0191 228.837 42.4464 228.878 41.8798C228.387 41.9182 227.896 42.0642 227.441 42.327C225.81 43.2688 225.251 45.3546 226.192 46.9858C226.615 47.7168 227.266 48.2325 228.004 48.4942C227.583 49.0572 227.276 49.6812 227.097 50.3491C226.876 51.174 226.857 52.0382 227.035 52.9017C225.842 52.3277 224.803 51.401 224.092 50.1679C222.208 46.9054 223.326 42.7338 226.588 40.8502C227.429 40.3649 228.33 40.0788 229.236 39.9774C229.424 39.3704 229.679 38.7837 229.998 38.2297Z" fill="#4784FF"/>
<path d="M279.873 14.5818L281.115 14.249" stroke="#FF8E3D" stroke-linecap="round"/>
<path d="M274.746 16.0891L275.988 15.7563" stroke="#FF8E3D" stroke-linecap="round"/>
<path d="M278.842 18.2527L278.509 17.0107" stroke="#FF8E3D" stroke-linecap="round"/>
<path d="M277.511 13.3943L277.152 12.2397" stroke="#FF8E3D" stroke-linecap="round"/>
<path d="M127 38C127 39.1046 127.895 40 129 40C130.105 40 131 39.1046 131 38C131 36.8954 130.105 36 129 36C127.895 36 127 36.8954 127 38Z" fill="#9ADAF3"/>
<path d="M35 27C35 28.1046 35.8954 29 37 29C38.1046 29 39 28.1046 39 27C39 25.8954 38.1046 25 37 25C35.8954 25 35 25.8954 35 27Z" fill="#9ADAF3"/>
<path d="M301.067 47.0381C301.067 48.1427 301.963 49.0381 303.067 49.0381C304.172 49.0381 305.067 48.1427 305.067 47.0381C305.067 45.9335 304.172 45.0381 303.067 45.0381C301.963 45.0381 301.067 45.9335 301.067 47.0381Z" fill="#9ADAF3"/>
<path fill-rule="evenodd" clip-rule="evenodd" d="M90.3293 26.2554C90.7369 25.8882 91.3649 25.9209 91.7321 26.3284L93.0617 27.8041C93.4289 28.2117 93.3962 28.8397 92.9887 29.2069C92.5812 29.5741 91.9532 29.5414 91.586 29.1339L90.2563 27.6581C89.8891 27.2506 89.9218 26.6226 90.3293 26.2554ZM98.7456 26.3375C99.1128 26.745 99.0801 27.3731 98.6726 27.7403L97.1969 29.07C96.7894 29.4372 96.1614 29.4045 95.7942 28.997C95.427 28.5894 95.4597 27.9614 95.8672 27.5942L97.3429 26.2645C97.7504 25.8973 98.3784 25.93 98.7456 26.3375ZM93.2084 32.0122C93.5756 32.4197 93.5429 33.0477 93.1354 33.4149L91.6597 34.7446C91.2522 35.1118 90.6242 35.0791 90.257 34.6716C89.8898 34.2641 89.9225 33.6361 90.33 33.2689L91.8057 31.9392C92.2132 31.572 92.8412 31.6046 93.2084 32.0122ZM95.7603 31.7958C96.1678 31.4286 96.7958 31.4613 97.163 31.8689L98.4927 33.3446C98.8599 33.7521 98.8169 34.3699 98.4094 34.7371C98.0019 35.1043 97.3842 35.0819 97.017 34.6743L95.6873 33.1986C95.3201 32.7911 95.3528 32.163 95.7603 31.7958Z" fill="#FF8E3D"/>
</svg>
