<svg width="33" height="32" viewBox="0 0 33 32" fill="none" xmlns="http://www.w3.org/2000/svg">
<circle cx="16.4999" cy="15.6" r="15.6" fill="white"/>
<path d="M12.2325 10.4009C10.4985 10.4009 10.0445 10.4009 8.30962 10.4009C7.47636 10.4009 7.30055 10.5618 7.30055 11.3159C7.30055 13.4653 7.29888 15.6147 7.30055 17.7641C7.30221 19.5446 8.64543 20.7937 10.5753 20.7968C14.0433 20.8023 16.2321 20.7992 19.7002 20.7976C20.4443 20.7976 20.6643 20.5919 20.6643 19.8981C20.6659 17.7742 20.6676 15.6503 20.6643 13.5264C20.6609 11.6229 19.331 10.4009 17.2679 10.4001C15.5889 10.3993 13.9115 10.4009 12.2325 10.4009ZM26.4979 15.6C26.4979 14.0817 26.5062 12.5635 26.4879 11.046C26.4854 10.8503 26.3996 10.5625 26.2521 10.4875C26.1138 10.4171 25.8055 10.5254 25.6355 10.6376C24.2373 11.5649 22.8482 12.5047 21.4742 13.4622C21.3184 13.5713 21.1934 13.8141 21.1884 13.9982C21.1617 15.0524 21.1867 16.1082 21.1675 17.1624C21.1625 17.4571 21.2784 17.6342 21.5267 17.7982C22.4291 18.396 23.3182 19.0117 24.2131 19.6181C24.7281 19.9669 25.2364 20.325 25.7655 20.6545C26.1704 20.9067 26.4571 20.7589 26.4937 20.3072C26.5029 20.192 26.4979 20.076 26.4979 19.96C26.4979 18.5059 26.4979 17.0526 26.4979 15.5985V15.6Z" fill="#0B5CFF"/>
</svg>
