<svg width="28" height="29" viewBox="0 0 28 29" fill="none" xmlns="http://www.w3.org/2000/svg">
<circle cx="14" cy="14.8867" r="14" fill="white"/>
<path d="M9.36749 10.8876C7.83217 10.8876 7.43017 10.8876 5.89411 10.8876C5.15633 10.8876 5.00066 11.0268 5.00066 11.6794C5.00066 13.5395 4.99918 15.3995 5.00066 17.2596C5.00213 18.8004 6.19144 19.8814 7.90014 19.8841C10.9708 19.8888 12.9088 19.8861 15.9795 19.8847C16.6383 19.8847 16.8331 19.7067 16.8331 19.1063C16.8346 17.2683 16.8361 15.4303 16.8331 13.5923C16.8302 11.9451 15.6527 10.8876 13.8259 10.8869C12.3393 10.8862 10.8541 10.8876 9.36749 10.8876ZM21.9983 15.3868C21.9983 14.0729 22.0057 12.759 21.9895 11.4458C21.9873 11.2765 21.9113 11.0275 21.7807 10.9625C21.6582 10.9016 21.3852 10.9953 21.2347 11.0924C19.9967 11.8949 18.7668 12.7082 17.5502 13.5368C17.4123 13.6312 17.3016 13.8413 17.2972 14.0006C17.2736 14.9129 17.2957 15.8266 17.2787 16.7389C17.2743 16.9939 17.3769 17.1472 17.5967 17.2891C18.3957 17.8065 19.183 18.3392 19.9753 18.864C20.4313 19.1659 20.8813 19.4758 21.3498 19.7609C21.7084 19.9791 21.9622 19.8513 21.9946 19.4604C22.0028 19.3606 21.9983 19.2602 21.9983 19.1598C21.9983 17.9015 21.9983 16.6438 21.9983 15.3855V15.3868Z" fill="#0B5CFF"/>
</svg>
