<svg width="343" height="56" viewBox="0 0 343 56" fill="none" xmlns="http://www.w3.org/2000/svg">
<path fill-rule="evenodd" clip-rule="evenodd" d="M262 11.1577C262.552 11.1577 263 11.6054 263 12.1577V14.1577C263 14.71 262.552 15.1577 262 15.1577C261.448 15.1577 261 14.71 261 14.1577V12.1577C261 11.6054 261.448 11.1577 262 11.1577Z" fill="#FF8E3D"/>
<path fill-rule="evenodd" clip-rule="evenodd" d="M262 19.1577C262.552 19.1577 263 19.6054 263 20.1577V22.1577C263 22.71 262.552 23.1577 262 23.1577C261.448 23.1577 261 22.71 261 22.1577V20.1577C261 19.6054 261.448 19.1577 262 19.1577Z" fill="#FF8E3D"/>
<path fill-rule="evenodd" clip-rule="evenodd" d="M264 17.1577C264 16.6054 264.448 16.1577 265 16.1577L267 16.1577C267.552 16.1577 268 16.6054 268 17.1577C268 17.71 267.552 18.1577 267 18.1577L265 18.1577C264.448 18.1577 264 17.71 264 17.1577Z" fill="#FF8E3D"/>
<path fill-rule="evenodd" clip-rule="evenodd" d="M256 17.1577C256 16.6054 256.448 16.1577 257 16.1577L259 16.1577C259.552 16.1577 260 16.6054 260 17.1577C260 17.71 259.552 18.1577 259 18.1577L257 18.1577C256.448 18.1577 256 17.71 256 17.1577Z" fill="#FF8E3D"/>
<path fill-rule="evenodd" clip-rule="evenodd" d="M29.5285 28.3138C29.7239 28.509 29.7241 28.8256 29.5289 29.0209L28.6202 29.9306C28.4251 30.126 28.1085 30.1261 27.9131 29.931C27.7177 29.7358 27.7176 29.4192 27.9127 29.2239L28.8214 28.3142C29.0166 28.1188 29.3332 28.1187 29.5285 28.3138Z" fill="#FF8E3D"/>
<path fill-rule="evenodd" clip-rule="evenodd" d="M26.2068 31.641C26.4021 31.8361 26.4023 32.1527 26.2071 32.3481L25.2984 33.2577C25.1033 33.4531 24.7867 33.4533 24.5913 33.2581C24.396 33.063 24.3958 32.7464 24.591 32.551L25.4997 31.6413C25.6948 31.446 26.0114 31.4458 26.2068 31.641Z" fill="#FF8E3D"/>
<path fill-rule="evenodd" clip-rule="evenodd" d="M27.9139 31.6394C28.1091 31.4441 28.4257 31.4439 28.621 31.6391L29.5307 32.5478C29.7261 32.7429 29.7262 33.0595 29.5311 33.2549C29.3359 33.4502 29.0193 33.4504 28.824 33.2552L27.9143 32.3465C27.7189 32.1514 27.7188 31.8348 27.9139 31.6394Z" fill="#FF8E3D"/>
<path fill-rule="evenodd" clip-rule="evenodd" d="M24.5887 28.3162C24.7839 28.1208 25.1005 28.1206 25.2958 28.3158L26.2055 29.2245C26.4009 29.4197 26.401 29.7363 26.2059 29.9316C26.0107 30.127 25.6941 30.1272 25.4988 29.932L24.5891 29.0233C24.3937 28.8281 24.3936 28.5115 24.5887 28.3162Z" fill="#FF8E3D"/>
<path d="M196.032 35.1572C196.032 36.2618 196.928 37.1572 198.032 37.1572C199.137 37.1572 200.032 36.2618 200.032 35.1572C200.032 34.0527 199.137 33.1572 198.032 33.1572C196.928 33.1572 196.032 34.0527 196.032 35.1572Z" fill="#9ADAF3"/>
<path d="M0 35.1577C0 36.2623 0.895425 37.1577 1.99999 37.1577C3.10456 37.1577 4 36.2623 4 35.1577C4 34.0531 3.10456 33.1577 1.99999 33.1577C0.895425 33.1577 0 34.0531 0 35.1577Z" fill="#9ADAF3"/>
<path d="M324.033 35.1577C324.033 36.2623 324.928 37.1577 326.033 37.1577C327.137 37.1577 328.033 36.2623 328.033 35.1577C328.033 34.0531 327.137 33.1577 326.033 33.1577C324.928 33.1577 324.033 34.0531 324.033 35.1577Z" fill="#9ADAF3"/>
<path d="M119.75 31.1246L119.75 31.1247C120.763 31.396 121.127 31.3269 121.271 31.252C121.381 31.1944 121.605 30.9998 121.847 30.0973L121.847 30.0965L121.849 30.0905C123.402 24.3119 124.955 18.5346 126.494 12.7538C127.12 10.402 126.788 8.32372 125.721 6.66968C124.647 5.00417 122.759 3.66597 120.092 2.95023L120.091 2.95021C117.307 2.20276 114.524 1.45823 111.741 0.713481C109.884 0.216769 108.028 -0.280037 106.17 -0.777863C103.775 -1.41959 101.872 -1.92185 99.9675 -2.4246L99.9672 -2.42468C98.0625 -2.92746 96.1559 -3.43074 93.7558 -4.07387C93.199 -4.22305 92.8041 -4.29938 92.5135 -4.31872C92.2284 -4.33768 92.1174 -4.2962 92.0791 -4.27686C92.0105 -4.24221 91.805 -4.08913 91.5232 -3.0377C91.0005 -1.08676 90.4773 0.863765 89.9541 2.81415C88.908 6.71431 87.862 10.6139 86.82 14.515L119.75 31.1246ZM119.75 31.1246C115.944 30.1066 112.45 29.1776 109.021 28.266C103.805 26.8791 98.7388 25.5323 92.9558 23.9732M119.75 31.1246L92.9558 23.9732M92.9558 23.9732C90.4939 23.3094 88.6845 21.9836 87.6318 20.3378M92.9558 23.9732L87.6318 20.3378M87.6318 20.3378C86.5839 18.6996 86.2422 16.6796 86.82 14.5151L87.6318 20.3378ZM141.906 19.7608C141.641 20.7444 141.376 21.7287 141.112 22.7144L130.08 14.3791C134.568 12.7936 139.086 11.267 143.622 9.78038C143.795 9.72418 144.063 9.67785 144.308 9.67624C144.353 9.67594 144.393 9.67721 144.428 9.67946C144.432 9.70035 144.435 9.7235 144.437 9.74893C144.459 9.95142 144.44 10.1772 144.402 10.3266C143.599 13.4767 142.753 16.6148 141.906 19.7608ZM144.583 9.70284C144.583 9.70292 144.58 9.70224 144.576 9.70057C144.581 9.70193 144.583 9.70276 144.583 9.70284ZM144.394 9.54518C144.392 9.54309 144.392 9.54195 144.392 9.5419C144.392 9.54184 144.393 9.54289 144.394 9.54518ZM141.111 22.7186C140.582 24.6934 140.052 26.6277 139.523 28.5649L139.523 28.565L139.522 28.567C138.992 30.5042 138.461 32.4442 137.93 34.4257C137.901 34.5357 137.876 34.6339 137.853 34.7243C137.798 34.9392 137.754 35.1096 137.69 35.2897C137.615 35.4998 137.539 35.6081 137.495 35.6549C137.495 35.6552 137.495 35.6555 137.494 35.6558C137.487 35.6531 137.479 35.6497 137.47 35.6455C137.393 35.6103 137.262 35.5258 137.09 35.3445C136.935 35.1804 136.781 35.0182 136.628 34.8575C135.575 33.7494 134.588 32.7098 133.58 31.5631C132.914 30.8042 132.247 30.0403 131.58 29.2749C130.221 27.7175 128.857 26.1535 127.474 24.6109L127.472 24.6098C127.248 24.3597 127.162 24.1929 127.129 24.0729C127.099 23.9665 127.087 23.8176 127.161 23.5572C127.543 22.2316 127.898 20.8988 128.251 19.577C128.281 19.464 128.311 19.3512 128.341 19.2384C128.724 17.8019 129.107 16.3783 129.524 14.9679L141.111 22.7186Z" stroke="#4784FF" stroke-width="2"/>
</svg>
