<svg width="69" height="48" viewBox="0 0 69 48" fill="none" xmlns="http://www.w3.org/2000/svg">
<path d="M27.6358 63.2472L25.4069 64.534C23.972 65.3625 22.1372 64.8708 21.3088 63.436L4.21115 33.822C3.38643 32.3935 3.86959 30.5672 5.29278 29.7335L21.8378 20.0408M21.8378 20.0408L32.9766 23.17M21.8378 20.0408L24.4774 24.6129C25.3059 26.0477 27.1406 26.5394 28.5755 25.7109L32.9766 23.17M32.9766 23.17L33.8238 24.6375" stroke="#2B71FF" stroke-width="1.6" stroke-linecap="round"/>
<path d="M35.677 27.846L40.808 37.9581" stroke="#2B71FF" stroke-width="1.6" stroke-linecap="round"/>
<path d="M13.8555 40.4453L31.3132 30.3661" stroke="#2B71FF" stroke-width="1.6" stroke-linecap="round"/>
<path d="M16.375 44.8096L33.8327 34.7304" stroke="#2B71FF" stroke-width="1.6" stroke-linecap="round"/>
<path d="M18.8945 49.1738L36.3522 39.0946" stroke="#2B71FF" stroke-width="1.6" stroke-linecap="round"/>
<circle cx="12.9783" cy="33.8855" r="2.43974" transform="rotate(-30 12.9783 33.8855)" stroke="#2B71FF" stroke-width="1.6"/>
<path fill-rule="evenodd" clip-rule="evenodd" d="M48.805 50.461C51.1955 49.0808 52.0146 46.024 50.6344 43.6334C49.2542 41.2429 46.1974 40.4238 43.8069 41.804C41.4163 43.1842 40.5972 46.241 41.9774 48.6316C43.3576 51.0221 46.4144 51.8412 48.805 50.461ZM49.4297 51.5431C52.4179 49.8179 53.4418 45.9969 51.7165 43.0087C49.9913 40.0205 46.1703 38.9966 43.1821 40.7219C40.1939 42.4471 39.1701 46.2681 40.8953 49.2563C42.6205 52.2445 46.4415 53.2684 49.4297 51.5431Z" fill="#2B71FF"/>
<path fill-rule="evenodd" clip-rule="evenodd" d="M45.0564 43.9683C44.4588 44.3133 44.254 45.0775 44.599 45.6751C44.9441 46.2728 45.7083 46.4775 46.3059 46.1325C46.9036 45.7875 47.1083 45.0233 46.7633 44.4256C46.4182 43.828 45.654 43.6232 45.0564 43.9683ZM43.5169 46.2999C42.8268 45.1046 43.2363 43.5762 44.4316 42.8861C45.6269 42.196 47.1553 42.6056 47.8454 43.8008C48.5355 44.9961 48.126 46.5245 46.9307 47.2146C45.7354 47.9047 44.207 47.4952 43.5169 46.2999Z" fill="#2B71FF"/>
<path fill-rule="evenodd" clip-rule="evenodd" d="M45.3868 49.0877C45.1948 49.8043 45.2981 50.6346 45.7873 51.4818L44.7052 52.1066C44.0729 51.0115 43.8911 49.8422 44.1799 48.7643C44.4687 47.6865 45.2108 46.7647 46.3059 46.1325C47.401 45.5003 48.5703 45.3184 49.6482 45.6072C50.726 45.896 51.6478 46.6382 52.28 47.7333L51.1979 48.358C50.7087 47.5108 50.0413 47.0062 49.3248 46.8142C48.6082 46.6222 47.7779 46.7255 46.9307 47.2146C46.0834 47.7038 45.5788 48.3712 45.3868 49.0877Z" fill="#2B71FF"/>
<path fill-rule="evenodd" clip-rule="evenodd" d="M34.8451 47.694C34.0274 47.7092 33.202 47.9257 32.4436 48.3636C30.053 49.7438 29.234 52.8006 30.6141 55.1911C31.1358 56.0947 31.897 56.7737 32.7712 57.1944C32.6407 56.5616 32.6546 55.9284 32.8166 55.3239C32.9477 54.8345 33.1723 54.3773 33.481 53.9648C32.9405 53.773 32.4629 53.3951 32.1536 52.8595C31.4635 51.6642 31.8731 50.1358 33.0683 49.4457C33.5651 49.1589 34.1193 49.062 34.647 49.1325C34.638 49.5678 34.6745 50.0063 34.7584 50.4406C34.4204 50.3135 34.0302 50.3332 33.6931 50.5278C33.0955 50.8729 32.8907 51.6371 33.2358 52.2347C33.5808 52.8323 34.345 53.0371 34.9426 52.6921C35.1406 52.5778 35.2954 52.4176 35.4014 52.2326C35.4281 52.2819 35.4556 52.3309 35.4838 52.3797C35.7105 52.7725 35.9735 53.1313 36.266 53.4544C36.0358 53.5326 35.8023 53.6386 35.5674 53.7742C34.7202 54.2634 34.2156 54.9308 34.0236 55.6473C33.8622 56.2496 33.9094 56.9322 34.219 57.6377C35.2939 57.7957 36.4277 57.606 37.4417 57.0206C38.2001 56.5827 38.8003 55.9761 39.2223 55.2756C39.6477 55.3938 40.0854 55.4671 40.5278 55.4935C39.9993 56.5496 39.1658 57.468 38.0665 58.1027C35.0783 59.8279 31.2573 58.8041 29.532 55.8159C27.8068 52.8277 28.8306 49.0067 31.8188 47.2815C32.9182 46.6467 34.1303 46.3841 35.3092 46.4545C35.1109 46.8508 34.9555 47.2665 34.8451 47.694Z" fill="#2B71FF"/>
<path fill-rule="evenodd" clip-rule="evenodd" d="M46.3072 52.381C45.7771 53.301 45.0052 54.0981 44.0196 54.6671C41.0314 56.3924 37.2104 55.3685 35.4851 52.3803C33.7599 49.3921 34.7837 45.5711 37.7719 43.8459C38.7575 43.2769 39.8337 43.0069 40.8954 43.0078C40.6615 43.4138 40.4747 43.8436 40.3374 44.2884C39.673 44.3627 39.0127 44.5724 38.3967 44.928C36.0061 46.3082 35.1871 49.365 36.5673 51.7556C37.0889 52.6591 37.8501 53.3382 38.7243 53.7588C38.5938 53.1261 38.6078 52.4928 38.7697 51.8884C38.9009 51.399 39.1255 50.9418 39.4341 50.5292C38.8936 50.3374 38.416 49.9596 38.1068 49.4239C37.4167 48.2286 37.8262 46.7002 39.0215 46.0102C39.3551 45.8175 39.7147 45.7106 40.0747 45.6825C40.0444 46.0976 40.0553 46.5172 40.1093 46.9351C39.9507 46.9557 39.7934 47.0073 39.6462 47.0923C39.0486 47.4373 38.8438 48.2015 39.1889 48.7992C39.5339 49.3968 40.2981 49.6016 40.8958 49.2565C40.8959 49.2564 40.8961 49.2563 40.8962 49.2563C41.1105 49.6274 41.3571 49.9682 41.6305 50.2773C41.5939 50.297 41.5572 50.3175 41.5205 50.3386C40.6733 50.8278 40.1687 51.4952 39.9767 52.2118C39.8153 52.814 39.8625 53.4967 40.1722 54.2022C41.2471 54.3602 42.3809 54.1704 43.3948 53.585C44.0109 53.2293 44.5226 52.7623 44.9192 52.224C45.373 52.3275 45.8387 52.3806 46.3072 52.381Z" fill="#2B71FF"/>
<path d="M25.6564 5.65689L24.2422 4.24268" stroke="#FF8E3D" stroke-linecap="round"/>
<path d="M29.8986 9.89957L28.4844 8.48535" stroke="#FF8E3D" stroke-linecap="round"/>
<path d="M29.8986 4.24301L28.4844 5.65723" stroke="#FF8E3D" stroke-linecap="round"/>
<path d="M25.6564 8.48569L24.2422 9.8999" stroke="#FF8E3D" stroke-linecap="round"/>
<path d="M4 16C4 16.5523 4.44771 17 5 17C5.55228 17 6 16.5523 6 16C6 15.4477 5.55228 15 5 15C4.44771 15 4 15.4477 4 16Z" fill="#9ADAF3"/>
</svg>
