<svg width="476" height="58" viewBox="0 0 476 58" fill="none" xmlns="http://www.w3.org/2000/svg">
<path d="M436.577 23C436.577 16.9249 441.501 12 447.577 12H461.577C467.652 12 472.577 16.9249 472.577 23V37C472.577 43.0751 467.652 48 461.577 48H447.577C441.501 48 436.577 43.0751 436.577 37V23Z" fill="#003482"/>
<mask id="path-2-outside-1_22_1083" maskUnits="userSpaceOnUse" x="439.577" y="9" width="36" height="36" fill="black">
<rect fill="white" x="439.577" y="9" width="36" height="36"/>
<path d="M440.577 18C440.577 13.5817 444.158 10 448.577 10H466.577C470.995 10 474.577 13.5817 474.577 18V36C474.577 40.4183 470.995 44 466.577 44H448.577C444.158 44 440.577 40.4183 440.577 36V18Z"/>
</mask>
<path d="M440.577 18C440.577 13.5817 444.158 10 448.577 10H466.577C470.995 10 474.577 13.5817 474.577 18V36C474.577 40.4183 470.995 44 466.577 44H448.577C444.158 44 440.577 40.4183 440.577 36V18Z" fill="white" fill-opacity="0.3"/>
<path d="M448.577 11H466.577V9H448.577V11ZM473.577 18V36H475.577V18H473.577ZM466.577 43H448.577V45H466.577V43ZM441.577 36V18H439.577V36H441.577ZM448.577 43C444.711 43 441.577 39.866 441.577 36H439.577C439.577 40.9706 443.606 45 448.577 45V43ZM473.577 36C473.577 39.866 470.443 43 466.577 43V45C471.547 45 475.577 40.9706 475.577 36H473.577ZM466.577 11C470.443 11 473.577 14.134 473.577 18H475.577C475.577 13.0294 471.547 9 466.577 9V11ZM448.577 9C443.606 9 439.577 13.0294 439.577 18H441.577C441.577 14.134 444.711 11 448.577 11V9Z" fill="white" mask="url(#path-2-outside-1_22_1083)"/>
<mask id="path-4-outside-2_22_1083" maskUnits="userSpaceOnUse" x="448.577" y="18" width="17" height="19" fill="black">
<rect fill="white" x="448.577" y="18" width="17" height="19"/>
<path fill-rule="evenodd" clip-rule="evenodd" d="M464.577 35C464.577 35.5523 464.129 36 463.577 36H450.577C450.024 36 449.577 35.5523 449.577 35V20C449.577 19.4477 450.024 19 450.577 19H458.664C458.928 19 459.182 19.1047 459.369 19.2912L464.282 24.1809C464.471 24.3685 464.577 24.6236 464.577 24.8896V35ZM458.577 21.5C458.577 21.2239 458.353 21 458.077 21C457.8 21 457.577 21.2239 457.577 21.5V25.5C457.577 25.7761 457.8 26 458.077 26H462.077C462.353 26 462.577 25.7761 462.577 25.5C462.577 25.2239 462.353 25 462.077 25H458.577V21.5Z"/>
</mask>
<path fill-rule="evenodd" clip-rule="evenodd" d="M464.577 35C464.577 35.5523 464.129 36 463.577 36H450.577C450.024 36 449.577 35.5523 449.577 35V20C449.577 19.4477 450.024 19 450.577 19H458.664C458.928 19 459.182 19.1047 459.369 19.2912L464.282 24.1809C464.471 24.3685 464.577 24.6236 464.577 24.8896V35ZM458.577 21.5C458.577 21.2239 458.353 21 458.077 21C457.8 21 457.577 21.2239 457.577 21.5V25.5C457.577 25.7761 457.8 26 458.077 26H462.077C462.353 26 462.577 25.7761 462.577 25.5C462.577 25.2239 462.353 25 462.077 25H458.577V21.5Z" fill="url(#paint0_linear_22_1083)"/>
<path d="M459.369 19.2912L460.075 18.5824L460.075 18.5824L459.369 19.2912ZM464.282 24.1809L463.577 24.8896L463.577 24.8896L464.282 24.1809ZM458.577 25H457.577V26H458.577V25ZM463.577 37C464.681 37 465.577 36.1046 465.577 35H463.577V37ZM450.577 37H463.577V35H450.577V37ZM448.577 35C448.577 36.1046 449.472 37 450.577 37V35H450.577H448.577ZM448.577 20V35H450.577V20H448.577ZM450.577 18C449.472 18 448.577 18.8954 448.577 20H450.577V20V18ZM458.664 18H450.577V20H458.664V18ZM460.075 18.5824C459.7 18.2094 459.193 18 458.664 18V20L458.664 20L460.075 18.5824ZM464.987 23.4721L460.075 18.5824L458.664 20L463.577 24.8896L464.987 23.4721ZM465.577 24.8896C465.577 24.3576 465.365 23.8474 464.987 23.4721L463.577 24.8896L463.577 24.8896H465.577ZM465.577 35V24.8896H463.577V35H465.577ZM458.077 22C457.8 22 457.577 21.7761 457.577 21.5H459.577C459.577 20.6716 458.905 20 458.077 20V22ZM458.577 21.5C458.577 21.7761 458.353 22 458.077 22V20C457.248 20 456.577 20.6716 456.577 21.5H458.577ZM458.577 25.5V21.5H456.577V25.5H458.577ZM458.077 25C458.353 25 458.577 25.2239 458.577 25.5H456.577C456.577 26.3284 457.248 27 458.077 27V25ZM462.077 25H458.077V27H462.077V25ZM461.577 25.5C461.577 25.2239 461.8 25 462.077 25V27C462.905 27 463.577 26.3284 463.577 25.5H461.577ZM462.077 26C461.8 26 461.577 25.7761 461.577 25.5H463.577C463.577 24.6716 462.905 24 462.077 24V26ZM458.577 26H462.077V24H458.577V26ZM457.577 21.5V25H459.577V21.5H457.577Z" fill="white" mask="url(#path-4-outside-2_22_1083)"/>
<g opacity="0.9">
<path d="M188.896 26.3168L189.78 21.005L184.738 22.8947L188.896 26.3168Z" fill="white"/>
<path d="M212.593 45.3215L211.147 48.2538L213.489 50.5351L210.253 50.0661L208.807 52.9984L208.254 49.7762L205.018 49.3071L207.911 47.7847L207.358 44.5625L209.7 46.8439L212.593 45.3215Z" fill="white"/>
<path d="M311.408 34.1328C305.866 30.4107 309.842 23.105 312.153 24.9514C314.463 26.7977 306.693 31.3204 304.129 28.7563C301.565 26.1922 304.551 18.9191 306.528 20.8156C308.504 22.7121 303.349 26.8982 300.49 24.9514C297.63 23.0045 299.166 18.9131 300.49 17.6729" stroke="white" stroke-linecap="round"/>
<path d="M121.009 47.2764C127.295 49.5243 130.811 41.987 127.954 41.2244C125.096 40.4618 126.072 49.3997 129.658 49.9395C133.243 50.4793 137.321 43.7574 134.622 43.2935C131.922 42.8297 131.616 49.4635 134.88 50.6075C138.145 51.7515 140.524 48.0862 140.736 46.2846" stroke="white" stroke-linecap="round"/>
<path d="M2.16838 44.0917C7.72248 40.3877 3.771 33.0691 1.45404 34.9079C-0.862915 36.7466 6.89302 41.2947 9.46526 38.739C12.0375 36.1834 9.07537 28.9005 7.09259 30.7905C5.1098 32.6805 10.2514 36.8836 13.1169 34.9461C15.9825 33.0086 14.4604 28.9122 13.1408 27.6676" stroke="white" stroke-linecap="round"/>
<circle cx="1.5" cy="1.5" r="1.5" transform="matrix(-1 0 0 1 263.302 41.1329)" fill="white"/>
<circle cx="1.5" cy="1.5" r="1.5" transform="matrix(-1 0 0 1 69.4034 45.4617)" fill="white"/>
<circle cx="1.5" cy="1.5" r="1.5" transform="matrix(-1 0 0 1 141.697 19.1329)" fill="white"/>
<path fill-rule="evenodd" clip-rule="evenodd" d="M209.679 3.4327L214.854 8.1461C216.079 9.26173 216.168 11.1592 215.052 12.3841L210.339 17.5594C209.223 18.7844 207.326 18.873 206.101 17.7574L200.926 13.044C199.701 11.9284 199.612 10.0309 200.728 8.80598L205.441 3.63067C206.557 2.4057 208.454 2.31707 209.679 3.4327ZM204.702 2.95732C206.189 1.32404 208.719 1.20586 210.352 2.69337L215.528 7.40676C217.161 8.89427 217.279 11.4242 215.792 13.0575L211.078 18.2328C209.591 19.8661 207.061 19.9842 205.428 18.4967L200.252 13.7833C198.619 12.2958 198.501 9.76593 199.988 8.13264L204.702 2.95732Z" fill="white"/>
<path fill-rule="evenodd" clip-rule="evenodd" d="M44.5765 25H48.5765C49.6811 25 50.5765 25.8954 50.5765 27V31C50.5765 32.1046 49.6811 33 48.5765 33H44.5765C43.472 33 42.5765 32.1046 42.5765 31V27C42.5765 25.8954 43.472 25 44.5765 25ZM41.5765 27C41.5765 25.3431 42.9197 24 44.5765 24H48.5765C50.2334 24 51.5765 25.3431 51.5765 27V31C51.5765 32.6569 50.2334 34 48.5765 34H44.5765C42.9197 34 41.5765 32.6569 41.5765 31V27Z" fill="white"/>
</g>
<defs>
<linearGradient id="paint0_linear_22_1083" x1="449.577" y1="18.3359" x2="466.525" y2="33.8747" gradientUnits="userSpaceOnUse">
<stop stop-color="#FFC671"/>
<stop offset="0.59375" stop-color="#FF7541"/>
<stop offset="1" stop-color="#FF6F3D"/>
</linearGradient>
</defs>
</svg>
