<svg width="435" height="42" viewBox="0 0 435 42" fill="none" xmlns="http://www.w3.org/2000/svg">
<path fill-rule="evenodd" clip-rule="evenodd" d="M11.1741 22.0001L8.27931 24.9015C8.00766 25.1738 8.00653 25.6163 8.27678 25.89C8.54703 26.1637 8.98632 26.1648 9.25797 25.8925L12.6419 22.5008C12.8048 22.3375 12.8704 22.1129 12.8385 21.9003C12.819 21.7529 12.7529 21.6106 12.6402 21.4976L9.26066 18.1103C8.98901 17.838 8.54971 17.8392 8.27946 18.1128C8.00921 18.3865 8.01035 18.8291 8.282 19.1014L11.1741 22.0001Z" fill="white"/>
<rect x="0.5" y="12.5" width="19" height="19" rx="9.5" stroke="white"/>
<g opacity="0.9">
<path d="M242.645 13.2423L243.53 7.93055L238.488 9.82021L242.645 13.2423Z" fill="white"/>
<path fill-rule="evenodd" clip-rule="evenodd" d="M197.436 26.7676H206.169C207.273 26.7676 208.169 27.663 208.169 28.7676V37.5C208.169 38.6046 207.273 39.5 206.169 39.5H197.436C196.332 39.5 195.436 38.6046 195.436 37.5V28.7676C195.436 27.663 196.332 26.7676 197.436 26.7676ZM194.436 28.7676C194.436 27.1107 195.779 25.7676 197.436 25.7676H206.169C207.825 25.7676 209.169 27.1107 209.169 28.7676V37.5C209.169 39.1569 207.825 40.5 206.169 40.5H197.436C195.779 40.5 194.436 39.1569 194.436 37.5V28.7676Z" fill="white"/>
<path fill-rule="evenodd" clip-rule="evenodd" d="M377.974 6.81622L380.803 9.64465C381.584 10.4257 381.584 11.692 380.803 12.4731L377.974 15.3015C377.193 16.0825 375.927 16.0825 375.146 15.3015L372.317 12.4731C371.536 11.692 371.536 10.4257 372.317 9.64465L375.146 6.81622C375.927 6.03517 377.193 6.03517 377.974 6.81622ZM374.439 6.10911C375.61 4.93754 377.51 4.93754 378.681 6.10911L381.51 8.93754C382.681 10.1091 382.681 12.0086 381.51 13.1802L378.681 16.0086C377.51 17.1802 375.61 17.1802 374.439 16.0086L371.61 13.1802C370.439 12.0086 370.439 10.1091 371.61 8.93754L374.439 6.10911Z" fill="white"/>
<circle cx="2" cy="2" r="2" transform="matrix(-1 0 0 1 434.032 28.4849)" fill="white"/>
<path d="M318.61 15.5014C318.81 12.662 320.632 9.67525 321.983 10.9714C323.42 12.3498 321.089 14.9379 318.61 15.5014C318.517 16.8166 318.773 18.1003 319.584 18.912C320.584 19.9123 322.377 19.8341 324.054 19.257C324.071 16.372 326.164 13.9537 327.608 15.1071C329.017 16.2332 326.677 18.3548 324.054 19.257C322.377 19.8341 320.584 19.9123 319.584 18.912C318.773 18.1003 318.517 16.8166 318.61 15.5014Z" fill="white"/>
<path d="M326.864 24.2886C321.322 20.5664 325.297 13.2608 327.608 15.1071C329.919 16.9535 322.148 21.4761 319.584 18.912C317.02 16.3479 320.006 9.07488 321.983 10.9714C323.96 12.8678 318.804 17.054 315.945 15.1071C313.086 13.1603 314.621 9.0689 315.945 7.82861" stroke="white" stroke-linecap="round"/>
<path d="M136.164 32.6373C138.33 30.79 139.651 27.5501 137.805 27.2331C135.843 26.8959 135.146 30.3086 136.164 32.6373C135.161 33.4931 133.977 34.0499 132.842 33.879C131.443 33.6685 130.441 32.1798 129.909 30.4876C132.22 28.7607 132.923 25.6404 131.137 25.164C129.394 24.6988 129.078 27.842 129.909 30.4876C130.441 32.1798 131.443 33.6685 132.842 33.879C133.977 34.0499 135.161 33.4931 136.164 32.6373Z" fill="white"/>
<path d="M124.193 31.2159C130.479 33.4639 133.995 25.9266 131.137 25.164C128.279 24.4013 129.256 33.3393 132.842 33.879C136.427 34.4188 140.505 27.6969 137.805 27.2331C135.106 26.7692 134.8 33.4031 138.064 34.5471C141.329 35.6911 143.708 32.0258 143.92 30.2242" stroke="white" stroke-linecap="round"/>
<circle cx="1.5" cy="1.5" r="1.5" transform="matrix(-1 0 0 1 282.751 30.9849)" fill="white"/>
<circle cx="1.5" cy="1.5" r="1.5" transform="matrix(-1 0 0 1 74.7454 39)" fill="white"/>
<circle cx="1.5" cy="1.5" r="1.5" transform="matrix(-1 0 0 1 159.978 0)" fill="white"/>
</g>
</svg>
