<svg width="49" height="49" viewBox="0 0 49 49" fill="none" xmlns="http://www.w3.org/2000/svg">
<rect x="0.5" y="0.5" width="48" height="48" rx="24" fill="#93F9FE" fill-opacity="0.2"/>
<path d="M13.7591 30.2983L17.8102 21.1389H12.7019V18.5H21.2157V20.3803L17.0597 30.2983H13.7591Z" fill="#93F9FE"/>
<path d="M21.1409 28.9586C21.1409 28.3884 21.3077 27.9876 21.6412 27.7562C21.9802 27.5249 22.3864 27.4092 22.8598 27.4092C23.3063 27.4092 23.6937 27.5249 24.0219 27.7562C24.35 27.9876 24.5141 28.3884 24.5141 28.9586C24.5141 29.502 24.35 29.8948 24.0219 30.1369C23.6937 30.379 23.3063 30.5 22.8598 30.5C22.3864 30.5 21.9802 30.379 21.6412 30.1369C21.3077 29.8948 21.1409 29.502 21.1409 28.9586Z" fill="#93F9FE"/>
<path d="M36.2981 28.0145H34.9988V30.2983H31.8515V28.0145H27.1468V25.6742L32.0533 18.5H34.9988V25.6338H36.2981V28.0145ZM31.8515 25.6338V24.2619C31.8515 24.1382 31.8542 23.9822 31.8596 23.7939C31.865 23.6056 31.8704 23.4173 31.8758 23.229C31.8865 23.0353 31.8946 22.8739 31.9 22.7448C31.9107 22.6103 31.9188 22.5377 31.9242 22.5269H31.8354C31.7332 22.769 31.639 22.9707 31.553 23.1321C31.4669 23.2882 31.3539 23.4738 31.214 23.689L29.9067 25.6338H31.8515Z" fill="#93F9FE"/>
<rect x="0.5" y="0.5" width="48" height="48" rx="24" stroke="#93F9FE"/>
</svg>
