<svg width="577" height="56" viewBox="0 0 577 56" fill="none" xmlns="http://www.w3.org/2000/svg">
<g clip-path="url(#clip0_1031_16083)">
<path fill-rule="evenodd" clip-rule="evenodd" d="M393.308 -11.865C394.454 -10.6887 394.433 -8.82231 393.262 -7.6962L344.87 38.4043C343.699 39.5304 341.82 39.4898 340.674 38.3135C339.528 37.1372 339.549 35.2708 340.72 34.1447L389.112 -11.9558C390.283 -13.0819 392.162 -13.0413 393.308 -11.865ZM363.141 -12.5768C363.574 -11.0017 362.644 -9.38975 361.064 -8.97635L338.745 -3.13809L345.121 19.787C345.553 21.3624 344.622 22.9737 343.041 23.386C341.461 23.7984 339.829 22.8556 339.397 21.2802L332.239 -4.49536C331.807 -6.06994 332.737 -7.68064 334.317 -8.09384L359.495 -14.6801C361.075 -15.0935 362.708 -14.1518 363.141 -12.5768ZM391.143 3.65957C392.724 3.24724 394.355 4.19004 394.788 5.76538L402.09 31.0351C402.522 32.6097 401.592 34.2204 400.013 34.6336L374.876 41.2623C373.296 41.6757 371.622 40.6916 371.188 39.1165C370.755 37.5415 371.685 35.9295 373.265 35.5161L395.584 29.6779L389.064 7.25856C388.631 5.68323 389.562 4.07191 391.143 3.65957Z" fill="url(#paint0_linear_1031_16083)"/>
<path d="M20 18V13H25V18H20Z" fill="url(#paint1_linear_1031_16083)"/>
<path d="M45.0856 23.8345V19.1069H50.0478V23.8345H45.0856Z" fill="url(#paint2_linear_1031_16083)"/>
<path d="M51 24V19H56V24H51Z" fill="url(#paint3_linear_1031_16083)"/>
<path d="M57 24V19H62V24H57Z" fill="url(#paint4_linear_1031_16083)"/>
<path d="M8 6V1L13 1V6H8Z" fill="url(#paint5_linear_1031_16083)"/>
<path d="M14 6V1L19 1V6H14Z" fill="url(#paint6_linear_1031_16083)"/>
<path d="M26 6V1L31 1V6H26Z" fill="url(#paint7_linear_1031_16083)"/>
<path d="M32 6V1L37 1V6H32Z" fill="url(#paint8_linear_1031_16083)"/>
<path d="M1 18L1 13H6V18H1Z" fill="url(#paint9_linear_1031_16083)"/>
<path d="M8 18V13H13V18H8Z" fill="url(#paint10_linear_1031_16083)"/>
<path d="M14 18V13H19V18H14Z" fill="url(#paint11_linear_1031_16083)"/>
<path d="M8 24V19H13V24H8Z" fill="url(#paint12_linear_1031_16083)"/>
<path d="M14 24V19H19V24H14Z" fill="url(#paint13_linear_1031_16083)"/>
<path d="M20 24V19H25V24H20Z" fill="url(#paint14_linear_1031_16083)"/>
<path d="M1 30L1 25H6V30H1Z" fill="url(#paint15_linear_1031_16083)"/>
<path d="M8 30V25H13V30H8Z" fill="url(#paint16_linear_1031_16083)"/>
<path d="M14 30V25H19V30H14Z" fill="url(#paint17_linear_1031_16083)"/>
<path d="M26 30V25H31V30H26Z" fill="url(#paint18_linear_1031_16083)"/>
<path d="M8 36V31H13V36H8Z" fill="url(#paint19_linear_1031_16083)"/>
<path d="M14 36V31H19V36H14Z" fill="url(#paint20_linear_1031_16083)"/>
<path d="M20 36V31H25V36H20Z" fill="url(#paint21_linear_1031_16083)"/>
<path d="M26 36V31H31V36H26Z" fill="url(#paint22_linear_1031_16083)"/>
<path d="M32 36V31H37V36H32Z" fill="url(#paint23_linear_1031_16083)"/>
<path d="M39 36V31H44V36H39Z" fill="url(#paint24_linear_1031_16083)"/>
<path d="M45 36V31H50V36H45Z" fill="url(#paint25_linear_1031_16083)"/>
<path d="M51.3233 35.7095V30.9819H56.2856V35.7095H51.3233Z" fill="url(#paint26_linear_1031_16083)"/>
<path d="M1 42L1 37H6V42H1Z" fill="url(#paint27_linear_1031_16083)"/>
<path d="M20 42V37H25V42H20Z" fill="url(#paint28_linear_1031_16083)"/>
<path d="M26 42V37H31V42H26Z" fill="url(#paint29_linear_1031_16083)"/>
<path d="M32 42V37H37V42H32Z" fill="url(#paint30_linear_1031_16083)"/>
<path d="M39 42V37H44V42H39Z" fill="url(#paint31_linear_1031_16083)"/>
<path d="M1 48L1 43H6V48H1Z" fill="url(#paint32_linear_1031_16083)"/>
<path d="M8 48V43H13V48H8Z" fill="url(#paint33_linear_1031_16083)"/>
<path d="M14 48V43H19V48H14Z" fill="url(#paint34_linear_1031_16083)"/>
<path d="M20 48V43H25V48H20Z" fill="url(#paint35_linear_1031_16083)"/>
<path d="M26 48V43H31V48H26Z" fill="url(#paint36_linear_1031_16083)"/>
<path d="M32 48V43H37V48H32Z" fill="url(#paint37_linear_1031_16083)"/>
<path d="M39 48V43H44V48H39Z" fill="url(#paint38_linear_1031_16083)"/>
<path d="M45 48V43H50V48H45Z" fill="url(#paint39_linear_1031_16083)"/>
<path d="M51 48V43H56V48H51Z" fill="url(#paint40_linear_1031_16083)"/>
<path d="M58 48V43H63V48H58Z" fill="url(#paint41_linear_1031_16083)"/>
<path d="M64 48V43H69V48H64Z" fill="url(#paint42_linear_1031_16083)"/>
<path d="M8 54V49H13V54H8Z" fill="url(#paint43_linear_1031_16083)"/>
<path d="M14 54V49H19V54H14Z" fill="url(#paint44_linear_1031_16083)"/>
<path d="M20 54V49H25V54H20Z" fill="url(#paint45_linear_1031_16083)"/>
<path d="M26 54V49H31V54H26Z" fill="url(#paint46_linear_1031_16083)"/>
<path d="M240 37L240.891 40.1088L244 41L240.891 41.8912L240 45L239.109 41.8912L236 41L239.109 40.1088L240 37Z" fill="#01FFFF"/>
<path d="M493 27L494.782 33.2176L501 35L494.782 36.7824L493 43L491.218 36.7824L485 35L491.218 33.2176L493 27Z" fill="#01FFFF"/>
<path d="M573 11L573.891 14.1128L577 15.0052L573.891 15.8975L573 19L572.109 15.8975L569 15.0052L572.109 14.1128L573 11Z" fill="#01FFFF"/>
</g>
<defs>
<linearGradient id="paint0_linear_1031_16083" x1="400.55" y1="-22.3659" x2="337.023" y2="55.3685" gradientUnits="userSpaceOnUse">
<stop stop-color="#8845FF"/>
<stop offset="1" stop-color="#FF93BB"/>
</linearGradient>
<linearGradient id="paint1_linear_1031_16083" x1="1.5" y1="45.5" x2="69.5" y2="45.5" gradientUnits="userSpaceOnUse">
<stop stop-color="#A2A7FD"/>
<stop offset="1" stop-color="#9187FB"/>
</linearGradient>
<linearGradient id="paint2_linear_1031_16083" x1="1.5" y1="45.5" x2="69.5" y2="45.5" gradientUnits="userSpaceOnUse">
<stop stop-color="#A2A7FD"/>
<stop offset="1" stop-color="#9187FB"/>
</linearGradient>
<linearGradient id="paint3_linear_1031_16083" x1="1.5" y1="45.5" x2="69.5" y2="45.5" gradientUnits="userSpaceOnUse">
<stop stop-color="#A2A7FD"/>
<stop offset="1" stop-color="#9187FB"/>
</linearGradient>
<linearGradient id="paint4_linear_1031_16083" x1="1.5" y1="45.5" x2="69.5" y2="45.5" gradientUnits="userSpaceOnUse">
<stop stop-color="#A2A7FD"/>
<stop offset="1" stop-color="#9187FB"/>
</linearGradient>
<linearGradient id="paint5_linear_1031_16083" x1="1.5" y1="45.5" x2="69.5" y2="45.5" gradientUnits="userSpaceOnUse">
<stop stop-color="#A2A7FD"/>
<stop offset="1" stop-color="#9187FB"/>
</linearGradient>
<linearGradient id="paint6_linear_1031_16083" x1="1.5" y1="45.5" x2="69.5" y2="45.5" gradientUnits="userSpaceOnUse">
<stop stop-color="#A2A7FD"/>
<stop offset="1" stop-color="#9187FB"/>
</linearGradient>
<linearGradient id="paint7_linear_1031_16083" x1="1.5" y1="45.5" x2="69.5" y2="45.5" gradientUnits="userSpaceOnUse">
<stop stop-color="#A2A7FD"/>
<stop offset="1" stop-color="#9187FB"/>
</linearGradient>
<linearGradient id="paint8_linear_1031_16083" x1="1.5" y1="45.5" x2="69.5" y2="45.5" gradientUnits="userSpaceOnUse">
<stop stop-color="#A2A7FD"/>
<stop offset="1" stop-color="#9187FB"/>
</linearGradient>
<linearGradient id="paint9_linear_1031_16083" x1="1.5" y1="45.5" x2="69.5" y2="45.5" gradientUnits="userSpaceOnUse">
<stop stop-color="#A2A7FD"/>
<stop offset="1" stop-color="#9187FB"/>
</linearGradient>
<linearGradient id="paint10_linear_1031_16083" x1="1.5" y1="45.5" x2="69.5" y2="45.5" gradientUnits="userSpaceOnUse">
<stop stop-color="#A2A7FD"/>
<stop offset="1" stop-color="#9187FB"/>
</linearGradient>
<linearGradient id="paint11_linear_1031_16083" x1="1.5" y1="45.5" x2="69.5" y2="45.5" gradientUnits="userSpaceOnUse">
<stop stop-color="#A2A7FD"/>
<stop offset="1" stop-color="#9187FB"/>
</linearGradient>
<linearGradient id="paint12_linear_1031_16083" x1="1.5" y1="45.5" x2="69.5" y2="45.5" gradientUnits="userSpaceOnUse">
<stop stop-color="#A2A7FD"/>
<stop offset="1" stop-color="#9187FB"/>
</linearGradient>
<linearGradient id="paint13_linear_1031_16083" x1="1.5" y1="45.5" x2="69.5" y2="45.5" gradientUnits="userSpaceOnUse">
<stop stop-color="#A2A7FD"/>
<stop offset="1" stop-color="#9187FB"/>
</linearGradient>
<linearGradient id="paint14_linear_1031_16083" x1="1.5" y1="45.5" x2="69.5" y2="45.5" gradientUnits="userSpaceOnUse">
<stop stop-color="#A2A7FD"/>
<stop offset="1" stop-color="#9187FB"/>
</linearGradient>
<linearGradient id="paint15_linear_1031_16083" x1="1.5" y1="45.5" x2="69.5" y2="45.5" gradientUnits="userSpaceOnUse">
<stop stop-color="#A2A7FD"/>
<stop offset="1" stop-color="#9187FB"/>
</linearGradient>
<linearGradient id="paint16_linear_1031_16083" x1="1.5" y1="45.5" x2="69.5" y2="45.5" gradientUnits="userSpaceOnUse">
<stop stop-color="#A2A7FD"/>
<stop offset="1" stop-color="#9187FB"/>
</linearGradient>
<linearGradient id="paint17_linear_1031_16083" x1="1.5" y1="45.5" x2="69.5" y2="45.5" gradientUnits="userSpaceOnUse">
<stop stop-color="#A2A7FD"/>
<stop offset="1" stop-color="#9187FB"/>
</linearGradient>
<linearGradient id="paint18_linear_1031_16083" x1="1.5" y1="45.5" x2="69.5" y2="45.5" gradientUnits="userSpaceOnUse">
<stop stop-color="#A2A7FD"/>
<stop offset="1" stop-color="#9187FB"/>
</linearGradient>
<linearGradient id="paint19_linear_1031_16083" x1="1.5" y1="45.5" x2="69.5" y2="45.5" gradientUnits="userSpaceOnUse">
<stop stop-color="#A2A7FD"/>
<stop offset="1" stop-color="#9187FB"/>
</linearGradient>
<linearGradient id="paint20_linear_1031_16083" x1="1.5" y1="45.5" x2="69.5" y2="45.5" gradientUnits="userSpaceOnUse">
<stop stop-color="#A2A7FD"/>
<stop offset="1" stop-color="#9187FB"/>
</linearGradient>
<linearGradient id="paint21_linear_1031_16083" x1="1.5" y1="45.5" x2="69.5" y2="45.5" gradientUnits="userSpaceOnUse">
<stop stop-color="#A2A7FD"/>
<stop offset="1" stop-color="#9187FB"/>
</linearGradient>
<linearGradient id="paint22_linear_1031_16083" x1="1.5" y1="45.5" x2="69.5" y2="45.5" gradientUnits="userSpaceOnUse">
<stop stop-color="#A2A7FD"/>
<stop offset="1" stop-color="#9187FB"/>
</linearGradient>
<linearGradient id="paint23_linear_1031_16083" x1="1.5" y1="45.5" x2="69.5" y2="45.5" gradientUnits="userSpaceOnUse">
<stop stop-color="#A2A7FD"/>
<stop offset="1" stop-color="#9187FB"/>
</linearGradient>
<linearGradient id="paint24_linear_1031_16083" x1="1.5" y1="45.5" x2="69.5" y2="45.5" gradientUnits="userSpaceOnUse">
<stop stop-color="#A2A7FD"/>
<stop offset="1" stop-color="#9187FB"/>
</linearGradient>
<linearGradient id="paint25_linear_1031_16083" x1="1.5" y1="45.5" x2="69.5" y2="45.5" gradientUnits="userSpaceOnUse">
<stop stop-color="#A2A7FD"/>
<stop offset="1" stop-color="#9187FB"/>
</linearGradient>
<linearGradient id="paint26_linear_1031_16083" x1="1.5" y1="45.5" x2="69.5" y2="45.5" gradientUnits="userSpaceOnUse">
<stop stop-color="#A2A7FD"/>
<stop offset="1" stop-color="#9187FB"/>
</linearGradient>
<linearGradient id="paint27_linear_1031_16083" x1="1.5" y1="45.5" x2="69.5" y2="45.5" gradientUnits="userSpaceOnUse">
<stop stop-color="#A2A7FD"/>
<stop offset="1" stop-color="#9187FB"/>
</linearGradient>
<linearGradient id="paint28_linear_1031_16083" x1="1.5" y1="45.5" x2="69.5" y2="45.5" gradientUnits="userSpaceOnUse">
<stop stop-color="#A2A7FD"/>
<stop offset="1" stop-color="#9187FB"/>
</linearGradient>
<linearGradient id="paint29_linear_1031_16083" x1="1.5" y1="45.5" x2="69.5" y2="45.5" gradientUnits="userSpaceOnUse">
<stop stop-color="#A2A7FD"/>
<stop offset="1" stop-color="#9187FB"/>
</linearGradient>
<linearGradient id="paint30_linear_1031_16083" x1="1.5" y1="45.5" x2="69.5" y2="45.5" gradientUnits="userSpaceOnUse">
<stop stop-color="#A2A7FD"/>
<stop offset="1" stop-color="#9187FB"/>
</linearGradient>
<linearGradient id="paint31_linear_1031_16083" x1="1.5" y1="45.5" x2="69.5" y2="45.5" gradientUnits="userSpaceOnUse">
<stop stop-color="#A2A7FD"/>
<stop offset="1" stop-color="#9187FB"/>
</linearGradient>
<linearGradient id="paint32_linear_1031_16083" x1="1.5" y1="45.5" x2="69.5" y2="45.5" gradientUnits="userSpaceOnUse">
<stop stop-color="#A2A7FD"/>
<stop offset="1" stop-color="#9187FB"/>
</linearGradient>
<linearGradient id="paint33_linear_1031_16083" x1="1.5" y1="45.5" x2="69.5" y2="45.5" gradientUnits="userSpaceOnUse">
<stop stop-color="#A2A7FD"/>
<stop offset="1" stop-color="#9187FB"/>
</linearGradient>
<linearGradient id="paint34_linear_1031_16083" x1="1.5" y1="45.5" x2="69.5" y2="45.5" gradientUnits="userSpaceOnUse">
<stop stop-color="#A2A7FD"/>
<stop offset="1" stop-color="#9187FB"/>
</linearGradient>
<linearGradient id="paint35_linear_1031_16083" x1="1.5" y1="45.5" x2="69.5" y2="45.5" gradientUnits="userSpaceOnUse">
<stop stop-color="#A2A7FD"/>
<stop offset="1" stop-color="#9187FB"/>
</linearGradient>
<linearGradient id="paint36_linear_1031_16083" x1="1.5" y1="45.5" x2="69.5" y2="45.5" gradientUnits="userSpaceOnUse">
<stop stop-color="#A2A7FD"/>
<stop offset="1" stop-color="#9187FB"/>
</linearGradient>
<linearGradient id="paint37_linear_1031_16083" x1="1.5" y1="45.5" x2="69.5" y2="45.5" gradientUnits="userSpaceOnUse">
<stop stop-color="#A2A7FD"/>
<stop offset="1" stop-color="#9187FB"/>
</linearGradient>
<linearGradient id="paint38_linear_1031_16083" x1="1.5" y1="45.5" x2="69.5" y2="45.5" gradientUnits="userSpaceOnUse">
<stop stop-color="#A2A7FD"/>
<stop offset="1" stop-color="#9187FB"/>
</linearGradient>
<linearGradient id="paint39_linear_1031_16083" x1="1.5" y1="45.5" x2="69.5" y2="45.5" gradientUnits="userSpaceOnUse">
<stop stop-color="#A2A7FD"/>
<stop offset="1" stop-color="#9187FB"/>
</linearGradient>
<linearGradient id="paint40_linear_1031_16083" x1="1.5" y1="45.5" x2="69.5" y2="45.5" gradientUnits="userSpaceOnUse">
<stop stop-color="#A2A7FD"/>
<stop offset="1" stop-color="#9187FB"/>
</linearGradient>
<linearGradient id="paint41_linear_1031_16083" x1="1.5" y1="45.5" x2="69.5" y2="45.5" gradientUnits="userSpaceOnUse">
<stop stop-color="#A2A7FD"/>
<stop offset="1" stop-color="#9187FB"/>
</linearGradient>
<linearGradient id="paint42_linear_1031_16083" x1="1.5" y1="45.5" x2="69.5" y2="45.5" gradientUnits="userSpaceOnUse">
<stop stop-color="#A2A7FD"/>
<stop offset="1" stop-color="#9187FB"/>
</linearGradient>
<linearGradient id="paint43_linear_1031_16083" x1="1.5" y1="45.5" x2="69.5" y2="45.5" gradientUnits="userSpaceOnUse">
<stop stop-color="#A2A7FD"/>
<stop offset="1" stop-color="#9187FB"/>
</linearGradient>
<linearGradient id="paint44_linear_1031_16083" x1="1.5" y1="45.5" x2="69.5" y2="45.5" gradientUnits="userSpaceOnUse">
<stop stop-color="#A2A7FD"/>
<stop offset="1" stop-color="#9187FB"/>
</linearGradient>
<linearGradient id="paint45_linear_1031_16083" x1="1.5" y1="45.5" x2="69.5" y2="45.5" gradientUnits="userSpaceOnUse">
<stop stop-color="#A2A7FD"/>
<stop offset="1" stop-color="#9187FB"/>
</linearGradient>
<linearGradient id="paint46_linear_1031_16083" x1="1.5" y1="45.5" x2="69.5" y2="45.5" gradientUnits="userSpaceOnUse">
<stop stop-color="#A2A7FD"/>
<stop offset="1" stop-color="#9187FB"/>
</linearGradient>
<clipPath id="clip0_1031_16083">
<rect width="577" height="56" fill="white"/>
</clipPath>
</defs>
</svg>
