<svg width="312" height="56" viewBox="0 0 312 56" fill="none" xmlns="http://www.w3.org/2000/svg">
<g clip-path="url(#clip0_1031_16188)">
<path opacity="0.7" fill-rule="evenodd" clip-rule="evenodd" d="M256.219 -4.21872C257.262 -3.17583 257.26 -1.48361 256.216 -0.439038L246.008 9.76832L242.232 5.99168L252.439 -4.21568C253.484 -5.26025 255.176 -5.26161 256.219 -4.21872ZM224.279 5.06144C228.979 0.360875 236.594 0.354741 241.287 5.04775L246.952 10.7127C251.645 15.4057 251.639 23.0207 246.939 27.7213L235.035 39.6249L212.375 16.965L224.279 5.06144ZM191.515 66.9473C196.208 71.6404 204.756 70.6368 209.456 65.9362L221.426 54.9629L217.415 50.9521L224.509 43.858C225.554 42.8134 225.555 41.1212 224.512 40.0783C223.469 39.0354 221.777 39.0368 220.732 40.0813L213.638 47.1755L204.296 37.8333L211.39 30.7391C212.435 29.6946 212.436 28.0023 211.393 26.9594C210.35 25.9166 208.658 25.9179 207.614 26.9625L200.519 34.0567L197.524 31.0615L185.554 43.0315C180.853 47.732 180.847 56.279 185.54 60.972L186.396 61.8279L176.784 71.439C175.74 72.4836 175.738 74.1758 176.781 75.2187C177.824 76.2616 179.516 76.2602 180.561 75.2157L190.172 65.6045L191.515 66.9473Z" fill="url(#paint0_linear_1031_16188)"/>
<path d="M4 31L4.89119 34.1088L8 35L4.89119 35.8912L4 39L3.10881 35.8912L0 35L3.10881 34.1088L4 31Z" fill="#01FFFF"/>
<path d="M88 15L89.7824 21.2176L96 23L89.7824 24.7824L88 31L86.2176 24.7824L80 23L86.2176 21.2176L88 15Z" fill="#01FFFF"/>
<path d="M308 8L308.891 11.1128L312 12.0052L308.891 12.8975L308 16L307.109 12.8975L304 12.0052L307.109 11.1128L308 8Z" fill="#01FFFF"/>
</g>
<defs>
<linearGradient id="paint0_linear_1031_16188" x1="270.911" y1="-19.6548" x2="170.26" y2="80.0374" gradientUnits="userSpaceOnUse">
<stop stop-color="#8845FF"/>
<stop offset="1" stop-color="#FF93BA"/>
</linearGradient>
<clipPath id="clip0_1031_16188">
<rect width="312" height="56" fill="white"/>
</clipPath>
</defs>
</svg>
