<svg width="320" height="48" viewBox="0 0 320 48" fill="none" xmlns="http://www.w3.org/2000/svg">
<path d="M54.5 39.5V16.7027L68.9282 7.5H266.5V30.083L251.736 39.5H54.5Z" stroke="#01FFFF"/>
<path d="M271.254 17.2585L292.803 19.0682L292.789 20.9619L271.254 17.2585Z" fill="#00FFFF"/>
<path d="M269.945 12.9954L291.665 6.61593L291.488 8.64629L269.945 12.9954Z" fill="#00FFFF"/>
<path d="M49 33L27 37.0001L27 39.0001L49 33Z" fill="#00FFFF"/>
<path d="M49 28L28 22L28 24L49 28Z" fill="#00FFFF"/>
<path d="M13 7L13.8912 10.1088L17 11L13.8912 11.8912L13 15L12.1088 11.8912L9 11L12.1088 10.1088L13 7Z" fill="#01FFFF"/>
<path d="M305 34L305.891 37.1088L309 38L305.891 38.8912L305 42L304.109 38.8912L301 38L304.109 37.1088L305 34Z" fill="#01FFFF"/>
<path d="M19.5 29L20.057 30.9455L22 31.5032L20.057 32.061L19.5 34L18.943 32.061L17 31.5032L18.943 30.9455L19.5 29Z" fill="#01FFFF"/>
<path d="M298.5 10L299.057 11.9455L301 12.5032L299.057 13.061L298.5 15L297.943 13.061L296 12.5032L297.943 11.9455L298.5 10Z" fill="#01FFFF"/>
</svg>
