<svg width="502" height="50" viewBox="0 0 502 50" fill="none" xmlns="http://www.w3.org/2000/svg">
<path fill-rule="evenodd" clip-rule="evenodd" d="M11.1741 16.5119L8.27931 19.4133C8.00766 19.6856 8.00653 20.1281 8.27678 20.4018C8.54703 20.6755 8.98632 20.6766 9.25797 20.4043L12.6419 17.0126C12.8048 16.8493 12.8704 16.6247 12.8385 16.412C12.819 16.2647 12.7529 16.1224 12.6402 16.0094L9.26066 12.6221C8.98901 12.3498 8.54971 12.3509 8.27946 12.6246C8.00921 12.8983 8.01035 13.3409 8.282 13.6131L11.1741 16.5119Z" fill="white"/>
<rect x="0.5" y="7.01172" width="19" height="19" rx="9.5" stroke="white"/>
<g opacity="0.9">
<path d="M335.05 10.6011L335.935 5.28931L330.893 7.17898L335.05 10.6011Z" fill="white"/>
<path fill-rule="evenodd" clip-rule="evenodd" d="M272.096 17.8186L279.679 22.1478C280.639 22.6954 280.972 23.917 280.425 24.8763L276.096 32.46C275.548 33.4193 274.326 33.753 273.367 33.2054L265.783 28.8762C264.824 28.3286 264.49 27.107 265.038 26.1478L269.367 18.564C269.915 17.6048 271.136 17.271 272.096 17.8186ZM268.499 18.0683C269.32 16.6294 271.152 16.1288 272.591 16.9502L280.175 21.2794C281.614 22.1008 282.115 23.9331 281.293 25.372L276.964 32.9558C276.143 34.3947 274.31 34.8953 272.871 34.0739L265.288 29.7447C263.849 28.9233 263.348 27.0909 264.169 25.652L268.499 18.0683Z" fill="white"/>
<path fill-rule="evenodd" clip-rule="evenodd" d="M449.275 2.82843L452.104 5.65685C452.885 6.4379 452.885 7.70423 452.104 8.48528L449.275 11.3137C448.494 12.0948 447.228 12.0948 446.447 11.3137L443.618 8.48528C442.837 7.70423 442.837 6.4379 443.618 5.65685L446.447 2.82843C447.228 2.04738 448.494 2.04738 449.275 2.82843ZM445.74 2.12132C446.911 0.949748 448.811 0.949748 449.982 2.12132L452.811 4.94975C453.982 6.12132 453.982 8.02082 452.811 9.19239L449.982 12.0208C448.811 13.1924 446.911 13.1924 445.74 12.0208L442.911 9.19239C441.74 8.02082 441.74 6.12132 442.911 4.94975L445.74 2.12132Z" fill="white"/>
<circle cx="2" cy="2" r="2" transform="matrix(-1 0 0 1 501.333 22.4966)" fill="white"/>
<circle cx="1.5" cy="1.5" r="1.5" transform="matrix(-1 0 0 1 390.067 30.1455)" fill="white"/>
<circle cx="1.5" cy="1.5" r="1.5" transform="matrix(-1 0 0 1 99.6748 18.2793)" fill="white"/>
<circle cx="1.5" cy="1.5" r="1.5" transform="matrix(-1 0 0 1 227.279 2.01172)" fill="white"/>
<mask id="path-10-outside-1_250_1632" maskUnits="userSpaceOnUse" x="151.837" y="6.46662" width="44.0908" height="44.0908" fill="black">
<rect fill="white" x="151.837" y="6.46662" width="44.0908" height="44.0908"/>
<path d="M155.132 24.2186C153.989 19.9509 156.521 15.5642 160.789 14.4207L178.176 9.76192C182.443 8.61838 186.83 11.151 187.974 15.4188L192.632 32.8054C193.776 37.0732 191.243 41.4599 186.976 42.6034L169.589 47.2621C165.321 48.4057 160.934 45.873 159.791 41.6053L155.132 24.2186Z"/>
</mask>
<path d="M155.132 24.2186C153.989 19.9509 156.521 15.5642 160.789 14.4207L178.176 9.76192C182.443 8.61838 186.83 11.151 187.974 15.4188L192.632 32.8054C193.776 37.0732 191.243 41.4599 186.976 42.6034L169.589 47.2621C165.321 48.4057 160.934 45.873 159.791 41.6053L155.132 24.2186Z" fill="white" fill-opacity="0.1"/>
<path d="M169.589 47.2621L169.848 48.2281L169.589 47.2621ZM159.791 41.6053L160.757 41.3465L159.791 41.6053ZM192.632 32.8054L193.598 32.5466L192.632 32.8054ZM186.976 42.6034L186.717 41.6375L186.976 42.6034ZM187.974 15.4188L187.008 15.6776L187.974 15.4188ZM155.132 24.2186L154.166 24.4774L155.132 24.2186ZM161.048 15.3866L178.435 10.7278L177.917 8.79599L160.53 13.4547L161.048 15.3866ZM187.008 15.6776L191.666 33.0643L193.598 32.5466L188.94 15.16L187.008 15.6776ZM186.717 41.6375L169.33 46.2962L169.848 48.2281L187.234 43.5693L186.717 41.6375ZM160.757 41.3465L156.098 23.9598L154.166 24.4774L158.825 41.8641L160.757 41.3465ZM169.33 46.2962C165.596 47.2968 161.757 45.0807 160.757 41.3465L158.825 41.8641C160.111 46.6653 165.047 49.5145 169.848 48.2281L169.33 46.2962ZM191.666 33.0643C192.667 36.7985 190.451 40.6369 186.717 41.6375L187.234 43.5693C192.036 42.2828 194.885 37.3478 193.598 32.5466L191.666 33.0643ZM178.435 10.7278C182.169 9.72725 186.007 11.9433 187.008 15.6776L188.94 15.16C187.653 10.3588 182.718 7.50951 177.917 8.79599L178.435 10.7278ZM160.53 13.4547C155.729 14.7412 152.88 19.6762 154.166 24.4774L156.098 23.9598C155.098 20.2255 157.314 16.3872 161.048 15.3866L160.53 13.4547Z" fill="white" mask="url(#path-10-outside-1_250_1632)"/>
<mask id="path-12-outside-2_250_1632" maskUnits="userSpaceOnUse" x="163.213" y="17.75" width="21.3383" height="22.7525" fill="black">
<rect fill="white" x="163.213" y="17.75" width="21.3383" height="22.7525"/>
<path fill-rule="evenodd" clip-rule="evenodd" d="M183.068 34.4296C183.211 34.963 182.894 35.5114 182.361 35.6543L169.804 39.019C169.27 39.1619 168.722 38.8453 168.579 38.3119L164.697 23.823C164.554 23.2895 164.871 22.7412 165.404 22.5982L173.216 20.5051C173.471 20.4367 173.743 20.4722 173.972 20.6038L179.983 24.0553C180.214 24.1878 180.382 24.4068 180.451 24.6637L183.068 34.4296ZM173.778 22.9425C173.707 22.6758 173.433 22.5175 173.166 22.5889C172.899 22.6604 172.741 22.9346 172.813 23.2013L173.848 27.065C173.919 27.3318 174.193 27.49 174.46 27.4186L178.324 26.3833C178.591 26.3118 178.749 26.0377 178.677 25.7709C178.606 25.5042 178.332 25.3459 178.065 25.4174L174.684 26.3232L173.778 22.9425Z"/>
</mask>
<path d="M182.361 35.6543L182.102 34.6884L182.361 35.6543ZM183.068 34.4296L184.034 34.1708L183.068 34.4296ZM169.804 39.019L170.063 39.9849L169.804 39.019ZM168.579 38.3119L169.545 38.053L168.579 38.3119ZM164.697 23.823L163.731 24.0818L164.697 23.823ZM165.404 22.5982L165.145 21.6323L165.404 22.5982ZM173.216 20.5051L173.474 21.471L173.216 20.5051ZM173.972 20.6038L174.47 19.7366L174.47 19.7366L173.972 20.6038ZM179.983 24.0553L179.485 24.9226L179.485 24.9226L179.983 24.0553ZM180.451 24.6637L179.485 24.9226L180.451 24.6637ZM173.778 22.9425L172.813 23.2013L173.778 22.9425ZM174.46 27.4186L174.719 28.3845L174.46 27.4186ZM178.324 26.3833L178.065 25.4174L178.324 26.3833ZM178.065 25.4174L177.806 24.4514L178.065 25.4174ZM174.684 26.3232L173.718 26.5821L173.977 27.548L174.943 27.2892L174.684 26.3232ZM182.62 36.6203C183.687 36.3344 184.32 35.2377 184.034 34.1708L182.102 34.6884L182.102 34.6884L182.62 36.6203ZM170.063 39.9849L182.62 36.6203L182.102 34.6884L169.545 38.053L170.063 39.9849ZM167.613 38.5707C167.899 39.6376 168.996 40.2708 170.063 39.9849L169.545 38.053L169.545 38.053L167.613 38.5707ZM163.731 24.0818L167.613 38.5707L169.545 38.053L165.663 23.5642L163.731 24.0818ZM165.145 21.6323C164.078 21.9182 163.445 23.0149 163.731 24.0818L165.663 23.5642L165.663 23.5642L165.145 21.6323ZM172.957 19.5392L165.145 21.6323L165.663 23.5642L173.474 21.471L172.957 19.5392ZM174.47 19.7366C174.012 19.4733 173.468 19.4023 172.957 19.5392L173.474 21.471L173.474 21.471L174.47 19.7366ZM180.481 23.1881L174.47 19.7366L173.474 21.471L179.485 24.9226L180.481 23.1881ZM181.417 24.4049C181.28 23.891 180.943 23.4531 180.481 23.1881L179.485 24.9226L179.485 24.9226L181.417 24.4049ZM184.034 34.1708L181.417 24.4049L179.485 24.9226L182.102 34.6884L184.034 34.1708ZM173.425 23.5549C173.158 23.6263 172.884 23.4681 172.813 23.2013L174.744 22.6837C174.53 21.8835 173.707 21.4086 172.907 21.623L173.425 23.5549ZM173.778 22.9425C173.85 23.2092 173.692 23.4834 173.425 23.5549L172.907 21.623C172.107 21.8374 171.632 22.6599 171.847 23.4601L173.778 22.9425ZM174.814 26.8062L173.778 22.9425L171.847 23.4601L172.882 27.3238L174.814 26.8062ZM174.201 26.4526C174.468 26.3812 174.742 26.5395 174.814 26.8062L172.882 27.3238C173.096 28.124 173.919 28.5989 174.719 28.3845L174.201 26.4526ZM178.065 25.4174L174.201 26.4526L174.719 28.3845L178.583 27.3492L178.065 25.4174ZM177.712 26.0297C177.64 25.763 177.798 25.4888 178.065 25.4174L178.583 27.3492C179.383 27.1348 179.858 26.3123 179.643 25.5121L177.712 26.0297ZM178.324 26.3833C178.057 26.4548 177.783 26.2965 177.712 26.0297L179.643 25.5121C179.429 24.7119 178.606 24.237 177.806 24.4514L178.324 26.3833ZM174.943 27.2892L178.324 26.3833L177.806 24.4514L174.426 25.3573L174.943 27.2892ZM172.813 23.2013L173.718 26.5821L175.65 26.0644L174.744 22.6837L172.813 23.2013Z" fill="white" mask="url(#path-12-outside-2_250_1632)"/>
</g>
</svg>
