<svg width="435" height="69" viewBox="0 0 435 69" fill="none" xmlns="http://www.w3.org/2000/svg">
<g opacity="0.9">
<path d="M107.092 16.1968L107.976 10.885L102.934 12.7747L107.092 16.1968Z" fill="white"/>
<path d="M221.828 41.2542L220.382 44.1865L222.724 46.4679L219.489 45.9988L218.043 48.9311L217.489 45.7089L214.253 45.2399L217.147 43.7175L216.593 40.4953L218.935 42.7766L221.828 41.2542Z" fill="white"/>
<circle cx="1.5" cy="1.5" r="1.5" transform="matrix(-1 0 0 1 321.991 27.9336)" fill="white"/>
<circle cx="1.5" cy="1.5" r="1.5" transform="matrix(-1 0 0 1 72.0012 45.252)" fill="white"/>
<circle cx="1.5" cy="1.5" r="1.5" transform="matrix(-1 0 0 1 164.652 16.5645)" fill="white"/>
<path fill-rule="evenodd" clip-rule="evenodd" d="M270.694 3.4327L275.869 8.1461C277.094 9.26173 277.183 11.1592 276.067 12.3841L271.354 17.5594C270.238 18.7844 268.341 18.873 267.116 17.7574L261.941 13.044C260.716 11.9284 260.627 10.0309 261.743 8.80598L266.456 3.63067C267.572 2.4057 269.469 2.31707 270.694 3.4327ZM265.717 2.95732C267.204 1.32404 269.734 1.20586 271.367 2.69337L276.543 7.40676C278.176 8.89427 278.294 11.4242 276.807 13.0575L272.093 18.2328C270.606 19.8661 268.076 19.9842 266.443 18.4967L261.267 13.7833C259.634 12.2958 259.516 9.76593 261.003 8.13264L265.717 2.95732Z" fill="white"/>
<path fill-rule="evenodd" clip-rule="evenodd" d="M3 18.5645H7C8.10457 18.5645 9 19.4599 9 20.5645V24.5645C9 25.669 8.10457 26.5645 7 26.5645H3C1.89543 26.5645 1 25.669 1 24.5645V20.5645C1 19.4599 1.89543 18.5645 3 18.5645ZM0 20.5645C0 18.9076 1.34315 17.5645 3 17.5645H7C8.65685 17.5645 10 18.9076 10 20.5645V24.5645C10 26.2213 8.65685 27.5645 7 27.5645H3C1.34315 27.5645 0 26.2213 0 24.5645V20.5645Z" fill="white"/>
<path d="M143.964 57.4579C140.577 54.0413 138.233 49.239 136.362 42.0762C139.617 41.1604 142.239 39.961 144.375 38.2572C146.486 36.5736 148.097 34.4182 149.384 31.6147C152.078 33.3199 154.539 34.3834 157.098 34.8236C159.681 35.2682 162.328 35.0711 165.37 34.3032C167.402 41.1016 167.804 46.5437 166.632 51.3239C165.452 56.1354 162.663 60.338 158.206 64.611C151.893 62.9861 147.374 60.8991 143.964 57.4579Z" stroke="white"/>
<path fill-rule="evenodd" clip-rule="evenodd" d="M158.981 42.0946C159.553 42.3611 159.807 43.0449 159.547 43.6219L155.479 52.662C155.344 52.9613 155.089 53.187 154.777 53.2818C154.466 53.3765 154.128 53.3313 153.85 53.1576L149.396 50.3761C148.86 50.0412 148.69 49.3318 149.018 48.7916C149.345 48.2513 150.046 48.0849 150.582 48.4198L153.938 50.5159L157.475 42.6569C157.735 42.0798 158.409 41.8281 158.981 42.0946Z" fill="white"/>
</g>
<path d="M393.036 32.3461L393.036 32.3461L393.035 32.3479L390.105 44.4446C390.069 44.5936 390.104 44.751 390.198 44.8715C390.293 44.992 390.438 45.0623 390.591 45.0623H428.991C429.145 45.0623 429.29 44.9916 429.385 44.8705C429.48 44.7494 429.514 44.5915 429.477 44.4422L426.337 31.7518C426.335 31.7423 426.332 31.7299 426.329 31.7149C426.322 31.6827 426.312 31.6382 426.298 31.583C426.27 31.4728 426.225 31.3196 426.158 31.1377C426.023 30.7749 425.796 30.2909 425.423 29.8052C424.662 28.8162 423.325 27.8623 421.072 27.8623H398.454C397.295 27.8623 396.158 28.0814 395.212 28.6881C394.254 29.3029 393.543 30.2841 393.193 31.7066L393.679 31.8261L393.193 31.7066L393.036 32.3461Z" fill="#55B5DC" stroke="white" stroke-miterlimit="10" stroke-linecap="round" stroke-linejoin="round"/>
<path d="M423.662 50.8623C426.71 50.8623 429.091 48.122 429.091 44.8623C429.091 41.6026 426.71 38.8623 423.662 38.8623H395.521C392.473 38.8623 390.091 41.6026 390.091 44.8623C390.091 48.122 392.473 50.8623 395.521 50.8623H423.662Z" fill="#88D0ED" stroke="white" stroke-miterlimit="10" stroke-linecap="round" stroke-linejoin="round"/>
<path d="M417.978 46.3623H397.205C396.32 46.3623 395.591 45.6849 395.591 44.8623C395.591 44.0397 396.32 43.3623 397.205 43.3623H417.978C418.863 43.3623 419.591 44.0397 419.591 44.8623C419.591 45.6849 418.863 46.3623 417.978 46.3623Z" fill="white"/>
<path d="M423.091 46.3623C423.92 46.3623 424.591 45.6907 424.591 44.8623C424.591 44.0339 423.92 43.3623 423.091 43.3623C422.263 43.3623 421.591 44.0339 421.591 44.8623C421.591 45.6907 422.263 46.3623 423.091 46.3623Z" fill="white"/>
<path d="M406.091 14.3623V22.8623H401.591C401.386 22.8623 401.202 22.9874 401.127 23.178C401.051 23.3685 401.099 23.5859 401.249 23.7264L409.749 31.7264C409.941 31.9076 410.242 31.9076 410.434 31.7264L418.934 23.7264C419.083 23.5859 419.132 23.3685 419.056 23.178C418.981 22.9874 418.796 22.8623 418.591 22.8623H414.091V14.3623C414.091 14.0862 413.868 13.8623 413.591 13.8623H406.591C406.315 13.8623 406.091 14.0862 406.091 14.3623Z" fill="url(#paint0_linear_250_1507)" stroke="white" stroke-miterlimit="10" stroke-linecap="round" stroke-linejoin="round"/>
<defs>
<linearGradient id="paint0_linear_250_1507" x1="401.591" y1="13.6982" x2="418.591" y2="31.3623" gradientUnits="userSpaceOnUse">
<stop stop-color="#FFC671"/>
<stop offset="0.59375" stop-color="#FF7541"/>
<stop offset="1" stop-color="#FF6F3D"/>
</linearGradient>
</defs>
</svg>
