<svg width="356" height="49" viewBox="0 0 356 49" fill="none" xmlns="http://www.w3.org/2000/svg">
<path fill-rule="evenodd" clip-rule="evenodd" d="M11.1741 31.0001L8.27931 33.9015C8.00766 34.1738 8.00653 34.6164 8.27678 34.89C8.54703 35.1637 8.98632 35.1648 9.25797 34.8926L12.6419 31.5009C12.8048 31.3375 12.8704 31.1129 12.8385 30.9003C12.819 30.7529 12.7529 30.6106 12.6402 30.4976L9.26066 27.1103C8.98901 26.8381 8.54971 26.8392 8.27946 27.1128C8.00921 27.3865 8.01035 27.8291 8.282 28.1014L11.1741 31.0001Z" fill="white"/>
<rect x="0.5" y="21.5" width="19" height="19" rx="9.5" stroke="white"/>
<path d="M199.197 41.1352L203.423 42.0324M199.197 41.1352L201.082 37.3183M199.197 41.1352C211.112 36.2422 213.917 27.859 210.741 20.1245" stroke="white" stroke-linecap="round"/>
<path d="M182.351 7.91105L178.125 7.01392M182.351 7.91105L180.466 11.728M182.351 7.91105C170.436 12.8041 167.631 21.1873 170.807 28.9218" stroke="white" stroke-linecap="round"/>
<g clip-path="url(#clip0_2_360)">
<path d="M205.046 28.3941C205.151 28.6495 205.029 28.9417 204.774 29.0465L192.748 33.9846C192.492 34.0895 192.2 33.9675 192.095 33.712L185.258 17.0612C185.153 16.8057 185.275 16.5136 185.531 16.4087L193.012 13.3368C193.134 13.2866 193.271 13.2868 193.393 13.3375L199.795 15.9945C199.918 16.0455 200.016 16.1434 200.066 16.2664L205.046 28.3941Z" stroke="white"/>
<path fill-rule="evenodd" clip-rule="evenodd" d="M182.483 18.2007C182.228 18.3056 182.106 18.5977 182.21 18.8532L188.668 34.579C188.773 34.8344 189.065 34.9565 189.32 34.8516L190.708 34.2818C190.963 34.1769 191.255 34.299 191.36 34.5544C191.465 34.8098 191.343 35.102 191.088 35.2069L189.7 35.7766C188.934 36.0913 188.058 35.7252 187.743 34.9588L181.285 19.233C180.971 18.4667 181.337 17.5904 182.103 17.2757L183.491 16.7059C183.746 16.601 184.038 16.7231 184.143 16.9785C184.248 17.2339 184.126 17.5261 183.871 17.631L182.483 18.2007Z" fill="white"/>
<path fill-rule="evenodd" clip-rule="evenodd" d="M178.783 19.7201C178.527 19.825 178.405 20.1171 178.51 20.3726L184.968 36.0984C185.073 36.3538 185.365 36.4759 185.62 36.371L187.008 35.8012C187.263 35.6963 187.555 35.8184 187.66 36.0738C187.765 36.3293 187.643 36.6214 187.388 36.7263L186 37.296C185.234 37.6107 184.357 37.2446 184.043 36.4782L177.585 20.7524C177.27 19.9861 177.637 19.1098 178.403 18.7951L179.791 18.2253C180.046 18.1204 180.338 18.2425 180.443 18.4979C180.548 18.7534 180.426 19.0455 180.17 19.1504L178.783 19.7201Z" fill="white"/>
<path fill-rule="evenodd" clip-rule="evenodd" d="M193.038 14.9474C193.294 14.8425 193.586 14.9646 193.691 15.22L195.02 18.4577L198.258 17.1282C198.513 17.0233 198.806 17.1453 198.91 17.4008C199.015 17.6562 198.893 17.9483 198.638 18.0532L194.938 19.5726C194.682 19.6775 194.39 19.5555 194.285 19.3L192.766 15.5999C192.661 15.3444 192.783 15.0523 193.038 14.9474Z" fill="white"/>
<path fill-rule="evenodd" clip-rule="evenodd" d="M191.725 23.5946C191.62 23.3391 191.742 23.047 191.997 22.9421L197.547 20.663C197.803 20.5581 198.095 20.6802 198.2 20.9356C198.305 21.1911 198.183 21.4832 197.927 21.5881L192.377 23.8672C192.122 23.9721 191.829 23.85 191.725 23.5946Z" fill="white"/>
<path fill-rule="evenodd" clip-rule="evenodd" d="M192.864 26.3697C192.759 26.1143 192.881 25.8222 193.137 25.7173L198.687 23.4382C198.942 23.3333 199.235 23.4553 199.339 23.7108C199.444 23.9662 199.322 24.2583 199.067 24.3632L193.517 26.6423C193.261 26.7472 192.969 26.6252 192.864 26.3697Z" fill="white"/>
<path fill-rule="evenodd" clip-rule="evenodd" d="M194.004 29.1449C193.899 28.8894 194.021 28.5973 194.276 28.4924L199.827 26.2133C200.082 26.1084 200.374 26.2305 200.479 26.4859C200.584 26.7414 200.462 27.0335 200.206 27.1384L194.656 29.4175C194.401 29.5224 194.109 29.4003 194.004 29.1449Z" fill="white"/>
</g>
<circle cx="2.5" cy="2.5" r="3" transform="matrix(-1 0 0 1 354.463 34.6148)" stroke="white"/>
<circle cx="3" cy="3" r="3" transform="matrix(-1 0 0 1 123.41 28.6148)" fill="white"/>
<path d="M267.652 11.6792C269.689 14.2546 271.652 15.1792 274.152 16.6792C271.152 17.1792 269.652 18.1792 266.652 19.1792C267.234 16.3089 267.652 16.1792 267.652 14.6792" stroke="white" stroke-linecap="round" stroke-linejoin="round"/>
<defs>
<clipPath id="clip0_2_360">
<rect width="25.7669" height="24" fill="white" transform="translate(173.696 18.5659) rotate(-22.3245)"/>
</clipPath>
</defs>
</svg>
