<svg width="372" height="67" viewBox="0 0 372 67" fill="none" xmlns="http://www.w3.org/2000/svg">
<path d="M221.991 55.9492C218.605 52.5325 216.26 47.7302 214.39 40.5674C217.645 39.6516 220.266 38.4522 222.403 36.7485C224.513 35.0648 226.124 32.9094 227.412 30.1059C230.105 31.8111 232.567 32.8746 235.125 33.3148C237.709 33.7595 240.356 33.5623 243.397 32.7944C245.43 39.5928 245.832 45.0349 244.66 49.8151C243.48 54.6266 240.69 58.8292 236.234 63.1023C229.92 61.4773 225.402 59.3903 221.991 55.9492Z" stroke="white"/>
<path fill-rule="evenodd" clip-rule="evenodd" d="M237.009 40.5858C237.581 40.8523 237.834 41.5361 237.575 42.1131L233.507 51.1532C233.372 51.4525 233.116 51.6782 232.805 51.773C232.493 51.8677 232.156 51.8226 231.878 51.6488L227.423 48.8673C226.887 48.5324 226.718 47.823 227.046 47.2828C227.373 46.7425 228.073 46.5761 228.61 46.911L231.966 49.0071L235.503 41.1481C235.762 40.571 236.437 40.3193 237.009 40.5858Z" fill="white"/>
<path d="M177.734 14.5781C179.771 17.1535 181.734 18.0781 184.234 19.5781C181.234 20.0781 179.734 21.0781 176.734 22.0781C177.316 19.2078 177.734 19.0781 177.734 17.5781" stroke="white" stroke-linecap="round" stroke-linejoin="round"/>
<ellipse cx="345.416" cy="23.1276" rx="22.6912" ry="23.1276" fill="url(#paint0_linear_3_369)"/>
<path d="M338.929 32.0254H336.817V26.2422C336.817 26.0827 336.819 25.8867 336.824 25.6543C336.828 25.4173 336.835 25.1758 336.844 24.9297C336.853 24.679 336.862 24.4535 336.872 24.2529C336.821 24.3122 336.719 24.4147 336.564 24.5605C336.413 24.7018 336.272 24.8294 336.14 24.9434L334.992 25.8662L333.973 24.5947L337.193 22.0312H338.929V32.0254ZM348.845 32.0254H341.858V30.5557L344.367 28.0195C344.873 27.5 345.278 27.0671 345.584 26.7207C345.894 26.3698 346.117 26.0508 346.254 25.7637C346.395 25.4766 346.466 25.1689 346.466 24.8408C346.466 24.4443 346.354 24.1481 346.131 23.9521C345.912 23.7516 345.618 23.6514 345.249 23.6514C344.861 23.6514 344.485 23.7402 344.121 23.918C343.756 24.0957 343.376 24.3486 342.979 24.6768L341.831 23.3164C342.118 23.0703 342.421 22.8379 342.74 22.6191C343.064 22.4004 343.437 22.2249 343.861 22.0928C344.289 21.9561 344.802 21.8877 345.399 21.8877C346.055 21.8877 346.618 22.0062 347.088 22.2432C347.562 22.4801 347.926 22.8037 348.181 23.2139C348.437 23.6195 348.564 24.0798 348.564 24.5947C348.564 25.1462 348.455 25.6497 348.236 26.1055C348.017 26.5612 347.698 27.0124 347.279 27.459C346.864 27.9056 346.363 28.4001 345.775 28.9424L344.49 30.1523V30.248H348.845V32.0254ZM350.249 31.0479C350.249 30.6195 350.365 30.3187 350.598 30.1455C350.835 29.9723 351.12 29.8857 351.452 29.8857C351.776 29.8857 352.054 29.9723 352.286 30.1455C352.523 30.3187 352.642 30.6195 352.642 31.0479C352.642 31.458 352.523 31.7542 352.286 31.9365C352.054 32.1188 351.776 32.21 351.452 32.21C351.12 32.21 350.835 32.1188 350.598 31.9365C350.365 31.7542 350.249 31.458 350.249 31.0479ZM357.779 25.6406C358.389 25.6406 358.932 25.7568 359.406 25.9893C359.884 26.2217 360.26 26.5635 360.534 27.0146C360.807 27.4658 360.944 28.0218 360.944 28.6826C360.944 29.4027 360.793 30.0247 360.493 30.5488C360.196 31.0684 359.752 31.4671 359.16 31.7451C358.572 32.0231 357.838 32.1621 356.958 32.1621C356.434 32.1621 355.94 32.1165 355.475 32.0254C355.015 31.9388 354.611 31.8044 354.265 31.6221V29.7969C354.611 29.9792 355.026 30.1341 355.509 30.2617C355.997 30.3848 356.455 30.4463 356.883 30.4463C357.303 30.4463 357.656 30.3916 357.943 30.2822C358.23 30.1683 358.446 29.9951 358.592 29.7627C358.743 29.5257 358.818 29.2249 358.818 28.8604C358.818 28.3727 358.654 27.999 358.326 27.7393C357.998 27.4795 357.494 27.3496 356.815 27.3496C356.555 27.3496 356.284 27.3747 356.001 27.4248C355.723 27.4749 355.491 27.5251 355.304 27.5752L354.463 27.124L354.839 22.0312H360.26V23.8223H356.692L356.507 25.7842C356.662 25.7523 356.831 25.7204 357.013 25.6885C357.195 25.6566 357.451 25.6406 357.779 25.6406Z" fill="white"/>
<circle cx="348.463" cy="27.4129" r="22.1912" stroke="white"/>
<circle cx="2.5" cy="2.5" r="3" transform="matrix(-1 0 0 1 91.882 30.7832)" stroke="white"/>
<path d="M9.6789 25.6791L1.9354 21.8011L9.16552 17.034L9.6789 25.6791Z" fill="white"/>
<defs>
<linearGradient id="paint0_linear_3_369" x1="326.694" y1="5.62634" x2="368.865" y2="45.4525" gradientUnits="userSpaceOnUse">
<stop stop-color="#FF6F3D"/>
<stop offset="1" stop-color="#FFC671"/>
</linearGradient>
</defs>
</svg>
